<svg width="28" height="28" viewBox="0 0 28 28" fill="none" xmlns="http://www.w3.org/2000/svg">
<path d="M1.25 23.125V8.28125C1.25 6.41645 1.99079 4.62802 3.30941 3.30941C4.62802 1.99079 6.41645 1.25 8.28125 1.25H19.2188C20.1421 1.25 21.0564 1.43187 21.9095 1.78522C22.7626 2.13858 23.5377 2.65649 24.1906 3.30941C24.8435 3.96232 25.3614 4.73744 25.7148 5.59051C26.0681 6.44358 26.25 7.35789 26.25 8.28125V19.2188C26.25 20.1421 26.0681 21.0564 25.7148 21.9095C25.3614 22.7626 24.8435 23.5377 24.1906 24.1906C23.5377 24.8435 22.7626 25.3614 21.9095 25.7148C21.0564 26.0681 20.1421 26.25 19.2188 26.25H4.375C3.5462 26.25 2.75134 25.9208 2.16529 25.3347C1.57924 24.7487 1.25 23.9538 1.25 23.125V23.125Z" stroke="#597C75" stroke-width="2.5" stroke-linecap="round" stroke-linejoin="round"/>
<path d="M7.5 13.75H12.9688C13.7976 13.75 14.5924 14.0792 15.1785 14.6653C15.7645 15.2513 16.0938 16.0462 16.0938 16.875C16.0938 17.7038 15.7645 18.4987 15.1785 19.0847C14.5924 19.6708 13.7976 20 12.9688 20H7.5V9.0625C7.5 8.6481 7.66462 8.25067 7.95765 7.95765C8.25067 7.66462 8.6481 7.5 9.0625 7.5H11.4062C12.2351 7.5 13.0299 7.82924 13.616 8.41529C14.202 9.00134 14.5312 9.7962 14.5312 10.625C14.5312 11.4538 14.202 12.2487 13.616 12.8347C13.0299 13.4208 12.2351 13.75 11.4062 13.75H9.0625" stroke="#597C75" stroke-width="2.5" stroke-linecap="round" stroke-linejoin="round"/>
<path d="M20 20H20.015" stroke="#597C75" stroke-width="2.5" stroke-linecap="round" stroke-linejoin="round"/>
</svg>
