<svg width="20" height="28" viewBox="0 0 20 28" fill="none" xmlns="http://www.w3.org/2000/svg">
<path d="M11.875 1.5V5.25M1.25 4H18.75V9.625L15.625 14V21.5C15.625 21.5 15.625 26.5 10 26.5C4.375 26.5 4.375 21.5 4.375 21.5V14L1.25 9.625V4ZM4.375 1.5V5.25V1.5ZM8.125 1.5V5.25V1.5Z" stroke="#597C75" stroke-width="1.33333" stroke-linecap="round" stroke-linejoin="round"/>
<path d="M11.875 18.375C11.875 17.3395 11.0355 16.5 10 16.5C8.96447 16.5 8.125 17.3395 8.125 18.375V20.875C8.125 21.9105 8.96447 22.75 10 22.75C11.0355 22.75 11.875 21.9105 11.875 20.875V18.375Z" stroke="#597C75" stroke-width="1.33333" stroke-linecap="round" stroke-linejoin="round"/>
<path d="M15.625 1.5V5.25M1.25 9.625H18.75H1.25Z" stroke="#597C75" stroke-width="1.33333" stroke-linecap="round" stroke-linejoin="round"/>
</svg>
