<svg width="26" height="26" viewBox="0 0 26 26" fill="none" xmlns="http://www.w3.org/2000/svg">
<path fill-rule="evenodd" clip-rule="evenodd" d="M13 24.25C19.2131 24.25 24.25 19.2131 24.25 13C24.25 6.78687 19.2131 1.75 13 1.75C6.78687 1.75 1.75 6.78687 1.75 13C1.75 19.2131 6.78687 24.25 13 24.25ZM13 25.5C19.9037 25.5 25.5 19.9037 25.5 13C25.5 6.09625 19.9037 0.5 13 0.5C6.09625 0.5 0.5 6.09625 0.5 13C0.5 19.9037 6.09625 25.5 13 25.5Z" fill="#597C75"/>
<path d="M5.5 20.2686C5.5 19.623 5.9825 19.0774 6.625 19.0061C11.4469 18.4724 14.575 18.5205 19.3862 19.018C19.6265 19.0432 19.8542 19.1379 20.0416 19.2904C20.2289 19.4429 20.3678 19.6467 20.4412 19.8768C20.5147 20.107 20.5195 20.3535 20.4551 20.5863C20.3908 20.8192 20.26 21.0282 20.0788 21.188C14.4006 26.1374 11.1556 26.0692 5.9 21.193C5.64375 20.9555 5.5 20.618 5.5 20.2692V20.2686Z" fill="#597C75"/>
<path fill-rule="evenodd" clip-rule="evenodd" d="M19.3219 19.6395C14.5488 19.1458 11.4656 19.0995 6.69313 19.6277C6.37188 19.6633 6.125 19.9377 6.125 20.2695C6.125 20.4483 6.19938 20.6177 6.325 20.7352C8.93 23.1514 10.9038 24.2433 12.8331 24.2502C14.7694 24.257 16.8494 23.1739 19.6681 20.7177C19.7577 20.638 19.8221 20.534 19.8537 20.4183C19.8852 20.3026 19.8825 20.1803 19.8458 20.0662C19.8092 19.952 19.7401 19.851 19.6471 19.7754C19.5541 19.6998 19.4411 19.6528 19.3219 19.6402V19.6395ZM6.55625 18.3852C11.4288 17.8458 14.6025 17.8945 19.4513 18.3964C19.8127 18.4341 20.1553 18.5764 20.4371 18.8059C20.7189 19.0353 20.9277 19.3419 21.038 19.6882C21.1482 20.0345 21.1551 20.4054 21.0577 20.7555C20.9604 21.1057 20.7631 21.4198 20.49 21.6595C17.6306 24.152 15.2494 25.5095 12.8294 25.5002C10.4025 25.4914 8.12625 24.1108 5.47563 21.6514C5.28585 21.4746 5.13456 21.2606 5.03122 21.0228C4.92787 20.7849 4.8747 20.5283 4.875 20.2689C4.87409 19.8029 5.04513 19.353 5.35536 19.0053C5.66558 18.6576 6.09318 18.4366 6.55625 18.3845V18.3852Z" fill="#597C75"/>
<path d="M18 10.5C18 11.8261 17.4732 13.0979 16.5355 14.0355C15.5979 14.9732 14.3261 15.5 13 15.5C11.6739 15.5 10.4021 14.9732 9.46447 14.0355C8.52678 13.0979 8 11.8261 8 10.5C8 9.17392 8.52678 7.90215 9.46447 6.96447C10.4021 6.02678 11.6739 5.5 13 5.5C14.3261 5.5 15.5979 6.02678 16.5355 6.96447C17.4732 7.90215 18 9.17392 18 10.5Z" fill="#597C75"/>
<path fill-rule="evenodd" clip-rule="evenodd" d="M13 14.25C13.9946 14.25 14.9484 13.8549 15.6517 13.1517C16.3549 12.4484 16.75 11.4946 16.75 10.5C16.75 9.50544 16.3549 8.55161 15.6517 7.84835C14.9484 7.14509 13.9946 6.75 13 6.75C12.0054 6.75 11.0516 7.14509 10.3483 7.84835C9.64509 8.55161 9.25 9.50544 9.25 10.5C9.25 11.4946 9.64509 12.4484 10.3483 13.1517C11.0516 13.8549 12.0054 14.25 13 14.25ZM13 15.5C14.3261 15.5 15.5979 14.9732 16.5355 14.0355C17.4732 13.0979 18 11.8261 18 10.5C18 9.17392 17.4732 7.90215 16.5355 6.96447C15.5979 6.02678 14.3261 5.5 13 5.5C11.6739 5.5 10.4021 6.02678 9.46447 6.96447C8.52678 7.90215 8 9.17392 8 10.5C8 11.8261 8.52678 13.0979 9.46447 14.0355C10.4021 14.9732 11.6739 15.5 13 15.5Z" fill="#597C75"/>
</svg>
