<svg width="16" height="16" viewBox="0 0 16 16" fill="none" xmlns="http://www.w3.org/2000/svg">
<path d="M9.66875 8.925C10.0883 8.66998 10.4129 8.28474 10.593 7.82804C10.7732 7.37135 10.799 6.86825 10.6666 6.3955C10.5342 5.92274 10.2508 5.50628 9.8596 5.20961C9.46843 4.91294 8.99095 4.75237 8.5 4.75237C8.00905 4.75237 7.53157 4.91294 7.1404 5.20961C6.74922 5.50628 6.4658 5.92274 6.33339 6.3955C6.20097 6.86825 6.22681 7.37135 6.40697 7.82804C6.58714 8.28474 6.91173 8.66998 7.33125 8.925C6.51829 9.16868 5.80582 9.6685 5.3 10.35C5.26022 10.403 5.24314 10.4697 5.25251 10.5354C5.26189 10.601 5.29696 10.6602 5.35 10.7C5.39386 10.7313 5.44612 10.7488 5.5 10.75C5.53864 10.7491 5.57661 10.7396 5.61118 10.7224C5.64575 10.7051 5.67608 10.6804 5.7 10.65C6.02601 10.2153 6.44876 9.8625 6.93475 9.6195C7.42075 9.37651 7.95664 9.25 8.5 9.25C9.04336 9.25 9.57925 9.37651 10.0652 9.6195C10.5512 9.8625 10.974 10.2153 11.3 10.65C11.3398 10.703 11.399 10.7381 11.4646 10.7475C11.5303 10.7569 11.597 10.7398 11.65 10.7C11.703 10.6602 11.7381 10.601 11.7475 10.5354C11.7569 10.4697 11.7398 10.403 11.7 10.35C11.1942 9.6685 10.4817 9.16868 9.66875 8.925ZM6.75 7C6.75 6.65388 6.85264 6.31554 7.04493 6.02775C7.23722 5.73997 7.51053 5.51566 7.8303 5.38321C8.15007 5.25076 8.50194 5.2161 8.84141 5.28363C9.18087 5.35115 9.4927 5.51782 9.73744 5.76256C9.98218 6.00731 10.1489 6.31913 10.2164 6.65859C10.2839 6.99806 10.2492 7.34993 10.1168 7.6697C9.98434 7.98947 9.76003 8.26278 9.47225 8.45507C9.18446 8.64736 8.84612 8.75 8.5 8.75C8.03638 8.74835 7.59222 8.56345 7.26438 8.23562C6.93655 7.90779 6.75165 7.46362 6.75 7ZM13 1.75H4C3.80109 1.75 3.61032 1.82902 3.46967 1.96967C3.32902 2.11032 3.25 2.30109 3.25 2.5V4H2C1.9337 4 1.87011 4.02634 1.82322 4.07322C1.77634 4.12011 1.75 4.1837 1.75 4.25C1.75 4.3163 1.77634 4.37989 1.82322 4.42678C1.87011 4.47366 1.9337 4.5 2 4.5H3.25V6.5H2C1.9337 6.5 1.87011 6.52634 1.82322 6.57322C1.77634 6.62011 1.75 6.6837 1.75 6.75C1.75 6.8163 1.77634 6.87989 1.82322 6.92678C1.87011 6.97366 1.9337 7 2 7H3.25V9H2C1.9337 9 1.87011 9.02634 1.82322 9.07322C1.77634 9.12011 1.75 9.1837 1.75 9.25C1.75 9.3163 1.77634 9.37989 1.82322 9.42678C1.87011 9.47366 1.9337 9.5 2 9.5H3.25V11.5H2C1.9337 11.5 1.87011 11.5263 1.82322 11.5732C1.77634 11.6201 1.75 11.6837 1.75 11.75C1.75 11.8163 1.77634 11.8799 1.82322 11.9268C1.87011 11.9737 1.9337 12 2 12H3.25V13.5C3.25 13.6989 3.32902 13.8897 3.46967 14.0303C3.61032 14.171 3.80109 14.25 4 14.25H13C13.1989 14.25 13.3897 14.171 13.5303 14.0303C13.671 13.8897 13.75 13.6989 13.75 13.5V2.5C13.75 2.30109 13.671 2.11032 13.5303 1.96967C13.3897 1.82902 13.1989 1.75 13 1.75ZM13.25 13.5C13.25 13.5663 13.2237 13.6299 13.1768 13.6768C13.1299 13.7237 13.0663 13.75 13 13.75H4C3.9337 13.75 3.87011 13.7237 3.82322 13.6768C3.77634 13.6299 3.75 13.5663 3.75 13.5V2.5C3.75 2.4337 3.77634 2.37011 3.82322 2.32322C3.87011 2.27634 3.9337 2.25 4 2.25H13C13.0663 2.25 13.1299 2.27634 13.1768 2.32322C13.2237 2.37011 13.25 2.4337 13.25 2.5V13.5Z" fill="black" fill-opacity="0.65"/>
</svg>
