<svg width="13" height="8" viewBox="0 0 13 8" fill="none" xmlns="http://www.w3.org/2000/svg">
<path d="M0.419994 0.746887C0.342388 0.824296 0.280817 0.916255 0.238806 1.0175C0.196795 1.11874 0.175171 1.22727 0.175171 1.33689C0.175171 1.4465 0.196795 1.55503 0.238806 1.65628C0.280817 1.75752 0.342388 1.84948 0.419994 1.92689L6.02666 7.53355C6.08834 7.59536 6.1616 7.64439 6.24224 7.67784C6.32289 7.7113 6.40935 7.72852 6.49666 7.72852C6.58397 7.72852 6.67043 7.7113 6.75108 7.67784C6.83173 7.64439 6.90498 7.59536 6.96666 7.53355L12.5733 1.92689C12.9 1.60022 12.9 1.07355 12.5733 0.746887C12.2467 0.42022 11.72 0.42022 11.3933 0.746887L6.49999 5.64022L1.59999 0.74022C1.27333 0.42022 0.746661 0.42022 0.419994 0.746887Z" fill="black" fill-opacity="0.65"/>
</svg>
