<svg width="14" height="8" viewBox="0 0 14 8" fill="none" xmlns="http://www.w3.org/2000/svg">
<path d="M13.0799 7.25311C13.1575 7.1757 13.2191 7.08375 13.2611 6.9825C13.3031 6.88126 13.3247 6.77273 13.3247 6.66311C13.3247 6.5535 13.3031 6.44497 13.2611 6.34372C13.2191 6.24248 13.1575 6.15052 13.0799 6.07311L7.47322 0.466447C7.41154 0.404645 7.33828 0.355613 7.25763 0.322158C7.17698 0.288704 7.09053 0.271484 7.00322 0.271484C6.9159 0.271484 6.82945 0.288704 6.7488 0.322158C6.66815 0.355613 6.59489 0.404645 6.53322 0.466447L0.92655 6.07311C0.599883 6.39978 0.599883 6.92645 0.92655 7.25311C1.25322 7.57978 1.77988 7.57978 2.10655 7.25311L6.99988 2.35978L11.8999 7.25978C12.2266 7.57978 12.7532 7.57978 13.0799 7.25311Z" fill="black" fill-opacity="0.65"/>
</svg>
