<svg width="8" height="14" viewBox="0 0 8 14" fill="none" xmlns="http://www.w3.org/2000/svg">
<path d="M7.25336 0.919994C7.17595 0.842388 7.08399 0.780817 6.98275 0.738806C6.88151 0.696795 6.77297 0.675171 6.66336 0.675171C6.55375 0.675171 6.44521 0.696795 6.34397 0.738806C6.24273 0.780817 6.15077 0.842388 6.07336 0.919994L0.466691 6.52666C0.404889 6.58834 0.355857 6.6616 0.322403 6.74224C0.288948 6.82289 0.271729 6.90935 0.271729 6.99666C0.271729 7.08397 0.288948 7.17043 0.322403 7.25108C0.355857 7.33173 0.404889 7.40498 0.466691 7.46666L6.07336 13.0733C6.40002 13.4 6.92669 13.4 7.25336 13.0733C7.58002 12.7467 7.58002 12.22 7.25336 11.8933L2.36002 6.99999L7.26002 2.09999C7.58002 1.77333 7.58002 1.24666 7.25336 0.919994Z" fill="black" fill-opacity="0.65"/>
</svg>
