<svg width="350" height="219" viewBox="0 0 350 219" fill="none" xmlns="http://www.w3.org/2000/svg">
<g clip-path="url(#clip0_8_5)">
<path d="M253.499 50.2146C251.192 51.1875 248.879 52.1635 246.732 53.4484C245.756 54.0297 244.82 54.6722 243.816 55.2015C242.736 55.7767 241.589 56.2111 240.451 56.6761C237.31 57.959 234.26 59.4534 231.321 61.149C231.575 57.8601 231.095 54.2867 229.128 51.7229C228.839 51.343 228.517 50.9888 228.167 50.6643C226.775 49.3733 224.802 49.0398 223.434 47.9108C224.266 46.4484 226.114 45.1206 227.372 44.0039C228.73 42.8026 230.139 41.6635 231.6 40.5865C234.519 38.431 237.626 36.5438 240.885 34.948C242.953 33.9353 245.113 33.0297 247.396 32.7207C247.683 32.656 247.984 32.6827 248.255 32.7972C248.61 32.993 248.739 33.4336 248.824 33.8282C249.25 35.8016 249.467 37.8269 249.822 39.8156C249.996 40.8376 250.232 41.848 250.528 42.8413C250.91 44.0161 251.35 45.1709 251.847 46.3016C252.4 47.6049 252.95 48.9092 253.499 50.2146Z" fill="#FBBEBE"/>
<path d="M188.024 105.982C188.023 110.043 186.74 114.001 184.356 117.289C181.973 120.578 178.612 123.029 174.753 124.294C170.894 125.559 166.733 125.573 162.866 124.333C158.998 123.093 155.621 120.664 153.217 117.391C150.784 114.085 149.472 110.087 149.475 105.982C149.475 100.87 151.506 95.9676 155.12 92.353C158.735 88.7383 163.638 86.7076 168.75 86.7076C173.861 86.7076 178.764 88.7383 182.379 92.353C185.993 95.9676 188.024 100.87 188.024 105.982Z" fill="#BE6F72"/>
<path d="M161.844 122.968C162.875 124.746 163.916 126.538 164.576 128.475C165.237 130.412 165.494 132.556 164.95 134.536C171.515 131.079 179.329 131.357 186.556 129.607C186.749 129.585 186.927 129.491 187.054 129.344C187.098 129.244 187.121 129.135 187.121 129.026C187.121 128.916 187.098 128.808 187.054 128.708C185.541 123.109 184.96 117.301 185.332 111.514L181.559 113.744C179.908 114.764 178.197 115.683 176.435 116.497C173.941 117.59 171.295 118.25 168.691 119.015C166.629 119.627 162.536 120.42 161.239 122.222C161.473 122.443 161.676 122.694 161.844 122.968Z" fill="#BE6F72"/>
<path d="M151.225 97.0485C149.971 97.5533 148.496 98.1346 147.343 97.4279C146.495 96.9047 146.146 95.8186 146.198 94.8243C146.25 93.83 146.63 92.8877 146.93 91.9393C147.542 89.9904 147.872 87.962 148.554 86.0223C149.236 84.0826 150.35 82.2133 152.118 81.1884C155.374 79.3038 159.587 80.861 163.2 79.8178C164.729 79.3803 166.06 78.4991 167.483 77.8077C168.906 77.1163 170.506 76.5839 172.042 76.9541C173.84 77.3733 175.168 78.8877 176.845 79.6587C178.681 80.5031 180.877 80.4449 182.548 81.5739C183.732 82.3754 184.478 83.6696 185.142 84.9393C187.266 89.0197 188.943 93.3177 190.144 97.7583C190.625 99.3484 190.899 100.994 190.961 102.653C190.976 104.777 190.401 106.857 189.832 108.907L188.914 112.15C188.575 113.374 188.226 114.597 187.583 115.705C186.941 116.813 185.95 117.746 184.723 118.067C183.193 118.462 181.413 117.697 180.746 116.265C180.336 115.378 180.354 114.362 180.333 113.386C180.299 111.475 180.094 109.57 179.721 107.695C179.531 106.756 179.277 105.78 178.638 105.07C177.812 104.153 176.496 103.847 175.272 103.825C173.84 103.807 172.271 104.195 171.436 105.355C170.766 106.291 170.649 107.607 169.759 108.338C169.363 108.641 168.893 108.833 168.398 108.892C167.388 109.017 166.365 108.801 165.492 108.277C164.62 107.753 163.948 106.951 163.585 106C163.304 105.193 163.166 104.189 162.401 103.81C162.004 103.611 161.529 103.648 161.104 103.519C159.801 103.125 159.458 101.472 159.339 100.117C159.201 98.5293 159.73 95.3934 157.757 95.2863C155.631 95.17 153.18 96.3969 151.225 97.0485Z" fill="#3F3D56"/>
<path d="M155.848 117.941C155.169 118.269 154.425 118.651 154.159 119.355C154.055 119.63 154.037 119.933 153.942 120.215C153.51 121.46 151.828 121.705 150.959 122.696C150.567 123.197 150.303 123.786 150.191 124.412C149.611 126.881 149.798 129.469 150.729 131.828C150.999 132.576 151.415 133.262 151.953 133.847C153.507 135.432 156.188 135.402 158.124 134.322C160.061 133.242 161.398 131.348 162.533 129.427C163.135 128.46 163.638 127.435 164.035 126.367C164.384 125.282 164.633 124.166 164.778 123.035C165.458 118.627 166.345 113.738 166.039 109.268C165.121 109.21 163.368 109.146 162.557 109.721C161.542 110.443 161.823 111.899 161.456 112.955C160.587 115.494 158.066 116.834 155.848 117.941Z" fill="#3F3D56"/>
<path d="M156.643 118.526C155.496 118.596 153.44 117.326 152.29 117.391C151.507 116.024 150.815 114.608 150.219 113.15C150.83 112.272 151.816 112.058 153.306 113.15C154.502 113.992 156.154 116.901 156.643 118.526Z" fill="#3F3D56"/>
<path d="M173.938 70.1866C172.693 70.8444 171.922 70.875 171.307 70.7434C170.692 70.6119 169.472 71.2238 169.472 71.2238C158.687 74.9135 158.262 76.6543 158.262 76.6543L170.747 72.2456C173.149 71.1932 173.195 71.5634 173.195 71.5634C175.031 73.2889 177.368 72.1202 177.368 72.1202C177.368 72.1202 180.602 70.5905 179.65 69.1189C178.699 67.6473 175.187 69.5411 173.938 70.1866ZM179.139 69.9113C179.139 69.9113 178.222 72.3588 174.92 71.9611C174.92 71.9611 173.299 71.7225 173.984 70.514C173.984 70.514 177.35 69.1005 178.24 69.2015C179.13 69.3025 179.13 69.9235 179.13 69.9235L179.139 69.9113Z" fill="#E8E8F0"/>
<path opacity="0.1" d="M173.938 70.1866C172.693 70.8444 171.922 70.875 171.307 70.7434C170.692 70.6119 169.472 71.2238 169.472 71.2238C158.687 74.9135 158.262 76.6543 158.262 76.6543L170.747 72.2456C173.149 71.1932 173.195 71.5634 173.195 71.5634C175.031 73.2889 177.368 72.1202 177.368 72.1202C177.368 72.1202 180.602 70.5905 179.65 69.1189C178.699 67.6473 175.187 69.5411 173.938 70.1866ZM179.139 69.9113C179.139 69.9113 178.222 72.3588 174.92 71.9611C174.92 71.9611 173.299 71.7225 173.984 70.514C173.984 70.514 177.35 69.1005 178.24 69.2015C179.13 69.3025 179.13 69.9235 179.13 69.9235L179.139 69.9113Z" fill="black"/>
<path d="M174.624 63.3641C172.757 63.4253 172.369 64.8204 172.369 64.8204C171.995 65.2662 171.776 65.8213 171.745 66.4021C171.713 66.983 171.871 67.5583 172.195 68.042L168.881 71.337C168.253 71.5792 167.714 72.0059 167.333 72.5608C167.333 72.5608 160.058 78.9856 160.165 79.5699C160.165 79.5699 161.352 80.1818 168.881 73.3195L170.858 71.5695C170.858 71.5695 171.295 68.2989 174.382 67.6779C174.382 67.6779 174.688 67.8125 174.85 67.0843C175.023 66.7352 175.254 66.4176 175.532 66.1451C175.942 65.7657 176.49 63.2998 174.624 63.3641ZM175.147 65.576C175.147 65.576 174.146 68.1582 172.721 67.4117C171.295 66.6652 172.681 64.9427 172.681 64.9427C175.153 62.538 175.147 65.576 175.147 65.576Z" fill="#E8E8F0"/>
<path opacity="0.1" d="M168.945 72.6219C169.163 72.6219 169.34 72.4452 169.34 72.2273C169.34 72.0093 169.163 71.8326 168.945 71.8326C168.727 71.8326 168.551 72.0093 168.551 72.2273C168.551 72.4452 168.727 72.6219 168.945 72.6219Z" fill="black"/>
<path d="M203.471 59.7478C202.319 59.1411 201.124 58.6216 199.895 58.1936C198.261 57.7302 196.582 57.443 194.886 57.337C189.53 56.827 184.158 56.5313 178.769 56.4497C177.818 56.4497 176.845 56.4283 175.942 56.7557C175.136 57.065 174.406 57.5439 173.801 58.1599C172.752 59.1621 171.92 60.3677 171.353 61.7028C171.171 62.0373 171.117 62.4265 171.2 62.7981C171.323 63.153 171.812 63.3885 172.09 63.1377C171.378 63.7116 170.855 64.4865 170.589 65.3616C170.323 66.2367 170.326 67.1716 170.597 68.045C170.173 68.2671 169.813 68.595 169.552 68.9969C169.291 69.3988 169.138 69.8613 169.108 70.3396C171.332 70.7514 173.621 70.6404 175.795 70.0153C175.147 69.8501 174.477 70.4589 174.437 71.1259C174.441 71.4609 174.538 71.7883 174.717 72.0717C174.896 72.3552 175.149 72.5837 175.45 72.7321C176.057 73.0192 176.725 73.1517 177.396 73.1175C179.987 73.1175 182.508 72.2395 185.093 72.1263C187.069 72.0376 189.107 72.3955 190.995 71.8204C193.185 71.1412 195.14 69.2168 197.398 69.6176C199.2 69.9388 200.375 71.6123 201.55 73.0135C203.428 75.25 205.75 77.0612 208.054 78.8571C209.829 80.2399 211.683 81.6595 213.882 82.1276C214.541 82.307 215.239 82.2738 215.877 82.0328C216.411 81.7473 216.858 81.3249 217.174 80.809C219.545 77.4436 219.548 73.2063 219.411 69.2627C219.34 67.2465 218.9 66.9742 217.034 66.139C214.868 65.1661 212.71 64.1697 210.56 63.1499C208.186 62.0403 205.823 60.9063 203.471 59.7478Z" fill="#FBBEBE"/>
<path d="M228.268 67.2985C227.903 67.5164 227.518 67.6978 227.118 67.84C226.448 67.9991 225.765 67.7146 225.114 67.4943C222.36 66.5765 219.301 66.7937 216.639 65.6587C217.512 70.6687 216.369 75.8208 213.46 79.9921C212.91 80.7754 212.184 81.5769 211.23 81.6381C211.655 82.9445 212.965 83.7338 214.207 84.3213C216.19 85.2601 218.265 85.9921 220.399 86.5057C221.011 86.6495 221.757 86.7199 222.112 86.1997C222.326 85.8938 222.418 85.3706 222.795 85.389C223.37 86.0009 223.18 87.2553 223.976 87.5306C224.223 87.5938 224.483 87.5938 224.731 87.5306L226.506 87.2247C227.038 87.1786 227.551 87.0021 227.999 86.7107C228.279 86.467 228.511 86.1721 228.681 85.8418C230.67 82.455 231.434 78.5358 231.74 74.6657C231.89 72.7443 232.077 70.7067 231.945 68.7793C231.823 67.1272 229.706 66.6285 228.268 67.2985Z" fill="#E8E8F0"/>
<path opacity="0.1" d="M228.268 67.2985C227.903 67.5164 227.518 67.6978 227.118 67.84C226.448 67.9991 225.765 67.7146 225.114 67.4943C222.36 66.5765 219.301 66.7937 216.639 65.6587C217.512 70.6687 216.369 75.8208 213.46 79.9921C212.91 80.7754 212.184 81.5769 211.23 81.6381C211.655 82.9445 212.965 83.7338 214.207 84.3213C216.19 85.2601 218.265 85.9921 220.399 86.5057C221.011 86.6495 221.757 86.7199 222.112 86.1997C222.326 85.8938 222.418 85.3706 222.795 85.389C223.37 86.0009 223.18 87.2553 223.976 87.5306C224.223 87.5938 224.483 87.5938 224.731 87.5306L226.506 87.2247C227.038 87.1786 227.551 87.0021 227.999 86.7107C228.279 86.467 228.511 86.1721 228.681 85.8418C230.67 82.455 231.434 78.5358 231.74 74.6657C231.89 72.7443 232.077 70.7067 231.945 68.7793C231.823 67.1272 229.706 66.6285 228.268 67.2985Z" fill="black"/>
<path d="M125.706 166.538C124.834 165.418 123.938 164.231 122.647 163.64C121.903 163.34 121.12 163.149 120.322 163.071C116.017 162.459 111.703 161.823 107.359 161.704C105.939 161.664 104.416 161.704 103.259 162.533C101.934 163.478 101.424 165.219 101.35 166.844C101.271 168.778 101.655 170.703 102.47 172.459C103.286 174.216 104.508 175.752 106.037 176.94C108.638 178.922 111.924 179.751 115.13 180.406C116.816 180.752 118.51 181.061 120.212 181.324C121.913 181.587 123.644 181.795 125.287 182.321C128.799 183.447 131.899 185.993 135.582 186.204C135.755 186.23 135.932 186.2 136.087 186.118C136.249 185.987 136.357 185.803 136.393 185.598C137.204 182.737 140.015 175.887 136.393 173.886C134.499 172.843 132.397 172.797 130.543 171.472C128.689 170.148 127.114 168.346 125.706 166.538Z" fill="#BE6F72"/>
<path d="M94.7784 185.528C92.3951 183.453 89.1062 182.355 87.3746 179.715C86.6128 178.552 86.2273 177.187 85.8448 175.847L84.719 171.803C84.6322 171.554 84.5928 171.292 84.6027 171.029C84.6884 170.184 85.6827 169.784 86.521 169.652C90.8042 168.985 95.2649 170.711 98.4712 173.629C101.677 176.548 103.736 180.574 104.945 184.747C105.03 184.96 105.043 185.194 104.982 185.414C104.877 185.61 104.712 185.767 104.51 185.861C102.962 186.779 100.882 188.116 99.0739 188.397C97.2657 188.679 96.0664 186.635 94.7784 185.528Z" fill="#BE6F72"/>
<path d="M199.344 168.089L211.888 173.109C213.078 173.585 214.057 174.473 214.648 175.611C215.238 176.749 215.399 178.061 215.103 179.308L205.769 218.569H182.431L186.494 173.902C186.494 173.902 195.367 166.559 199.344 168.089Z" fill="#3F3D56"/>
<path d="M211.459 163.377C211.227 163.885 210.884 164.387 210.936 164.941C210.967 165.271 211.138 165.583 211.114 165.91C211.065 166.553 210.321 166.911 209.679 166.917C209.036 166.923 208.391 166.715 207.757 166.825C206.717 167.003 206.014 167.96 205.114 168.514C203.86 169.285 202.293 169.239 200.831 169.371C197.771 169.646 194.877 170.793 192.108 172.1C190.227 172.987 188.229 174.125 187.519 176.077C186.5 178.83 188.477 181.731 188.914 184.643C189.032 185.624 189.06 186.613 189 187.599C188.679 197.885 188.125 208.29 187.538 218.563L75.3907 218.695L80.913 209.018C86.2976 199.58 91.8261 189.964 99.9489 182.747C101.154 181.659 102.507 180.748 103.969 180.042L110.483 185.855C111.004 186.374 111.609 186.801 112.272 187.118C113.496 187.617 114.867 187.333 116.179 187.375C118.703 187.458 121.01 188.746 123.201 190.004C124.807 190.875 126.353 191.856 127.826 192.938C128.689 193.598 129.934 194.011 130.834 194.62L130.623 183.637C130.601 182.646 130.586 181.63 130.883 180.684C131.458 178.849 133.101 177.552 133.89 175.805C134.248 175.018 134.423 174.162 134.722 173.357C135.146 172.323 135.673 171.334 136.295 170.405L140.355 163.882C141.358 162.273 142.359 160.663 143.448 159.112C148.212 152.317 154.624 146.875 160.862 141.413C160.717 139.857 161.077 138.295 161.887 136.959C162.207 136.514 162.472 136.032 162.677 135.524C162.809 134.922 162.847 134.302 162.79 133.688C162.79 133.532 162.79 133.382 162.79 133.217C162.858 132.217 163.276 131.272 163.971 130.549C164.687 129.806 165.644 129.353 166.587 128.931C171.463 126.75 176.533 125.031 181.731 123.797C182.56 123.601 183.438 123.418 184.255 123.666C184.503 124.464 185.347 124.746 186.191 124.948L186.733 125.073C188.167 125.383 189.504 126.036 190.631 126.976C191.815 128.01 192.628 129.393 193.421 130.754C199.378 140.982 202.122 154.401 211.337 161.832C211.784 162.184 211.692 162.888 211.459 163.377Z" fill="#597C75"/>
<path opacity="0.1" d="M249.039 37.7566C245.814 44.8453 239.459 51.83 231.162 51.83C230.485 51.8304 229.808 51.7967 229.134 51.729C228.845 51.3491 228.523 50.9949 228.173 50.6705C226.781 49.3794 224.808 49.0459 223.44 47.917C224.272 46.4545 226.12 45.1267 227.378 44.0101C228.736 42.8087 230.145 41.6696 231.606 40.5927C234.525 38.4371 237.632 36.5499 240.891 34.9541C242.959 33.9414 245.119 33.0358 247.402 32.7268C247.689 32.6621 247.99 32.6888 248.261 32.8033C248.616 32.9991 248.745 33.4397 248.83 33.8344C249.256 35.7924 248.684 35.7679 249.039 37.7566Z" fill="black"/>
<path d="M231.162 51.215C242.483 51.215 251.66 42.0377 251.66 30.7168C251.66 19.3959 242.483 10.2185 231.162 10.2185C219.841 10.2185 210.664 19.3959 210.664 30.7168C210.664 42.0377 219.841 51.215 231.162 51.215Z" fill="#FBBEBE"/>
<path d="M273.85 98.8903C273.517 101.369 272.935 103.807 272.113 106.169C271.807 107.028 271.43 107.867 271.042 108.693C268.763 113.524 267.511 118.746 266.915 124.057C266.869 124.475 266.792 124.89 266.685 125.296C266.236 127.01 265.287 128.539 264.562 130.152C263.823 131.893 263.209 133.686 262.726 135.515C262.552 135.974 262.493 136.469 262.555 136.956C262.668 137.473 263.042 137.874 263.305 138.342C264.663 140.682 263.094 143.543 262.564 146.192C262.384 147.11 262.304 148.108 261.708 148.823C261.2 149.435 260.41 149.717 259.661 149.974C248.977 153.606 238.042 156.453 226.943 158.491C225.288 158.797 223.578 159.082 221.935 158.776C220.292 158.47 218.655 157.454 218.092 155.869C217.768 154.951 217.823 153.954 217.851 152.981C217.912 150.938 217.851 148.882 217.74 146.823C217.386 140.046 216.581 133.245 218.352 126.753C218.882 124.837 219.628 122.99 220.228 121.096C221.399 117.403 221.702 113.585 221.996 109.754C222.238 106.597 222.473 103.427 223.18 100.313C223.706 97.9908 223.358 95.5769 223.327 93.1967C223.266 87.7497 224.867 82.4136 227.916 77.8995C228.445 77.1193 229.027 76.3483 229.305 75.4519C229.697 74.167 229.427 72.7872 229.25 71.4532C228.803 68.0522 228.984 64.5982 229.782 61.2622C230.033 60.014 230.511 58.8225 231.193 57.7469C231.955 56.6364 233.047 55.7981 234.139 55.0087C240.48 50.4374 247.477 46.8528 254.891 44.3772C255.573 46.1027 256.228 48.1189 256.751 49.8842C256.822 50.1228 256.871 50.4257 256.675 50.5787C256.479 50.7316 256.277 50.649 256.063 50.6552C255.842 50.6791 255.633 50.7694 255.465 50.9141C255.296 51.0588 255.175 51.2512 255.118 51.4659C255.011 51.8992 255.051 52.3558 255.234 52.7631C255.65 53.8339 256.546 54.6324 257.409 55.3881L261.747 59.1726C262.267 59.6586 262.833 60.0911 263.439 60.4637C263.984 60.7697 264.577 60.9869 265.137 61.2684C267.383 62.4034 268.934 64.6154 269.8 66.9773C270.666 69.3392 270.274 72.1783 271.403 74.4209C275.154 81.8553 275.123 90.6512 273.85 98.8903Z" fill="#E8E8F0"/>
<path d="M270.999 176.68C272.317 181.993 272.284 187.551 270.904 192.849C270.656 193.794 270.366 194.773 270.562 195.731C270.675 196.275 270.941 196.786 271.002 197.34C271.029 197.845 270.974 198.351 270.84 198.839C269.482 205.264 269.968 211.94 270.516 218.496C270.283 218.496 270.21 218.603 269.965 218.603H264.069C263.965 216.881 261.824 215.59 260.778 214.216C259.765 212.869 259.065 211.315 258.728 209.664C258.391 208.014 258.425 206.309 258.829 204.674C259.747 201.002 262.451 198.068 263.837 194.559C265.367 190.698 265.235 186.326 266.86 182.508C267.793 180.302 269.537 178.58 270.999 176.68Z" fill="#3F3D56"/>
<path opacity="0.1" d="M270.999 176.68C272.317 181.993 272.284 187.551 270.904 192.849C270.656 193.794 270.366 194.773 270.562 195.731C270.675 196.275 270.941 196.786 271.002 197.34C271.029 197.845 270.974 198.351 270.84 198.839C269.482 205.264 269.968 211.94 270.516 218.496C270.283 218.496 270.21 218.603 269.965 218.603H264.069C263.965 216.881 261.824 215.59 260.778 214.216C259.765 212.869 259.065 211.315 258.728 209.664C258.391 208.014 258.425 206.309 258.829 204.674C259.747 201.002 262.451 198.068 263.837 194.559C265.367 190.698 265.235 186.326 266.86 182.508C267.793 180.302 269.537 178.58 270.999 176.68Z" fill="black"/>
<path d="M258.627 147.233C253.615 146.431 248.76 148.955 243.92 150.488C236.525 152.828 228.384 152.972 221.552 156.646C220.942 156.94 220.389 157.34 219.919 157.827C219.364 158.514 219.015 159.343 218.912 160.22C218.607 162.158 218.982 164.141 219.974 165.834C220.399 166.556 220.934 167.22 221.265 167.994C222.048 169.83 221.525 171.947 221.39 173.954C221.084 178.436 222.822 182.799 223.171 187.278C223.379 189.918 223.107 192.616 223.728 195.192C224.116 196.808 224.847 198.331 225.15 199.965C225.453 201.599 225.322 203.196 225.423 204.811C225.707 209.44 227.815 213.937 227.301 218.548L267.074 218.68C265.599 213.549 264.372 208.244 265.709 203.076C266.173 201.443 266.75 199.843 267.435 198.288C269.659 192.913 271.944 187.522 273.171 181.838C274.398 176.153 274.508 170.083 272.431 164.65C270.118 158.592 265.201 153.553 264.131 147.159C262.295 146.914 260.465 147.526 258.627 147.233Z" fill="#3F3D56"/>
<path d="M216.887 20.7185C216.501 19.9108 215.409 19.3785 214.675 19.8894C213.941 20.4003 214.035 21.5415 213.855 22.4593C213.506 24.2644 211.713 25.4943 209.878 25.7819C209.018 25.9196 208.06 25.8645 207.393 25.3077C206.964 24.8963 206.648 24.381 206.476 23.8116C204.64 18.9165 205.757 13.2015 208.761 8.9305C209.398 7.97345 210.189 7.12793 211.101 6.42788C213.632 4.59221 217.015 4.59221 220.145 4.69012C220.781 4.75903 221.424 4.6848 222.027 4.4729C222.486 4.23099 222.907 3.92161 223.275 3.55506C226.24 0.948421 230.336 -0.146858 234.289 0.0275301C238.242 0.201918 242.045 1.55725 245.557 3.35926C247.236 4.21896 248.882 5.19493 250.198 6.55332C253.358 9.8055 254.129 14.6241 254.75 19.1154C255.417 23.9615 256.081 28.9423 254.958 33.7058C254.322 36.4043 253.123 39.0415 253.264 41.8103C250.722 42.536 248.14 43.1072 245.529 43.5205C244.306 43.7133 242.892 43.8265 241.996 42.9607C241.617 42.5543 241.34 42.0635 241.188 41.5288C240.218 38.6621 240.542 35.3885 239.077 32.7391C238.464 31.6588 237.588 30.7508 236.531 30.0994C235.474 29.4479 234.269 29.0741 233.028 29.0127C232.068 28.979 230.976 29.2146 230.483 30.0376C230.294 30.4413 230.149 30.8638 230.049 31.2981C229.369 33.3448 226.588 34.3575 224.756 33.2163C223.838 32.6412 223.211 31.6866 222.382 30.9707C221.329 30.0682 219.98 29.6031 218.799 28.875C214.865 26.4366 218.41 23.9156 216.887 20.7185Z" fill="#3F3D56"/>
<path d="M186.204 124.951C184.53 125.486 183.007 126.456 181.379 127.138C178.512 128.334 175.361 128.613 172.354 129.378C169.464 130.153 166.679 131.274 164.059 132.719C163.867 132.823 163.261 133.33 162.778 133.679C162.778 133.523 162.778 133.373 162.778 133.208C162.845 132.208 163.263 131.263 163.958 130.54C164.674 129.797 165.632 129.344 166.574 128.922C171.455 126.743 176.529 125.028 181.731 123.797C182.56 123.601 183.438 123.418 184.255 123.666C184.515 124.464 185.359 124.746 186.204 124.951Z" fill="#3F3D56"/>
<path opacity="0.1" d="M142.83 203.41C146.122 207.081 149.074 211.089 152.905 214.185C148.484 208.314 142.142 204.395 136.408 199.968C135.246 199.069 132.92 197.793 132.217 196.493C131.106 194.455 133.56 195.902 134.579 196.456C137.761 198.184 140.428 200.736 142.83 203.41Z" fill="black"/>
<path opacity="0.1" d="M261.276 96.2439C261.12 97.5656 260.628 98.8199 260.129 100.05C258.905 103.109 257.593 106.138 255.745 108.852C254.472 110.721 252.958 112.41 251.63 114.236C250.267 116.175 249.016 118.19 247.885 120.273C245.798 123.969 243.765 127.695 241.784 131.452C240.839 133.251 239.9 135.065 238.679 136.69C237.822 137.786 236.903 138.832 235.926 139.823C233.784 142.08 231.584 144.167 229.669 146.615C228.721 147.838 227.139 148.309 225.661 148.726C225.167 148.89 224.652 148.983 224.132 149.001C223.608 148.964 223.092 148.85 222.602 148.661C220.951 148.158 219.337 147.544 217.768 146.826C217.413 140.049 216.608 133.248 218.38 126.756C218.909 124.84 219.656 122.993 220.255 121.099C221.427 117.406 221.73 113.588 222.024 109.757C222.388 108.99 222.776 108.228 223.153 107.487C225.704 102.445 227.855 96.8925 227.191 91.2723C227.022 90.2591 226.904 89.238 226.839 88.2129C226.845 86.956 227.057 85.7086 227.466 84.5201C228.382 81.713 229.896 79.1379 231.903 76.9724C233.91 74.8068 236.363 73.1023 239.092 71.9764C239.954 71.5736 240.894 71.3647 241.846 71.3645C243.069 71.4288 244.241 72.0651 245.434 71.8326C249.476 73.6101 252.746 76.6451 255.191 80.3226C257.635 84 257.77 88.9135 260.429 92.4379C261.215 93.5087 261.429 94.9253 261.276 96.2439Z" fill="black"/>
<path d="M172.816 79.6403L172.687 79.3619L167.688 81.6687L166.853 82.0542L166.021 82.4366L173.069 97.7185L173.902 97.333L174.737 96.9475L179.736 94.6407L179.608 94.3654L174.608 96.6722L174.48 96.3938L179.479 94.087L179.351 93.8086L174.351 96.1154L174.223 95.837L179.222 93.5301L179.097 93.2517L174.094 95.5586L173.966 95.2832L178.968 92.9764L178.84 92.698L173.837 95.0048L173.709 94.7264L178.711 92.4196L178.583 92.1412L173.583 94.448L173.455 94.1696L178.454 91.8628L178.326 91.5874L173.326 93.8942L173.198 93.6158L178.197 91.309L178.069 91.0306L173.069 93.3374L172.941 93.059L177.943 90.7522L177.815 90.4738L172.812 92.7806L172.684 92.5052L177.686 90.1954L177.558 89.92L172.556 92.2268L172.43 91.9484L177.429 89.6416L177.301 89.3632L172.302 91.67L172.173 91.3916L177.172 89.0848L177.044 88.8064L172.045 91.1132L171.916 90.8378L176.915 88.531L176.79 88.2526L171.788 90.5594L171.659 90.281L176.661 87.9742L176.533 87.6958L171.531 90.0026L171.405 89.7242L176.404 87.4204L176.276 87.142L171.277 89.4489L171.148 89.1704L176.147 86.8636L176.019 86.5852L171.02 88.892L170.891 88.6136L175.89 86.3068L175.765 86.0284L170.763 88.3383L170.634 88.0599L175.636 85.7531L175.508 85.4746L170.506 87.7815L170.377 87.5031L175.379 85.1962L175.251 84.9178L170.252 87.2246L170.123 86.9462L175.122 84.6394L174.994 84.3641L169.995 86.6709L169.866 86.3925L174.865 84.0857L174.737 83.8073L169.738 86.1141L169.609 85.8357L174.611 83.5288L174.483 83.2535L169.481 85.5572L169.352 85.2819L174.354 82.9751L174.226 82.6967L169.224 85.0035L169.098 84.7251L174.097 82.4183L173.969 82.1399L168.97 84.4467L168.841 84.1683L173.84 81.8615L173.712 81.5861L168.713 83.8929L168.584 83.6145L173.583 81.3077L173.458 81.0293L168.456 83.3361L168.327 83.0577L173.33 80.7509L173.201 80.4725L168.199 82.7793L168.07 82.5039L173.073 80.1971L172.944 79.9187L167.942 82.2255L167.816 81.9471L172.816 79.6403Z" fill="black"/>
<path opacity="0.1" d="M188.51 113.251C187.865 114.344 186.877 115.292 185.65 115.613C184.12 116.008 182.34 115.243 181.673 113.811C181.263 112.924 181.281 111.908 181.26 110.932C181.226 109.021 181.021 107.116 180.648 105.242C180.458 104.302 180.204 103.326 179.565 102.617C178.739 101.699 177.423 101.393 176.199 101.371C174.767 101.353 173.198 101.742 172.363 102.901C171.693 103.837 171.576 105.153 170.686 105.884C170.29 106.188 169.82 106.379 169.325 106.438C168.315 106.564 167.292 106.347 166.419 105.823C165.547 105.299 164.875 104.498 164.512 103.547C164.231 102.739 164.093 101.736 163.328 101.356C162.931 101.157 162.456 101.194 162.031 101.066C160.728 100.671 160.385 99.0188 160.266 97.6635C160.128 96.0756 160.657 92.9397 158.684 92.8326C156.573 92.7163 154.122 93.9432 152.167 94.5948C150.913 95.0996 149.438 95.6809 148.285 94.9742C147.437 94.451 147.089 93.3649 147.141 92.3706C147.193 91.3763 147.572 90.434 147.872 89.4856C148.386 87.8824 148.695 86.2181 149.166 84.5905C148.945 85.0509 148.747 85.5227 148.576 86.0039C147.896 87.9344 147.578 89.9812 146.954 91.9209C146.648 92.8693 146.275 93.8116 146.223 94.8059C146.171 95.8003 146.529 96.8864 147.367 97.4095C148.521 98.1163 149.995 97.535 151.25 97.0301C153.205 96.3785 155.655 95.1517 157.766 95.2679C159.74 95.375 159.21 98.5109 159.348 100.099C159.467 101.454 159.81 103.106 161.113 103.501C161.538 103.629 162.013 103.593 162.41 103.792C163.175 104.171 163.328 105.174 163.594 105.982C163.958 106.933 164.629 107.734 165.502 108.259C166.374 108.783 167.397 108.999 168.407 108.873C168.902 108.814 169.373 108.623 169.768 108.319C170.659 107.588 170.775 106.273 171.445 105.337C172.28 104.171 173.85 103.782 175.281 103.807C176.505 103.825 177.836 104.131 178.647 105.052C179.286 105.762 179.54 106.738 179.73 107.677C180.103 109.552 180.308 111.456 180.342 113.368C180.363 114.344 180.342 115.359 180.755 116.246C181.419 117.678 183.202 118.443 184.732 118.049C185.956 117.727 186.947 116.779 187.593 115.687C188.084 114.795 188.462 113.845 188.719 112.86C188.651 113 188.584 113.126 188.51 113.251Z" fill="black"/>
<path d="M204.248 111.22C201.801 108.87 199.589 106.27 197.392 103.675C195.287 101.194 193.176 98.7006 191.481 95.9257C190.432 94.2094 189.496 92.337 187.883 91.1346C186.66 90.2168 185.163 89.7885 183.811 89.0878C182.838 88.583 181.942 87.9436 180.981 87.4204C178.886 86.2878 176.527 85.7314 174.146 85.8081C173.158 85.8418 172.035 86.0712 171.528 86.9218C171.353 87.2124 171.271 87.552 171.093 87.8396C170.545 88.7574 169.227 89.0175 168.777 89.9812C168.018 91.6027 170.307 93.0927 170.451 94.8763C170.518 95.7697 170.025 96.6018 169.882 97.486C169.637 99.0157 170.429 100.475 171.194 101.809C172.831 104.667 174.823 107.796 178.038 108.515C179.176 108.769 180.379 108.687 181.489 109.048C182.384 109.387 183.213 109.881 183.937 110.507C186.958 112.888 189.62 115.692 191.842 118.832C192.876 120.291 193.813 121.815 194.856 123.265C198.176 127.859 202.534 131.605 207.574 134.199L211.328 122.267C211.906 120.432 212.362 117.914 210.716 116.482C208.654 114.625 206.277 113.16 204.248 111.22Z" fill="#FBBEBE"/>
<path d="M245.113 70.3151C243.92 70.5446 242.736 69.9113 241.524 69.847C240.573 69.8466 239.633 70.0555 238.771 70.4589C236.042 71.5855 233.589 73.2903 231.582 75.4557C229.575 77.6212 228.061 80.1959 227.145 83.0026C226.74 84.196 226.531 85.4473 226.527 86.7076C226.545 87.7325 226.76 88.7421 226.879 89.767C227.543 95.3781 225.392 100.934 222.844 105.982C221.433 108.769 219.842 111.709 220.176 114.815C220.219 115.231 220.286 115.699 220.032 116.038C219.726 116.442 219.065 116.464 218.781 116.889C218.496 117.314 218.756 117.957 218.53 118.437C218.224 119.116 217.226 119.034 216.514 118.792C214.56 118.131 212.75 117.103 211.181 115.763C208.639 117.247 205.919 119.015 205.083 121.836C204.887 122.556 204.751 123.291 204.677 124.033L203.364 134.986C203.19 136.436 203.104 138.137 204.199 139.104C206.087 140.774 209.449 138.611 211.469 140.122C211.986 140.508 212.322 141.083 212.692 141.606C214.898 144.632 218.695 145.963 222.256 147.113C222.747 147.299 223.262 147.413 223.786 147.45C224.307 147.435 224.822 147.342 225.316 147.174C226.796 146.758 228.375 146.275 229.323 145.066C231.242 142.619 233.441 140.532 235.583 138.274C236.559 137.283 237.478 136.237 238.337 135.142C239.56 133.514 240.496 131.7 241.442 129.901C243.418 126.144 245.45 122.417 247.536 118.722C248.679 116.648 249.941 114.642 251.315 112.713C252.646 110.877 254.157 109.194 255.43 107.328C257.265 104.611 258.584 101.57 259.814 98.5262C260.312 97.3024 260.805 96.0389 260.964 94.7203C261.123 93.4017 260.909 91.9851 260.108 90.9235C257.449 87.396 257.317 82.4856 254.873 78.8081C252.428 75.1307 249.158 72.0896 245.113 70.3151Z" fill="#E8E8F0"/>
<path d="M172.898 80.8947C172.827 80.9401 172.766 81.0006 172.721 81.072C172.675 81.1433 172.646 81.2238 172.635 81.3077C172.635 81.4607 172.76 81.58 172.828 81.7177C173.014 82.1093 172.715 82.5621 172.372 82.8313C172.029 83.1005 171.613 83.3086 171.427 83.7032C171.398 83.7555 171.385 83.8151 171.39 83.8746C171.411 83.9552 171.458 84.0264 171.524 84.0765C171.726 84.3081 171.987 84.4796 172.28 84.5721C172.748 84.67 173.198 84.361 173.596 84.1071C174.027 83.8342 174.487 83.6086 174.966 83.434C175.115 83.3901 175.255 83.3207 175.379 83.229C175.532 83.0765 175.626 82.875 175.645 82.66C175.75 81.892 175.34 81.1547 174.871 80.5184C174.309 79.7688 173.378 80.4816 172.898 80.8947Z" fill="#3F3D56"/>
<path d="M125.96 171.562L94.2028 155.353C93.971 155.234 93.6872 155.326 93.5689 155.558L85.4755 171.415C85.3572 171.647 85.4492 171.931 85.681 172.049L117.438 188.258C117.67 188.376 117.954 188.284 118.072 188.052L126.165 172.196C126.284 171.964 126.192 171.68 125.96 171.562Z" fill="#3F3D56"/>
<path d="M123.036 171.969L95.639 157.986L88.6875 171.605L116.085 185.589L123.036 171.969Z" fill="#E8E8F0"/>
<path d="M91.5606 164.493C91.6444 164.329 91.5109 164.093 91.2626 163.966C91.0143 163.839 90.7451 163.87 90.6614 164.034C90.5776 164.198 90.7111 164.433 90.9594 164.56C91.2077 164.687 91.4769 164.657 91.5606 164.493Z" fill="#E6E8EC"/>
<path d="M121.521 179.824C121.659 179.555 121.438 179.167 121.029 178.958C120.62 178.749 120.176 178.798 120.039 179.068C119.901 179.337 120.122 179.725 120.531 179.934C120.94 180.143 121.384 180.094 121.521 179.824Z" fill="#E6E8EC"/>
<g opacity="0.1">
<path opacity="0.1" d="M254.952 31.552C254.316 34.2504 253.117 36.8877 253.257 39.6565C250.716 40.3822 248.133 40.9533 245.523 41.3667C244.299 41.5594 242.886 41.6726 241.99 40.8068C241.61 40.4004 241.334 39.9096 241.182 39.375C240.212 36.5083 240.536 33.2347 239.071 30.5852C238.458 29.505 237.582 28.597 236.525 27.9455C235.468 27.2941 234.263 26.9203 233.022 26.8588C232.062 26.8252 230.969 27.0607 230.477 27.8837C230.288 28.2874 230.142 28.7099 230.042 29.1442C229.363 31.191 226.582 32.2037 224.75 31.0625C223.832 30.4873 223.205 29.5328 222.375 28.8169C221.323 27.9143 219.974 27.4493 218.793 26.7211C217.728 26.0664 217.217 25.4056 217 24.7233C216.731 26.1949 216.654 27.5472 218.793 28.8628C219.974 29.5909 221.323 30.0559 222.375 30.9585C223.205 31.6683 223.819 32.6289 224.75 33.2041C226.585 34.3392 229.363 33.3326 230.042 31.2858C230.142 30.8515 230.288 30.429 230.477 30.0253C230.969 29.2024 232.062 28.9668 233.022 29.0004C234.263 29.0619 235.468 29.4357 236.525 30.0871C237.582 30.7386 238.458 31.6466 239.071 32.7268C240.536 35.3763 240.212 38.6499 241.182 41.5166C241.336 42.0557 241.617 42.5499 242.002 42.9576C242.898 43.8142 244.315 43.7102 245.535 43.5175C248.146 43.1041 250.728 42.533 253.27 41.8073C253.12 39.0385 254.328 36.4012 254.965 33.7028C255.455 31.4947 255.651 29.2316 255.549 26.972C255.5 28.5145 255.3 30.0485 254.952 31.552Z" fill="black"/>
<path opacity="0.1" d="M217.184 21.5752C217.407 20.5689 217.3 19.5172 216.878 18.5769C216.492 17.7692 215.4 17.2369 214.666 17.7478C213.931 18.2587 214.035 19.3999 213.855 20.3177C213.506 22.1228 211.713 23.3527 209.878 23.6403C209.018 23.778 208.06 23.7229 207.393 23.1661C206.964 22.7547 206.648 22.2394 206.476 21.67C206.006 20.3976 205.72 19.0644 205.628 17.7111C205.473 19.7818 205.762 21.8617 206.476 23.8116C206.648 24.381 206.964 24.8963 207.393 25.3077C208.06 25.8645 209.018 25.9196 209.878 25.7819C211.692 25.4943 213.494 24.2522 213.855 22.4594C214.029 21.5415 213.91 20.4309 214.669 19.9047C215.427 19.3785 216.504 19.9261 216.881 20.7338C217.012 21.0025 217.113 21.2846 217.184 21.5752Z" fill="black"/>
</g>
</g>
<defs>
<clipPath id="clip0_8_5">
<rect width="350" height="218.719" fill="white"/>
</clipPath>
</defs>
</svg>
