<svg width="28" height="28" viewBox="0 0 28 28" fill="none" xmlns="http://www.w3.org/2000/svg">
<path d="M1.5 23.125V8.28125C1.5 6.41645 2.24079 4.62802 3.55941 3.30941C4.87802 1.99079 6.66645 1.25 8.53125 1.25H19.4688C20.3921 1.25 21.3064 1.43187 22.1595 1.78522C23.0126 2.13858 23.7877 2.65649 24.4406 3.30941C25.0935 3.96232 25.6114 4.73744 25.9648 5.59051C26.3181 6.44358 26.5 7.35789 26.5 8.28125V19.2188C26.5 20.1421 26.3181 21.0564 25.9648 21.9095C25.6114 22.7626 25.0935 23.5377 24.4406 24.1906C23.7877 24.8435 23.0126 25.3614 22.1595 25.7148C21.3064 26.0681 20.3921 26.25 19.4688 26.25H4.625C3.7962 26.25 3.00134 25.9208 2.41529 25.3347C1.82924 24.7487 1.5 23.9538 1.5 23.125V23.125Z" stroke="black" stroke-opacity="0.65" stroke-width="2.5" stroke-linecap="round" stroke-linejoin="round"/>
<path d="M7.75 13.75H13.2188C14.0476 13.75 14.8424 14.0792 15.4285 14.6653C16.0145 15.2513 16.3438 16.0462 16.3438 16.875C16.3438 17.7038 16.0145 18.4987 15.4285 19.0847C14.8424 19.6708 14.0476 20 13.2188 20H7.75V9.0625C7.75 8.6481 7.91462 8.25067 8.20765 7.95765C8.50067 7.66462 8.8981 7.5 9.3125 7.5H11.6562C12.4851 7.5 13.2799 7.82924 13.866 8.41529C14.452 9.00134 14.7812 9.7962 14.7812 10.625C14.7812 11.4538 14.452 12.2487 13.866 12.8347C13.2799 13.4208 12.4851 13.75 11.6562 13.75H9.3125" stroke="black" stroke-opacity="0.65" stroke-width="2.5" stroke-linecap="round" stroke-linejoin="round"/>
<path d="M20.25 20H20.265" stroke="black" stroke-opacity="0.65" stroke-width="2.5" stroke-linecap="round" stroke-linejoin="round"/>
</svg>
