<svg width="46" height="46" viewBox="0 0 46 46" fill="none" xmlns="http://www.w3.org/2000/svg">
<g filter="url(#filter0_dii_70_2718)">
<rect x="8" y="4" width="30" height="30" rx="15" fill="url(#paint0_linear_70_2718)"/>
</g>
<g opacity="0.8">
<path d="M26.4826 12.9265C26.4052 12.8489 26.3132 12.7873 26.212 12.7453C26.1108 12.7033 26.0022 12.6816 25.8926 12.6816C25.783 12.6816 25.6745 12.7033 25.5732 12.7453C25.472 12.7873 25.38 12.8489 25.3026 12.9265L19.6959 18.5331C19.6341 18.5948 19.5851 18.6681 19.5517 18.7487C19.5182 18.8294 19.501 18.9158 19.501 19.0031C19.501 19.0904 19.5182 19.1769 19.5517 19.2575C19.5851 19.3382 19.6341 19.4115 19.6959 19.4731L25.3026 25.0798C25.6293 25.4065 26.1559 25.4065 26.4826 25.0798C26.8093 24.7531 26.8093 24.2265 26.4826 23.8998L21.5893 19.0065L26.4893 14.1065C26.8093 13.7798 26.8093 13.2531 26.4826 12.9265Z" fill="white"/>
</g>
<defs>
<filter id="filter0_dii_70_2718" x="0" y="0" width="46" height="46" filterUnits="userSpaceOnUse" color-interpolation-filters="sRGB">
<feFlood flood-opacity="0" result="BackgroundImageFix"/>
<feColorMatrix in="SourceAlpha" type="matrix" values="0 0 0 0 0 0 0 0 0 0 0 0 0 0 0 0 0 0 127 0" result="hardAlpha"/>
<feOffset dy="4"/>
<feGaussianBlur stdDeviation="4"/>
<feColorMatrix type="matrix" values="0 0 0 0 0.17665 0 0 0 0 0.119294 0 0 0 0 0.00402415 0 0 0 0.24 0"/>
<feBlend mode="normal" in2="BackgroundImageFix" result="effect1_dropShadow_70_2718"/>
<feBlend mode="normal" in="SourceGraphic" in2="effect1_dropShadow_70_2718" result="shape"/>
<feColorMatrix in="SourceAlpha" type="matrix" values="0 0 0 0 0 0 0 0 0 0 0 0 0 0 0 0 0 0 127 0" result="hardAlpha"/>
<feOffset dy="1.24444"/>
<feGaussianBlur stdDeviation="0.622222"/>
<feComposite in2="hardAlpha" operator="arithmetic" k2="-1" k3="1"/>
<feColorMatrix type="matrix" values="0 0 0 0 1 0 0 0 0 0.691905 0 0 0 0 0.02334 0 0 0 1 0"/>
<feBlend mode="normal" in2="shape" result="effect2_innerShadow_70_2718"/>
<feColorMatrix in="SourceAlpha" type="matrix" values="0 0 0 0 0 0 0 0 0 0 0 0 0 0 0 0 0 0 127 0" result="hardAlpha"/>
<feOffset dy="-1.24444"/>
<feGaussianBlur stdDeviation="0.622222"/>
<feComposite in2="hardAlpha" operator="arithmetic" k2="-1" k3="1"/>
<feColorMatrix type="matrix" values="0 0 0 0 0.7066 0 0 0 0 0.477176 0 0 0 0 0.0160966 0 0 0 1 0"/>
<feBlend mode="normal" in2="effect2_innerShadow_70_2718" result="effect3_innerShadow_70_2718"/>
</filter>
<linearGradient id="paint0_linear_70_2718" x1="23" y1="4" x2="23" y2="34" gradientUnits="userSpaceOnUse">
<stop stop-color="#BD8004"/>
<stop offset="1" stop-color="#FCAA06"/>
</linearGradient>
</defs>
</svg>
