<svg width="46" height="46" viewBox="0 0 46 46" fill="none" xmlns="http://www.w3.org/2000/svg">
<g filter="url(#filter0_dii_70_2714)">
<rect x="8" y="4" width="30" height="30" rx="15" fill="url(#paint0_linear_70_2714)"/>
</g>
<g opacity="0.8">
<path d="M19.5174 25.0735C19.5948 25.1511 19.6868 25.2127 19.788 25.2547C19.8892 25.2967 19.9978 25.3184 20.1074 25.3184C20.217 25.3184 20.3255 25.2967 20.4268 25.2547C20.528 25.2127 20.62 25.1511 20.6974 25.0735L26.3041 19.4669C26.3659 19.4052 26.4149 19.3319 26.4483 19.2513C26.4818 19.1706 26.499 19.0842 26.499 18.9969C26.499 18.9096 26.4818 18.8231 26.4483 18.7425C26.4149 18.6618 26.3659 18.5885 26.3041 18.5269L20.6974 12.9202C20.3707 12.5935 19.8441 12.5935 19.5174 12.9202C19.1907 13.2469 19.1907 13.7735 19.5174 14.1002L24.4107 18.9935L19.5107 23.8935C19.1907 24.2202 19.1907 24.7469 19.5174 25.0735Z" fill="white"/>
</g>
<defs>
<filter id="filter0_dii_70_2714" x="0" y="0" width="46" height="46" filterUnits="userSpaceOnUse" color-interpolation-filters="sRGB">
<feFlood flood-opacity="0" result="BackgroundImageFix"/>
<feColorMatrix in="SourceAlpha" type="matrix" values="0 0 0 0 0 0 0 0 0 0 0 0 0 0 0 0 0 0 127 0" result="hardAlpha"/>
<feOffset dy="4"/>
<feGaussianBlur stdDeviation="4"/>
<feColorMatrix type="matrix" values="0 0 0 0 0.17665 0 0 0 0 0.119294 0 0 0 0 0.00402415 0 0 0 0.24 0"/>
<feBlend mode="normal" in2="BackgroundImageFix" result="effect1_dropShadow_70_2714"/>
<feBlend mode="normal" in="SourceGraphic" in2="effect1_dropShadow_70_2714" result="shape"/>
<feColorMatrix in="SourceAlpha" type="matrix" values="0 0 0 0 0 0 0 0 0 0 0 0 0 0 0 0 0 0 127 0" result="hardAlpha"/>
<feOffset dy="1.24444"/>
<feGaussianBlur stdDeviation="0.622222"/>
<feComposite in2="hardAlpha" operator="arithmetic" k2="-1" k3="1"/>
<feColorMatrix type="matrix" values="0 0 0 0 1 0 0 0 0 0.691905 0 0 0 0 0.02334 0 0 0 1 0"/>
<feBlend mode="normal" in2="shape" result="effect2_innerShadow_70_2714"/>
<feColorMatrix in="SourceAlpha" type="matrix" values="0 0 0 0 0 0 0 0 0 0 0 0 0 0 0 0 0 0 127 0" result="hardAlpha"/>
<feOffset dy="-1.24444"/>
<feGaussianBlur stdDeviation="0.622222"/>
<feComposite in2="hardAlpha" operator="arithmetic" k2="-1" k3="1"/>
<feColorMatrix type="matrix" values="0 0 0 0 0.7066 0 0 0 0 0.477176 0 0 0 0 0.0160966 0 0 0 1 0"/>
<feBlend mode="normal" in2="effect2_innerShadow_70_2714" result="effect3_innerShadow_70_2714"/>
</filter>
<linearGradient id="paint0_linear_70_2714" x1="23" y1="4" x2="23" y2="34" gradientUnits="userSpaceOnUse">
<stop stop-color="#BD8004"/>
<stop offset="1" stop-color="#FCAA06"/>
</linearGradient>
</defs>
</svg>
