<svg width="16" height="16" viewBox="0 0 16 16" fill="none" xmlns="http://www.w3.org/2000/svg">
<path d="M13.3748 5.65625V4.5C13.3748 3.87011 13.1246 3.26602 12.6792 2.82062C12.2338 2.37522 11.6297 2.125 10.9998 2.125H4.99978C4.36989 2.125 3.7658 2.37522 3.3204 2.82062C2.87501 3.26602 2.62478 3.87011 2.62478 4.5V5.65625C2.06887 5.74733 1.56344 6.03305 1.19873 6.46237C0.834021 6.8917 0.633789 7.43668 0.633789 8C0.633789 8.56332 0.834021 9.1083 1.19873 9.53763C1.56344 9.96696 2.06887 10.2527 2.62478 10.3438V12.5C2.62478 12.7321 2.71697 12.9546 2.88106 13.1187C3.04516 13.2828 3.26772 13.375 3.49978 13.375H12.4998C12.7318 13.375 12.9544 13.2828 13.1185 13.1187C13.2826 12.9546 13.3748 12.7321 13.3748 12.5V10.3438C13.9307 10.2527 14.4361 9.96696 14.8008 9.53763C15.1655 9.1083 15.3658 8.56332 15.3658 8C15.3658 7.43668 15.1655 6.8917 14.8008 6.46237C14.4361 6.03305 13.9307 5.74733 13.3748 5.65625ZM4.99978 2.875H10.9998C11.4303 2.87665 11.8426 3.04838 12.147 3.35277C12.4514 3.65716 12.6231 4.06953 12.6248 4.5V5.65625C12.0678 5.74659 11.5609 6.03182 11.1946 6.46107C10.8283 6.89032 10.6264 7.43571 10.6248 8V8.125H5.37478V8C5.37318 7.43571 5.17122 6.89032 4.80493 6.46107C4.43863 6.03182 3.9318 5.74659 3.37478 5.65625V4.5C3.37643 4.06953 3.54816 3.65716 3.85255 3.35277C4.15694 3.04838 4.56931 2.87665 4.99978 2.875ZM13.0185 9.625H12.9998C12.9003 9.625 12.8049 9.66451 12.7346 9.73483C12.6643 9.80516 12.6248 9.90054 12.6248 10V12.5C12.6248 12.5332 12.6116 12.5649 12.5882 12.5884C12.5647 12.6118 12.5329 12.625 12.4998 12.625H3.49978C3.46663 12.625 3.43484 12.6118 3.41139 12.5884C3.38795 12.5649 3.37478 12.5332 3.37478 12.5V10C3.37478 9.90054 3.33527 9.80516 3.26495 9.73483C3.19462 9.66451 3.09924 9.625 2.99978 9.625H2.98103C2.66046 9.6213 2.34815 9.52286 2.0834 9.34207C1.81864 9.16128 1.61329 8.90621 1.49316 8.60898C1.37304 8.31174 1.34352 7.98561 1.40833 7.67164C1.47313 7.35767 1.62935 7.06988 1.85734 6.84449C2.08533 6.6191 2.3749 6.46618 2.68959 6.40499C3.00429 6.34379 3.33006 6.37705 3.6259 6.50057C3.92174 6.6241 4.17443 6.83237 4.35217 7.09918C4.52991 7.36599 4.62476 7.67941 4.62478 8V10.5C4.62478 10.5995 4.66429 10.6948 4.73462 10.7652C4.80494 10.8355 4.90033 10.875 4.99978 10.875C5.09924 10.875 5.19462 10.8355 5.26495 10.7652C5.33527 10.6948 5.37478 10.5995 5.37478 10.5V8.875H10.6248V10.5C10.6248 10.5995 10.6643 10.6948 10.7346 10.7652C10.8049 10.8355 10.9003 10.875 10.9998 10.875C11.0992 10.875 11.1946 10.8355 11.2649 10.7652C11.3353 10.6948 11.3748 10.5995 11.3748 10.5V8C11.3748 7.67941 11.4697 7.36599 11.6474 7.09918C11.8251 6.83237 12.0778 6.6241 12.3737 6.50057C12.6695 6.37705 12.9953 6.34379 13.31 6.40499C13.6247 6.46618 13.9142 6.6191 14.1422 6.84449C14.3702 7.06988 14.5264 7.35767 14.5912 7.67164C14.656 7.98561 14.6265 8.31174 14.5064 8.60898C14.3863 8.90621 14.1809 9.16128 13.9162 9.34207C13.6514 9.52286 13.3391 9.6213 13.0185 9.625Z" fill="black" fill-opacity="0.65"/>
</svg>
