<svg width="12" height="14" viewBox="0 0 12 14" fill="none" xmlns="http://www.w3.org/2000/svg">
<path d="M1.66863 2.08434L1.66663 3.49967V10.5023C1.66663 11.077 1.8949 11.6281 2.30123 12.0344C2.70756 12.4407 3.25866 12.669 3.83329 12.669H9.57729C9.47379 12.9615 9.28218 13.2147 9.02883 13.3938C8.77549 13.5728 8.47287 13.669 8.16263 13.669H3.83329C2.99344 13.669 2.18799 13.3354 1.59412 12.7415C1.00026 12.1476 0.666626 11.3422 0.666626 10.5023V3.49967C0.666626 2.84634 1.08463 2.28967 1.66863 2.08434ZM9.83329 0.333008C10.0303 0.333008 10.2253 0.371806 10.4073 0.447189C10.5893 0.522571 10.7547 0.63306 10.894 0.772348C11.0332 0.911636 11.1437 1.07699 11.2191 1.25898C11.2945 1.44097 11.3333 1.63603 11.3333 1.83301V10.4997C11.3333 10.6967 11.2945 10.8917 11.2191 11.0737C11.1437 11.2557 11.0332 11.421 10.894 11.5603C10.7547 11.6996 10.5893 11.8101 10.4073 11.8855C10.2253 11.9609 10.0303 11.9997 9.83329 11.9997H3.83329C3.43547 11.9997 3.05394 11.8416 2.77263 11.5603C2.49133 11.279 2.33329 10.8975 2.33329 10.4997V1.83301C2.33329 1.43518 2.49133 1.05365 2.77263 0.772348C3.05394 0.491043 3.43547 0.333008 3.83329 0.333008H9.83329ZM9.83329 1.33301H3.83329C3.70068 1.33301 3.57351 1.38569 3.47974 1.47945C3.38597 1.57322 3.33329 1.7004 3.33329 1.83301V10.4997C3.33329 10.7757 3.55729 10.9997 3.83329 10.9997H9.83329C9.9659 10.9997 10.0931 10.947 10.1868 10.8532C10.2806 10.7595 10.3333 10.6323 10.3333 10.4997V1.83301C10.3333 1.7004 10.2806 1.57322 10.1868 1.47945C10.0931 1.38569 9.9659 1.33301 9.83329 1.33301Z" fill="#656565"/>
</svg>
