<svg width="24" height="24" viewBox="0 0 24 24" fill="none" xmlns="http://www.w3.org/2000/svg">
<rect x="0.3" y="0.3" width="23.4" height="23.4" rx="7.7" fill="#414141"/>
<path d="M10.19 6.99H10.08C10.1405 6.99 10.19 6.9405 10.19 6.88V6.99H14.37V6.88C14.37 6.9405 14.4195 6.99 14.48 6.99H14.37V7.98H15.36V6.88C15.36 6.39463 14.9654 6 14.48 6H10.08C9.59462 6 9.2 6.39463 9.2 6.88V7.98H10.19V6.99ZM17.12 7.98H7.44C7.19662 7.98 7 8.17663 7 8.42V8.86C7 8.9205 7.0495 8.97 7.11 8.97H7.9405L8.28013 16.1613C8.30212 16.6301 8.68987 17 9.15875 17H15.4012C15.8715 17 16.2579 16.6315 16.2799 16.1613L16.6195 8.97H17.45C17.5105 8.97 17.56 8.9205 17.56 8.86V8.42C17.56 8.17663 17.3634 7.98 17.12 7.98ZM15.2954 16.01H9.26463L8.93187 8.97H15.6281L15.2954 16.01Z" fill="white"/>
<rect x="0.3" y="0.3" width="23.4" height="23.4" rx="7.7" stroke="#3C8F7C" stroke-width="0.6"/>
</svg>
