<svg width="16" height="16" viewBox="0 0 16 16" fill="none" xmlns="http://www.w3.org/2000/svg">
<path d="M2.0001 4C1.89401 4 1.79227 4.04214 1.71726 4.11716C1.64224 4.19217 1.6001 4.29391 1.6001 4.4C1.6001 4.50609 1.64224 4.60783 1.71726 4.68284C1.79227 4.75786 1.89401 4.8 2.0001 4.8H14.0001C14.1062 4.8 14.2079 4.75786 14.2829 4.68284C14.358 4.60783 14.4001 4.50609 14.4001 4.4C14.4001 4.29391 14.358 4.19217 14.2829 4.11716C14.2079 4.04214 14.1062 4 14.0001 4H2.0001ZM2.0001 6.4C1.89401 6.4 1.79227 6.44214 1.71726 6.51716C1.64224 6.59217 1.6001 6.69391 1.6001 6.8C1.6001 6.90609 1.64224 7.00783 1.71726 7.08284C1.79227 7.15786 1.89401 7.2 2.0001 7.2H14.0001C14.1062 7.2 14.2079 7.15786 14.2829 7.08284C14.358 7.00783 14.4001 6.90609 14.4001 6.8C14.4001 6.69391 14.358 6.59217 14.2829 6.51716C14.2079 6.44214 14.1062 6.4 14.0001 6.4H2.0001ZM1.6001 9.2C1.6001 9.09391 1.64224 8.99217 1.71726 8.91716C1.79227 8.84214 1.89401 8.8 2.0001 8.8H14.0001C14.1062 8.8 14.2079 8.84214 14.2829 8.91716C14.358 8.99217 14.4001 9.09391 14.4001 9.2C14.4001 9.30609 14.358 9.40783 14.2829 9.48284C14.2079 9.55786 14.1062 9.6 14.0001 9.6H2.0001C1.89401 9.6 1.79227 9.55786 1.71726 9.48284C1.64224 9.40783 1.6001 9.30609 1.6001 9.2ZM2.0001 11.2C1.89401 11.2 1.79227 11.2421 1.71726 11.3172C1.64224 11.3922 1.6001 11.4939 1.6001 11.6C1.6001 11.7061 1.64224 11.8078 1.71726 11.8828C1.79227 11.9579 1.89401 12 2.0001 12H10.0001C10.1062 12 10.2079 11.9579 10.2829 11.8828C10.358 11.8078 10.4001 11.7061 10.4001 11.6C10.4001 11.4939 10.358 11.3922 10.2829 11.3172C10.2079 11.2421 10.1062 11.2 10.0001 11.2H2.0001Z" fill="black" fill-opacity="0.65"/>
</svg>
