<svg width="15" height="16" viewBox="0 0 15 16" fill="none" xmlns="http://www.w3.org/2000/svg">
<path d="M14.0534 3.69766L11.4445 1.07543C11.2721 0.903907 11.0388 0.807617 10.7956 0.807617C10.5524 0.807617 10.3191 0.903907 10.1467 1.07543L0.897803 10.311L0.0533586 13.9554C0.0242281 14.0887 0.0252267 14.2267 0.0562814 14.3595C0.087336 14.4923 0.147662 14.6165 0.232853 14.7229C0.318044 14.8294 0.425948 14.9156 0.548681 14.975C0.671415 15.0344 0.805878 15.0657 0.942248 15.0665C1.00579 15.073 1.06982 15.073 1.13336 15.0665L4.8178 14.2221L14.0534 4.99543C14.2249 4.82304 14.3212 4.58974 14.3212 4.34654C14.3212 4.10335 14.2249 3.87005 14.0534 3.69766ZM4.37336 13.4221L0.920025 14.1465L1.70669 10.7599L8.62669 3.86654L11.2934 6.53321L4.37336 13.4221ZM11.8889 5.88877L9.22225 3.2221L10.7689 1.68432L13.3911 4.35099L11.8889 5.88877Z" fill="black" fill-opacity="0.65"/>
</svg>
