<svg width="16" height="16" viewBox="0 0 16 16" fill="none" xmlns="http://www.w3.org/2000/svg">
<path d="M14.2222 2.6665H1.7778C1.54206 2.6665 1.31596 2.76015 1.14927 2.92685C0.982567 3.09355 0.888916 3.31964 0.888916 3.55539V12.4443C0.888916 12.68 0.982567 12.9061 1.14927 13.0728C1.31596 13.2395 1.54206 13.3332 1.7778 13.3332H14.2222C14.458 13.3332 14.6841 13.2395 14.8508 13.0728C15.0175 12.9061 15.1111 12.68 15.1111 12.4443V3.55539C15.1111 3.31964 15.0175 3.09355 14.8508 2.92685C14.6841 2.76015 14.458 2.6665 14.2222 2.6665ZM13.5378 12.4443H2.51558L5.62669 9.2265L4.98669 8.60873L1.7778 11.9287V4.23095L7.30225 9.72873C7.46879 9.89428 7.69408 9.98721 7.92892 9.98721C8.16375 9.98721 8.38904 9.89428 8.55558 9.72873L14.2222 4.09317V11.8709L10.9511 8.59984L10.3245 9.2265L13.5378 12.4443ZM2.36003 3.55539H13.5022L7.92892 9.09761L2.36003 3.55539Z" fill="black" fill-opacity="0.65"/>
</svg>
