<svg width="50" height="50" viewBox="0 0 50 50" fill="none" xmlns="http://www.w3.org/2000/svg">
<path d="M15.0273 10.5391H35.0352V41.418H15.0273V10.5391Z" fill="white"/>
<path d="M23.5977 13.8281C17.0391 14.9102 15.0938 18.6641 15.0938 18.6641L15.9258 25.9453C15.9258 25.9453 16.6758 23.2188 21.3711 20.7109C26.2383 18.1094 31.9883 17.2773 34.5469 12.7031L23.5977 13.8281Z" fill="#ED6C30"/>
<path d="M34.1914 16.7773C33.5781 19.6875 31.0117 22.0117 28.7539 23.043C24.6875 24.9023 22.5898 25.8906 20.7031 27.1133C16.7617 29.6719 16.0469 32.8398 16.0469 32.8398V37.3984L18.4844 39.1719C18.4844 39.1719 19.9727 36.2773 22.2344 34.1094C25.0117 31.4531 26.6445 30.9805 30.0352 28.9453C32.5547 27.4375 34.1914 24.7734 34.1914 24.7734V16.7773Z" fill="#006CA2"/>
<path d="M24.2695 40.8945C24.2695 40.8945 25.6836 38.4766 27.4063 36.8672C30.7109 33.7773 32.5547 34.1641 34.0859 29.8867V37.1133C34.0859 37.1172 33.0508 40.8281 24.2695 40.8945Z" fill="#ED6C30"/>
<path d="M18.832 2.79297C19.7383 1.67578 20.9063 0.957031 22.1875 0.632812C23.9609 0.183594 26.0977 0.183594 27.8711 0.632812C29.1484 0.957031 30.3164 1.67578 31.2148 2.79297C31.793 3.50391 32.793 4.76562 32.5078 5.82422C32.3594 6.375 31.957 6.47656 31.5352 6.64844C30.5039 7.0625 29.418 7.26953 28.3203 7.36328C26.0781 7.54688 23.9336 7.54688 21.6953 7.36328C20.6016 7.26953 19.5156 7.05859 18.4883 6.64844C18.0664 6.47656 17.668 6.375 17.5234 5.82422C17.2383 4.76172 18.25 3.50391 18.832 2.79297ZM35.6289 11.0117C34.6953 11.4805 33.7031 11.8203 32.6367 12.0273C31.1797 12.3125 29.6914 12.4922 28.1953 12.5938C26.1055 12.7344 23.9023 12.7383 21.7773 12.5938C20.2813 12.4922 18.7969 12.3125 17.3438 12.0273C16.2734 11.8203 15.2891 11.4805 14.3594 11.0117C13.4609 10.5586 13.0391 9.72266 13.5313 8.85156C13.8828 8.23047 14.5195 7.74609 15.3086 7.61328C15.7344 7.53516 17.4297 9.27344 24.8789 9.27344C32.4727 9.27344 34.2773 7.53516 34.7109 7.61328C35.5 7.75 36.1328 8.23047 36.4805 8.85156C36.957 9.72266 36.5313 10.5586 35.6289 11.0117ZM31.2578 47.0469C30.3516 48.2344 29.1797 49.0039 27.8906 49.3477C26.1055 49.8242 23.957 49.8242 22.168 49.3477C20.8828 49.0039 19.7031 48.2344 18.793 47.0469C18.5898 46.7812 18.332 46.4336 18.0938 46.0547C19.0117 46.582 20.0234 46.9766 21.1055 47.1875C23.5469 47.6641 26.4844 47.6641 28.9297 47.1875C30.0195 46.9727 31.0391 46.5742 31.9609 46.0352C31.7266 46.4258 31.4648 46.7773 31.2578 47.0469ZM35.8281 40.4883C35.543 41.5039 34.8242 42.5312 33.9375 43.0977C32.9297 43.7422 31.8633 44.2812 30.7227 44.6211C27.0938 45.7031 22.625 45.7031 19 44.6211C17.8633 44.2812 16.8047 43.7422 15.8008 43.0977C14.918 42.5273 14.2031 41.5 13.9297 40.4883C13.7891 39.9727 13.7617 39.3984 14.0039 38.8945C14.1953 38.4844 14.6563 37.875 15.1719 38.0469C15.4648 38.1445 15.6836 38.5547 15.8633 38.7852C16.1328 39.1328 16.4375 39.4414 16.7891 39.7188C17.4961 40.2773 18.3281 40.6758 19.1914 40.9648C22.5625 42.0938 27.1719 42.0977 30.5586 40.9648C31.4258 40.6758 32.2578 40.2773 32.9688 39.7188C33.3242 39.4414 33.6289 39.1328 33.9063 38.7852C34.0859 38.5547 34.3086 38.1445 34.6016 38.0469C35.1172 37.875 35.5703 38.4844 35.7617 38.8945C36 39.3984 35.9727 39.9727 35.8281 40.4883Z" fill="#78A3AD"/>
</svg>
