<svg width="20" height="20" viewBox="0 0 20 20" fill="none" xmlns="http://www.w3.org/2000/svg">
<path d="M17.6191 5.71433H7.14289M5.23812 5.71433H2.38098M17.6191 15.2381H7.14289M5.23812 15.2381H2.38098M12.8572 10.4762H2.38098M17.6191 10.4762H14.7619M6.19051 3.80957C6.44309 3.80957 6.68533 3.90991 6.86394 4.08852C7.04255 4.26712 7.14289 4.50936 7.14289 4.76195V6.66671C7.14289 6.9193 7.04255 7.16154 6.86394 7.34015C6.68533 7.51875 6.44309 7.61909 6.19051 7.61909C5.93792 7.61909 5.69568 7.51875 5.51707 7.34015C5.33846 7.16154 5.23812 6.9193 5.23812 6.66671V4.76195C5.23812 4.50936 5.33846 4.26712 5.51707 4.08852C5.69568 3.90991 5.93792 3.80957 6.19051 3.80957ZM6.19051 13.3334C6.44309 13.3334 6.68533 13.4337 6.86394 13.6123C7.04255 13.7909 7.14289 14.0332 7.14289 14.2858V16.1905C7.14289 16.4431 7.04255 16.6854 6.86394 16.864C6.68533 17.0426 6.44309 17.1429 6.19051 17.1429C5.93792 17.1429 5.69568 17.0426 5.51707 16.864C5.33846 16.6854 5.23812 16.4431 5.23812 16.1905V14.2858C5.23812 14.0332 5.33846 13.7909 5.51707 13.6123C5.69568 13.4337 5.93792 13.3334 6.19051 13.3334ZM13.8096 8.57148C14.0621 8.57148 14.3044 8.67182 14.483 8.85042C14.6616 9.02903 14.7619 9.27127 14.7619 9.52386V11.4286C14.7619 11.6812 14.6616 11.9234 14.483 12.1021C14.3044 12.2807 14.0621 12.381 13.8096 12.381C13.557 12.381 13.3147 12.2807 13.1361 12.1021C12.9575 11.9234 12.8572 11.6812 12.8572 11.4286V9.52386C12.8572 9.27127 12.9575 9.02903 13.1361 8.85042C13.3147 8.67182 13.557 8.57148 13.8096 8.57148Z" stroke="white" stroke-width="0.761905" stroke-linecap="round" stroke-linejoin="round"/>
</svg>
