<svg width="328" height="218" viewBox="0 0 328 218" fill="none" xmlns="http://www.w3.org/2000/svg">
<g clip-path="url(#clip0_45_341)">
<path opacity="0.1" d="M190.976 43.479C171.701 42.794 153.343 36.5725 135.825 29.7792C118.307 22.9859 100.932 15.4271 82.1188 11.8205C70.0183 9.50047 56.1785 9.17286 46.4307 15.6594C37.0464 21.9137 34.0145 32.68 32.3854 42.6809C31.1584 50.2039 30.4377 58.12 33.7971 65.1635C36.132 70.0537 40.2718 74.1637 43.1368 78.8484C53.1049 95.1452 46.0585 115.242 35.2594 131.155C30.1964 138.621 24.3145 145.748 20.404 153.688C16.4936 161.628 14.6859 170.739 18.1078 178.845C21.4971 186.886 29.577 192.914 38.33 197.158C56.107 205.777 77.0469 208.246 97.4805 209.643C142.699 212.737 188.155 211.397 233.493 210.057C250.272 209.56 267.123 209.056 283.628 206.462C292.795 205.021 302.257 202.734 308.914 197.215C317.36 190.207 319.453 178.339 313.792 169.553C304.297 154.814 278.053 151.154 271.409 135.333C267.757 126.628 271.507 116.928 276.817 108.854C288.206 91.5327 307.293 76.3348 308.297 56.5326C308.988 42.934 299.812 29.3146 285.624 22.8787C270.754 16.133 250.129 16.9818 239.164 28.1471C227.852 39.6312 207.996 44.0538 190.976 43.479Z" fill="#597C75"/>
<path d="M51.0052 218C63.047 218 72.8088 216.123 72.8088 213.807C72.8088 211.491 63.047 209.613 51.0052 209.613C38.9634 209.613 29.2017 211.491 29.2017 213.807C29.2017 216.123 38.9634 218 51.0052 218Z" fill="#597C75"/>
<path d="M50.6385 215.349C52.0399 215.349 53.176 213.861 53.176 212.026C53.176 210.19 52.0399 208.702 50.6385 208.702C49.2371 208.702 48.1011 210.19 48.1011 212.026C48.1011 213.861 49.2371 215.349 50.6385 215.349Z" fill="#3F3D56"/>
<path d="M50.6385 211.287C52.0399 211.287 53.176 209.799 53.176 207.963C53.176 206.128 52.0399 204.64 50.6385 204.64C49.2371 204.64 48.1011 206.128 48.1011 207.963C48.1011 209.799 49.2371 211.287 50.6385 211.287Z" fill="#3F3D56"/>
<path d="M50.6385 207.225C52.0399 207.225 53.176 205.737 53.176 203.901C53.176 202.065 52.0399 200.577 50.6385 200.577C49.2371 200.577 48.1011 202.065 48.1011 203.901C48.1011 205.737 49.2371 207.225 50.6385 207.225Z" fill="#3F3D56"/>
<path d="M50.6385 203.165C52.0399 203.165 53.176 201.677 53.176 199.842C53.176 198.006 52.0399 196.518 50.6385 196.518C49.2371 196.518 48.1011 198.006 48.1011 199.842C48.1011 201.677 49.2371 203.165 50.6385 203.165Z" fill="#3F3D56"/>
<path d="M50.6385 199.103C52.0399 199.103 53.176 197.615 53.176 195.78C53.176 193.944 52.0399 192.456 50.6385 192.456C49.2371 192.456 48.1011 193.944 48.1011 195.78C48.1011 197.615 49.2371 199.103 50.6385 199.103Z" fill="#3F3D56"/>
<path d="M50.6385 195.041C52.0399 195.041 53.176 193.553 53.176 191.717C53.176 189.882 52.0399 188.394 50.6385 188.394C49.2371 188.394 48.1011 189.882 48.1011 191.717C48.1011 193.553 49.2371 195.041 50.6385 195.041Z" fill="#3F3D56"/>
<path d="M50.6385 190.979C52.0399 190.979 53.176 189.491 53.176 187.655C53.176 185.819 52.0399 184.331 50.6385 184.331C49.2371 184.331 48.1011 185.819 48.1011 187.655C48.1011 189.491 49.2371 190.979 50.6385 190.979Z" fill="#3F3D56"/>
<path d="M60.1424 159.859C60.4902 159.418 60.8066 158.953 61.0895 158.468L54.4183 157.372L61.6315 157.426C62.3241 155.92 62.7019 154.289 62.7418 152.633C62.7818 150.976 62.483 149.328 61.8638 147.791L52.1876 152.813L61.1222 146.26C60.2853 144.817 59.1602 143.561 57.8171 142.571C56.4739 141.581 54.9414 140.878 53.3149 140.506C51.6884 140.134 50.0027 140.101 48.3627 140.408C46.7227 140.715 45.1635 141.357 43.7821 142.293C42.4008 143.229 41.2268 144.439 40.3332 145.848C39.4397 147.257 38.8457 148.835 38.5882 150.484C38.3307 152.132 38.4152 153.816 38.8365 155.43C39.2579 157.045 40.0069 158.555 41.0371 159.868C40.4967 160.556 40.0315 161.3 39.6493 162.087L48.3099 166.584L39.0774 163.487C38.4279 165.403 38.267 167.45 38.6092 169.444C38.9514 171.438 39.7859 173.315 41.0371 174.905C39.6261 176.699 38.7482 178.853 38.504 181.122C38.2597 183.391 38.6589 185.683 39.6559 187.736C40.6529 189.789 42.2074 191.52 44.1417 192.731C46.076 193.942 48.3121 194.584 50.5942 194.584C52.8763 194.584 55.1124 193.942 57.0467 192.731C58.9811 191.52 60.5356 189.789 61.5326 187.736C62.5295 185.683 62.9287 183.391 62.6845 181.122C62.4402 178.853 61.5624 176.699 60.1513 174.905C61.8375 172.762 62.7543 170.114 62.7543 167.387C62.7543 164.659 61.8375 162.011 60.1513 159.868L60.1424 159.859Z" fill="#597C75"/>
<path opacity="0.1" d="M38.437 167.373C38.4334 170.1 39.3506 172.749 41.04 174.89C39.629 176.684 38.7511 178.838 38.5069 181.107C38.2626 183.376 38.6618 185.668 39.6588 187.721C40.6557 189.774 42.2103 191.505 44.1446 192.716C46.0789 193.927 48.315 194.569 50.5971 194.569C52.8792 194.569 55.1153 193.927 57.0496 192.716C58.9839 191.505 60.5385 189.774 61.5354 187.721C62.5324 185.668 62.9316 183.376 62.6873 181.107C62.4431 178.838 61.5653 176.684 60.1542 174.89C61.7744 172.826 38.437 166.012 38.437 167.373Z" fill="black"/>
<path d="M156.64 163.204C156.824 165.586 157.742 168.052 159.671 169.458C161.601 170.864 164.672 170.837 166.146 168.949C166.641 168.24 167.005 167.448 167.221 166.611C168.463 162.685 169.345 158.391 167.984 154.504C164.913 154.305 161.354 152.86 159.049 155.398C157.188 157.465 156.425 160.449 156.64 163.204Z" fill="#3F3D56"/>
<path d="M170.894 139.19C170.486 142.654 169.792 146.103 169.863 149.59C169.89 150.936 170.033 152.271 170.036 153.623C170.041 157.134 169.116 160.583 167.356 163.621C167.17 163.978 166.922 164.299 166.623 164.568C165.917 165.14 164.854 165.092 164.062 164.654C163.288 164.173 162.659 163.49 162.242 162.68C160.023 158.879 159.961 154.26 159.082 149.951C158.409 146.654 157.23 143.458 156.804 140.122C156.527 137.975 156.568 135.786 156.128 133.666C155.994 133.025 155.618 132.063 155.371 131.119C155.145 130.276 155.02 129.449 155.252 128.88C155.726 127.715 157.277 128.168 158.287 128.239C161.842 128.503 165.413 128.494 168.967 128.213C169.318 128.186 169.717 128.171 169.964 128.421C170.072 128.547 170.153 128.694 170.203 128.853C170.486 129.627 170.702 130.424 170.849 131.235C171.34 133.83 171.203 136.549 170.894 139.19Z" fill="#FABDBD"/>
<g opacity="0.1">
<path opacity="0.1" d="M169.523 128.213C169.34 128.193 169.156 128.193 168.973 128.213C167.269 128.35 165.562 128.418 163.859 128.427C165.747 128.431 167.635 128.359 169.523 128.213Z" fill="black"/>
<path opacity="0.1" d="M164.663 164.654C163.889 164.173 163.26 163.49 162.843 162.68C160.625 158.879 160.562 154.26 159.684 149.951C159.01 146.654 157.831 143.458 157.405 140.123C157.128 137.975 157.17 135.786 156.729 133.666C156.595 133.025 156.22 132.063 155.973 131.119C155.746 130.277 155.621 129.449 155.854 128.88C155.952 128.647 156.118 128.448 156.331 128.31C156.543 128.172 156.792 128.101 157.045 128.105C156.291 128.055 155.556 128.144 155.258 128.88C155.026 129.449 155.151 130.277 155.377 131.119C155.624 132.063 155.999 133.025 156.133 133.666C156.574 135.786 156.533 137.975 156.81 140.123C157.235 143.461 158.415 146.657 159.088 149.951C159.966 154.26 160.029 158.885 162.248 162.68C162.665 163.49 163.293 164.173 164.067 164.654C164.543 164.917 165.088 165.027 165.628 164.97C165.29 164.926 164.962 164.818 164.663 164.654Z" fill="black"/>
</g>
<path d="M182.154 157.456C180.367 161.03 180.665 166.093 180.665 166.093C180.963 178.006 176.198 203.023 176.198 203.023H172.028C172.028 203.023 171.433 175.325 172.028 172.943C172.624 170.56 171.73 162.221 170.837 150.606C170.173 141.969 171.981 134.142 172.952 130.708C173.285 129.517 173.517 128.865 173.517 128.865C173.517 128.865 180.367 118.739 184.239 123.504C185.132 124.612 185.606 126.849 185.77 129.672C186.3 138.988 183.524 154.713 182.154 157.456Z" fill="#FABDBD"/>
<path opacity="0.1" d="M185.77 129.672C185.606 126.848 185.138 124.609 184.239 123.504C183.375 122.444 182.363 122.122 181.314 122.262C182.127 122.397 182.855 122.842 183.345 123.504C184.239 124.612 184.712 126.848 184.876 129.672C185.406 138.988 182.631 154.713 181.261 157.456C179.474 161.029 179.772 166.092 179.772 166.092C180.069 178.005 175.304 203.022 175.304 203.022H176.198C176.198 203.022 180.963 178.005 180.665 166.092C180.665 166.092 180.367 161.029 182.154 157.456C183.524 154.713 186.3 138.988 185.77 129.672Z" fill="black"/>
<path d="M169.86 201.936C169.527 202.197 169.24 202.511 169.008 202.865C168.475 203.871 169.232 205.075 170.042 205.876C170.852 206.677 171.829 207.535 171.829 208.675C171.829 209.593 171.135 210.379 170.357 210.867C169.941 211.129 169.416 211.463 169.503 211.957C169.533 212.082 169.587 212.2 169.661 212.306C170.328 213.327 171.51 213.926 172.707 214.152C173.905 214.379 175.14 214.28 176.359 214.182C176.541 214.188 176.719 214.127 176.859 214.009C176.947 213.891 176.994 213.746 176.993 213.598C177.052 212.967 177.014 212.3 177.291 211.731C177.678 210.954 178.568 210.557 179.078 209.861C179.792 208.908 179.694 207.582 179.423 206.424C178.827 203.901 177.502 201.024 175.513 199.276C173.208 197.269 171.4 200.485 169.86 201.936Z" fill="#3F3D56"/>
<path d="M178.884 51.8181C180.546 49.3342 180.114 45.8616 178.416 43.3897C176.719 40.9178 173.991 39.3631 171.176 38.3595C167.382 37.0074 163.198 36.5457 159.299 37.5613C156.196 38.3684 153.408 40.0571 150.484 41.3615C145.31 43.6701 139.684 44.7896 134.02 44.6376C127.733 44.4619 120.844 42.8506 115.57 46.2875C105.915 52.5686 110.209 69.6636 101.075 76.6654C98.612 78.5536 95.5117 79.3786 92.7717 80.8349C90.0317 82.2913 87.4347 84.8257 87.5002 87.929C87.53 89.4181 88.1852 90.8388 88.9893 92.0985C92.4143 97.5279 98.8175 100.887 105.23 100.825C111.642 100.762 117.899 97.3521 121.595 92.1045C122.521 90.7911 123.337 89.3288 124.68 88.4532C127.361 86.6961 130.893 87.9261 134.092 88.1881C141.212 88.7689 148.336 83.423 149.754 76.4093C150.35 73.4162 150.245 69.8393 152.655 67.96C154.6 66.4441 157.337 66.7687 159.803 66.5096C164.312 66.0421 167.871 63.2336 170.319 59.5644C171.441 57.8817 171.572 55.8714 173.103 54.5461C174.753 53.0898 177.306 54.1649 178.884 51.8181Z" fill="#3F3D56"/>
<g opacity="0.1">
<path opacity="0.1" d="M128.064 45.2124C130.675 45.2841 133.287 45.0845 135.858 44.6168C135.149 44.6376 134.434 44.6376 133.722 44.6168C128.787 44.4798 123.483 43.4612 118.879 44.6883C121.917 44.718 125.059 45.129 128.064 45.2124Z" fill="black"/>
<path opacity="0.1" d="M118.718 89.0459C117.375 89.9215 116.559 91.3838 115.632 92.6972C112.786 96.6933 108.625 99.5616 103.877 100.801C104.226 100.816 104.574 100.825 104.926 100.822C111.344 100.759 117.595 97.3492 121.291 92.1016C122.217 90.7882 123.033 89.3259 124.377 88.4503L124.609 88.3073C122.506 88.0184 120.442 87.9172 118.718 89.0459Z" fill="black"/>
<path opacity="0.1" d="M178.116 43.3809C176.421 40.9209 173.69 39.3543 170.876 38.3507C167.081 36.9986 162.897 36.5369 158.998 37.5525C158.909 37.5734 158.823 37.6002 158.736 37.624C160.949 37.7474 163.132 38.1929 165.217 38.9463C168.031 39.95 170.762 41.5165 172.457 43.9765C174.152 46.4366 174.586 49.933 172.925 52.4049C171.346 54.7607 168.794 53.6856 167.123 55.136C165.592 56.4613 165.461 58.4716 164.338 60.1543C162.233 63.3022 159.302 65.8129 155.654 66.7659C156.908 66.617 158.23 66.6349 159.481 66.5038C163.99 66.0363 167.549 63.2278 169.997 59.5586C171.12 57.8759 171.251 55.8656 172.782 54.5403C174.452 53.0899 177.005 54.1651 178.583 51.8093C180.248 49.3254 179.816 45.8409 178.116 43.3809Z" fill="black"/>
<path opacity="0.1" d="M153.825 67.0995C151.374 67.3556 148.637 67.0339 146.678 68.5499C144.268 70.4291 144.384 74.006 143.777 76.9991C142.731 82.2318 138.485 86.5473 133.442 88.1525L133.797 88.1853C140.918 88.766 148.042 83.4201 149.459 76.4064C150.055 73.4133 149.951 69.8364 152.36 67.9572C152.913 67.5433 153.541 67.24 154.21 67.0637C154.075 67.0667 153.953 67.0875 153.825 67.0995Z" fill="black"/>
</g>
<path d="M225.785 41.156C225.785 41.156 218.638 55.4515 216.255 60.8123C213.872 66.1731 192.131 74.2143 189.153 74.5121C188.354 74.6216 187.61 74.9801 187.027 75.5366C185.344 77.0257 184.388 79.5751 184.388 79.5751C184.388 79.5751 185.579 87.6163 184.09 101.018C184.06 101.277 184.034 101.536 184.01 101.787C182.711 114.539 185.43 117.547 185.43 117.547C185.43 117.547 156.542 128.567 157.435 114.271C157.715 109.771 157.673 106.483 157.396 103.734C157.093 100.92 156.521 98.1418 155.687 95.4371C154.981 92.9681 154.138 90.2609 153.266 86.5739C152.846 84.7343 152.292 82.9277 151.61 81.1684C151.589 81.1148 151.568 81.0612 151.55 81.0106C150.061 77.3146 148.572 76.1203 147.72 75.7332C146.916 75.3833 146.149 74.9522 145.433 74.4466C142.681 72.4601 136.775 68.0076 131.516 62.7481C124.368 55.6004 117.22 38.6245 117.22 38.6245C117.22 38.6245 115.135 28.7963 119.901 20.7551C124.666 12.7139 122.581 36.5397 122.581 36.5397C122.581 36.5397 131.218 48.1548 133.303 53.5156C134.375 56.2734 136.078 57.6851 137.472 58.4178C139.775 59.6165 141.98 60.9947 144.066 62.5396C145.476 63.6052 146.958 64.5724 148.5 65.4345C151.83 67.2214 155.818 69.2376 159.142 69.7678C159.66 69.8535 160.185 69.8983 160.711 69.9018C160.961 69.9098 161.209 69.8602 161.436 69.7569C161.663 69.6536 161.863 69.4994 162.022 69.3062C162.915 68.2548 162.894 65.9914 162.689 64.13C162.579 63.1657 162.416 62.2082 162.2 61.262C162.2 61.262 171.879 55.1566 171.582 62.6022C171.535 63.4249 171.612 64.2499 171.808 65.0503C171.966 65.7849 172.317 66.4642 172.824 67.0189C173.331 67.5735 173.976 67.9836 174.694 68.2072C175.856 68.5481 177.086 68.588 178.268 68.3233C178.636 68.2604 178.992 68.1387 179.322 67.963C180.216 67.3673 189.15 64.6869 191.831 64.3891C194.511 64.0913 207.913 57.5392 207.913 57.5392L222.506 37.2873C222.506 37.2873 222.208 25.3744 228.165 20.6092C234.121 15.8441 225.785 41.156 225.785 41.156Z" fill="#FABDBD"/>
<g opacity="0.1">
<path opacity="0.1" d="M184.01 99.9998C183.75 102.393 183.635 104.8 183.667 107.207C183.697 105.635 183.801 103.839 184.01 101.787C184.034 101.537 184.06 101.278 184.09 101.018C184.611 96.4318 184.86 91.8184 184.835 87.2024C184.789 91.222 184.54 95.2368 184.09 99.2315C184.072 99.4906 184.034 99.7497 184.01 99.9998Z" fill="black"/>
<path opacity="0.1" d="M162.51 61.0715C162.31 61.1877 162.212 61.2592 162.212 61.2592C162.501 62.5332 162.693 63.8276 162.784 65.1309C162.844 63.7718 162.752 62.4102 162.51 61.0715Z" fill="black"/>
<path opacity="0.1" d="M122.721 34.9227C122.867 32.838 123.084 29.1003 123.042 25.7766C122.992 30.2201 122.596 34.753 122.596 34.753L122.721 34.9227Z" fill="black"/>
<path opacity="0.1" d="M157.456 113.923C157.456 114.039 157.456 114.155 157.435 114.271C156.541 128.567 185.43 117.547 185.43 117.547C185.092 117.091 184.837 116.579 184.677 116.034C180.325 117.583 158.459 124.784 157.456 113.923Z" fill="black"/>
<path opacity="0.1" d="M225.785 39.3691C225.785 39.3691 218.637 53.6646 216.255 59.0254C213.872 64.3862 192.131 72.4274 189.153 72.7252C188.354 72.8347 187.61 73.1932 187.026 73.7497C185.344 75.2389 184.388 77.7882 184.388 77.7882C184.388 77.7882 184.459 78.2737 184.546 79.1969C184.879 78.4315 185.737 76.6744 187.026 75.5367C187.61 74.9802 188.354 74.6217 189.153 74.5122C192.131 74.2143 213.872 66.1731 216.255 60.8123C218.637 55.4515 225.785 41.1561 225.785 41.1561C225.785 41.1561 230.821 25.8629 230.267 21.2883C229.809 27.1495 225.785 39.3691 225.785 39.3691Z" fill="black"/>
<path opacity="0.1" d="M157.396 101.948C157.093 99.1335 156.521 96.3549 155.687 93.6502C154.981 91.1813 154.138 88.4741 153.265 84.787C152.845 82.9474 152.292 81.1408 151.61 79.3815C151.589 79.3279 151.568 79.2743 151.55 79.2237C150.061 75.5277 148.572 74.3335 147.72 73.9463C146.916 73.5964 146.149 73.1653 145.433 72.6597C142.681 70.6732 136.775 66.2208 131.516 60.9612C124.368 53.8135 117.22 36.8376 117.22 36.8376C116.956 35.4045 116.808 33.9523 116.779 32.4954C116.706 34.5483 116.854 36.6031 117.22 38.6245C117.22 38.6245 124.368 55.6004 131.516 62.7482C136.775 68.0077 142.681 72.4602 145.433 74.4466C146.155 74.9533 146.927 75.3845 147.738 75.7332C148.587 76.1204 150.073 77.3147 151.568 81.0106C151.586 81.0613 151.607 81.1149 151.627 81.1685C152.307 82.928 152.857 84.7346 153.274 86.574C154.147 90.261 154.99 92.9682 155.696 95.4371C156.53 98.1419 157.102 100.92 157.405 103.734C157.53 104.979 157.605 106.334 157.626 107.859C157.662 105.886 157.585 103.912 157.396 101.948Z" fill="black"/>
</g>
<path d="M186.893 89.0103C186.438 89.762 186.04 90.5464 185.701 91.3571C185.252 92.608 185.249 93.969 185.165 95.2943C185.046 97.1542 184.763 99 184.319 100.81C184.248 101.143 184.148 101.47 184.022 101.787C183.933 102 183.815 102.2 183.673 102.383C183.514 102.577 183.328 102.746 183.119 102.886C182.8 103.099 182.462 103.283 182.11 103.437C177.964 105.373 173.443 107.082 168.919 106.415C167.007 106.081 165.156 105.458 163.43 104.569C161.792 103.773 159.94 102.829 158.242 103.49C157.982 103.623 157.701 103.71 157.411 103.75C157.355 103.75 157.299 103.745 157.244 103.735C156.684 103.627 156.684 101.739 156.556 101.182C156.068 99.0439 155.994 97.3106 155.702 95.4522C155.547 94.4245 155.306 93.4114 154.984 92.4233C153.793 88.8197 153.432 84.9778 153.432 81.2014C153.432 81.0137 152.092 81.2014 151.645 81.1835C151.532 81.1835 151.47 81.1656 151.496 81.1269C151.522 81.0899 151.552 81.0559 151.586 81.0257C151.742 80.899 151.924 80.8085 152.119 80.7606L152.47 80.6564C154.311 80.1352 156.342 79.9178 157.718 78.6222C159.147 77.285 159.505 75.1496 159.442 73.1959C159.424 72.5675 159.118 71.0426 159.168 69.7769C159.687 69.8626 160.212 69.9075 160.738 69.9109C160.987 69.9189 161.235 69.8693 161.463 69.766C161.69 69.6627 161.89 69.5085 162.048 69.3153C162.545 70.2772 162.975 71.2723 163.335 72.2935C163.841 73.5384 164.228 74.8488 164.97 75.9746C166.161 77.8092 168.359 79.0154 170.545 78.8307C172.731 78.6461 174.765 76.9663 175.155 74.8101C175.498 72.9189 174.703 70.1968 174.721 68.2312C175.883 68.5721 177.113 68.6121 178.294 68.3474C178.345 68.4687 178.387 68.5931 178.423 68.7196C179.093 71.0188 179.986 73.6575 182.235 74.4736C183.688 74.9977 185.406 74.6046 186.75 75.367C186.853 75.4264 186.952 75.492 187.047 75.5636C187.358 75.7942 187.625 76.0774 187.837 76.4005C188.388 77.3114 188.716 78.3403 188.793 79.4025C189.137 82.7232 188.475 86.0705 186.893 89.0103Z" fill="#597C75"/>
<path opacity="0.1" d="M171.808 65.0474C170.322 65.6201 168.723 65.8352 167.138 65.6753C165.554 65.5154 164.03 64.9851 162.689 64.1272C162.579 63.1629 162.416 62.2054 162.2 61.2592C162.2 61.2592 171.879 55.1538 171.582 62.5994C171.535 63.4221 171.612 64.2471 171.808 65.0474Z" fill="black"/>
<path d="M168.153 65.1308C173.746 65.1308 178.279 60.5973 178.279 55.0049C178.279 49.4125 173.746 44.8789 168.153 44.8789C162.561 44.8789 158.027 49.4125 158.027 55.0049C158.027 60.5973 162.561 65.1308 168.153 65.1308Z" fill="#FABDBD"/>
<path d="M150.436 80.1707C150.436 80.1707 170.092 67.6622 231.146 81.0642C292.199 94.4662 327.64 83.7446 327.64 83.7446V97.7423C327.64 97.7423 259.141 105.188 232.933 97.7423C206.724 90.2967 169.416 86.0021 156.351 97.5308L150.436 80.1707Z" fill="#F86D70"/>
<path opacity="0.1" d="M150.436 80.1707C150.436 80.1707 170.092 67.6622 231.146 81.0642C292.199 94.4662 327.64 83.7446 327.64 83.7446V97.7423C327.64 97.7423 259.141 105.188 232.933 97.7423C206.724 90.2967 169.416 86.0021 156.351 97.5308L150.436 80.1707Z" fill="black"/>
<path d="M151.032 80.7664C151.032 80.7664 170.092 68.2579 231.146 81.6599C292.2 95.0619 327.045 84.3403 327.045 84.3403L327.343 97.1467C327.343 97.1467 259.439 104.592 233.231 97.1467C207.022 89.7011 170.012 84.513 156.946 96.0417L151.032 80.7664Z" fill="#F86D70"/>
<path d="M143.866 100.006C143.866 100.006 124.21 112.514 63.156 99.1122C2.10244 85.7102 5.08066 96.4318 5.08066 96.4318V82.4341C5.08066 82.4341 35.1607 74.9886 61.3691 82.4341C87.5775 89.8797 124.886 94.1743 137.951 82.6456L143.866 100.006Z" fill="#F86D70"/>
<path opacity="0.1" d="M143.866 100.006C143.866 100.006 124.21 112.514 63.156 99.1122C2.10244 85.7102 5.08066 96.4318 5.08066 96.4318V82.4341C5.08066 82.4341 35.1607 74.9886 61.3691 82.4341C87.5775 89.8797 124.886 94.1743 137.951 82.6456L143.866 100.006Z" fill="black"/>
<path d="M143.271 99.4101C143.271 99.4101 124.21 111.919 63.1564 98.5166C2.10286 85.1146 5.67673 95.8362 5.67673 95.8362L5.37891 83.0298C5.37891 83.0298 34.8633 75.5843 61.0717 83.0298C87.28 90.4754 124.29 95.6635 137.356 84.1348L143.271 99.4101Z" fill="#F86D70"/>
<path d="M159.445 56.6815C159.147 54.8231 158.688 52.4822 160.243 51.419C160.798 51.0828 161.439 50.917 162.087 50.9424C165.306 50.9097 168.383 53.1523 171.539 52.4971C172.544 52.2865 173.467 51.7903 174.196 51.0679C174.925 50.3456 175.431 49.4279 175.651 48.4253C175.871 47.4227 175.797 46.3778 175.437 45.4163C175.078 44.4548 174.448 43.6177 173.624 43.0055C172.382 42.0822 170.813 41.7487 169.294 41.4359C165.3 40.614 161.131 39.7949 157.187 40.8403C153.244 41.8857 149.641 45.4208 149.956 49.4772C150.105 51.419 151.094 53.1821 152.127 54.838C152.914 56.0948 155.975 61.9857 157.461 62.075C159.558 62.1972 159.65 57.8966 159.445 56.6815Z" fill="#3F3D56"/>
<path d="M184.537 112.485C184.537 112.485 163.987 117.548 157.137 112.485C157.137 112.485 154.159 124.1 155.052 130.056C155.052 130.056 169.646 130.95 171.135 131.843C171.135 131.843 171.433 129.46 172.922 130.652C172.922 130.652 177.985 124.695 187.217 130.056C187.217 130.056 189.004 116.058 184.537 112.485Z" fill="#597C75"/>
<path opacity="0.1" d="M173.631 43.0056C173.419 42.852 173.197 42.7127 172.966 42.5886C173.581 43.2873 174.001 44.135 174.186 45.0471C174.37 45.9591 174.312 46.9036 174.016 47.786C173.721 48.6685 173.2 49.458 172.504 50.0757C171.808 50.6934 170.962 51.1176 170.051 51.3059C166.894 51.9611 163.817 49.7185 160.598 49.7512C159.95 49.7258 159.309 49.8916 158.754 50.2278C157.2 51.291 157.655 53.6319 157.953 55.4903C158.15 56.7054 158.069 61.0059 155.979 60.8898H155.943C156.518 61.5897 157.054 62.0632 157.468 62.0811C159.552 62.1972 159.639 57.9116 159.442 56.6816C159.144 54.8232 158.689 52.4823 160.243 51.4191C160.798 51.0828 161.439 50.9171 162.087 50.9425C165.306 50.9098 168.383 53.1524 171.54 52.4972C172.544 52.2866 173.467 51.7904 174.196 51.068C174.926 50.3457 175.431 49.428 175.651 48.4254C175.871 47.4228 175.797 46.3779 175.438 45.4164C175.078 44.4549 174.449 43.6178 173.625 43.0056H173.631Z" fill="black"/>
<g opacity="0.1">
<path opacity="0.1" d="M25.72 28.8589C25.72 28.8589 3.45184 19.4953 0.533183 36.3819C0.533183 36.3819 -0.988689 39.0116 1.12883 41.1857C1.12883 41.1857 1.5845 40.0212 3.73775 41.2274C4.50642 41.6501 5.32209 41.9809 6.16798 42.2132C7.31106 42.5285 8.52565 42.4637 9.62868 42.0286C9.62868 42.0286 16.9521 41.6325 23.1111 32.0515C23.1111 32.0515 25.7498 30.4195 25.8838 29.8089L21.4701 30.1067C21.4701 30.1067 21.8066 33.3381 19.981 35.2769C19.981 35.2769 21.6041 30.2646 20.8238 30.1216C20.666 30.0919 18.4919 30.3807 18.4919 30.3807C18.4919 30.3807 19.0548 35.9977 16.1093 38.9044C16.1093 38.9044 18.8433 33.1892 17.652 30.482L14.3968 31.1104C14.3968 31.1104 15.2903 37.0192 12.0678 40.459C12.0678 40.459 14.7155 34.3835 13.694 31.2951L10.5728 32.3434C10.5728 32.3434 11.3263 38.1271 8.63097 40.9802C8.63097 40.9802 10.9838 33.6508 9.87587 32.6412C9.87587 32.6412 7.07039 33.7789 6.46878 34.4281C6.46878 34.4281 6.91552 38.5977 5.20006 40.0868C5.20006 40.0868 6.25435 35.0238 5.73316 34.8153C5.73316 34.8153 2.47201 37.2694 1.48026 39.3869C1.48026 39.3869 2.7192 36.1525 5.32217 34.3239C5.32217 34.3239 3.13615 33.9546 1.45048 34.8689C1.45048 34.8689 2.57922 32.7216 6.1114 33.7402C6.1114 33.7402 8.72926 31.9294 9.25342 31.9532C9.25342 31.9532 5.91185 30.4641 3.49652 30.6458C3.49652 30.6458 6.08459 29.1567 10.0724 31.6465L13.1817 30.5207C13.1817 30.5207 8.86625 28.3079 6.70109 28.3168C6.70109 28.3168 9.57805 27.206 13.9918 30.3033L17.1755 29.6511C17.1755 29.6511 13.6016 27.4621 11.1922 26.9528C11.1922 26.9528 14.0841 26.4971 18.0958 29.5022L20.2758 29.3175C20.2758 29.3175 17.6371 27.7659 16.839 27.3876C16.0408 27.0094 16.0765 26.7622 16.0765 26.7622C17.9762 27.092 19.7468 27.9438 21.1901 29.2222C21.1901 29.2222 25.6992 29.1358 25.72 28.8589Z" fill="#597C75"/>
</g>
<g opacity="0.1">
<path opacity="0.1" d="M24.8981 12.0738C24.8981 12.0738 16.9939 -6.17374 5.6498 2.19507C5.6498 2.19507 3.24638 2.89197 3.26722 5.38177C3.26722 5.38177 4.20239 4.94992 4.79207 6.89173C5.01255 7.5813 5.31238 8.24293 5.68554 8.86331C6.17909 9.69775 6.93069 10.349 7.82688 10.7187C7.82688 10.7187 12.4014 14.656 21.5267 12.4729C21.5267 12.4729 24.0254 13.009 24.4543 12.7201L21.6637 10.3792C21.6637 10.3792 20.0257 12.4908 17.8278 12.595C17.8278 12.595 21.6488 10.54 21.2646 10.0099C21.1872 9.90271 19.7338 8.83651 19.7338 8.83651C19.7338 8.83651 16.8658 12.4938 13.4796 12.5504C13.4796 12.5504 18.3609 10.7098 19.1948 8.42551L16.9045 6.9364C16.9045 6.9364 14.0633 10.954 10.1946 11.1625C10.1946 11.1625 15.2278 9.07774 16.3803 6.64751L13.9293 5.49196C13.9293 5.49196 11.0821 9.36365 7.86262 9.50958C7.86262 9.50958 13.4349 6.49562 13.3485 5.26562C13.3485 5.26562 11.0344 4.34236 10.3018 4.39597C10.3018 4.39597 8.19618 7.12105 6.31693 7.04362C6.31693 7.04362 9.82825 4.63423 9.63467 4.2143C9.63467 4.2143 6.29906 3.81522 4.50319 4.51213C4.50319 4.51213 7.08233 3.29701 9.67041 3.69609C9.67041 3.69609 8.58335 2.22783 7.06744 1.81981C7.06744 1.81981 8.96159 1.18545 10.4805 3.80331C10.4805 3.80331 13.0656 4.21728 13.3664 4.52702C13.3664 4.52702 12.2347 1.73046 10.686 0.470674C10.686 0.470674 13.0686 1.06632 14.0216 4.80995L16.5084 5.91487C16.5084 5.91487 15.2069 2.14146 13.8995 0.917408C13.8995 0.917408 16.2433 1.89427 17.1011 6.24843L19.3615 7.675C19.3615 7.675 18.483 4.33939 17.3453 2.67754C17.3453 2.67754 19.3228 4.0505 19.9959 8.12173L21.3957 9.25346C21.3957 9.25346 20.7107 6.82918 20.4516 6.15015C20.1925 5.47111 20.3563 5.34603 20.3563 5.34603C21.2953 6.62512 21.8613 8.13957 21.9913 9.72104C21.9913 9.72104 24.7372 12.2287 24.8981 12.0738Z" fill="#597C75"/>
</g>
</g>
<defs>
<clipPath id="clip0_45_341">
<rect width="327.637" height="218" fill="white"/>
</clipPath>
</defs>
</svg>
