<svg width="16" height="16" viewBox="0 0 16 16" fill="none" xmlns="http://www.w3.org/2000/svg">
<path d="M14.2756 4.44434H1.72447C1.50287 4.44434 1.29034 4.53237 1.13364 4.68906C0.976947 4.84576 0.888916 5.05829 0.888916 5.27989V13.3866C0.888916 13.6082 0.976947 13.8207 1.13364 13.9774C1.29034 14.1341 1.50287 14.2221 1.72447 14.2221H14.2756C14.4972 14.2221 14.7097 14.1341 14.8664 13.9774C15.0231 13.8207 15.1111 13.6082 15.1111 13.3866V5.27989C15.1111 5.05829 15.0231 4.84576 14.8664 4.68906C14.7097 4.53237 14.4972 4.44434 14.2756 4.44434ZM14.2222 13.3332H1.7778V5.33322H14.2222V13.3332Z" fill="black" fill-opacity="0.65"/>
<path d="M3.8044 8.64421C4.06811 8.64421 4.3259 8.56601 4.54516 8.4195C4.76443 8.27299 4.93533 8.06475 5.03624 7.82112C5.13716 7.57748 5.16356 7.30939 5.11212 7.05075C5.06067 6.79211 4.93368 6.55453 4.74721 6.36806C4.56074 6.18159 4.32316 6.05461 4.06452 6.00316C3.80588 5.95171 3.53779 5.97812 3.29416 6.07903C3.05052 6.17995 2.84229 6.35085 2.69578 6.57011C2.54927 6.78938 2.47107 7.04717 2.47107 7.31087C2.47107 7.6645 2.61155 8.00363 2.86159 8.25368C3.11164 8.50373 3.45078 8.64421 3.8044 8.64421ZM3.8044 6.59976C3.94575 6.59623 4.08494 6.63491 4.2042 6.71087C4.32346 6.78683 4.41736 6.89661 4.47392 7.0262C4.53048 7.15579 4.54712 7.29929 4.52173 7.43838C4.49633 7.57748 4.43004 7.70584 4.33134 7.80708C4.23263 7.90831 4.10599 7.97783 3.96758 8.00674C3.82918 8.03565 3.68529 8.02264 3.55432 7.96938C3.42334 7.91612 3.31121 7.82503 3.23226 7.70773C3.15331 7.59043 3.11111 7.45227 3.11107 7.31087C3.11101 7.12532 3.18349 6.94708 3.31302 6.81422C3.44256 6.68136 3.6189 6.6044 3.8044 6.59976Z" fill="black" fill-opacity="0.65"/>
<path d="M3.5111 12.4445L6.17777 9.77788L7.5911 11.1912L6.33777 12.4445H7.22666L10.5422 9.12899L13.3333 11.8979V11.009L10.7555 8.44455C10.6964 8.38592 10.6166 8.35303 10.5333 8.35303C10.4501 8.35303 10.3702 8.38592 10.3111 8.44455L8.01777 10.7379L6.38666 9.11121C6.32756 9.05259 6.24768 9.01969 6.16444 9.01969C6.08119 9.01969 6.00132 9.05259 5.94221 9.11121L2.6311 12.4445H3.5111Z" fill="black" fill-opacity="0.65"/>
<path d="M13.3955 1.33312C13.3955 1.21524 13.3487 1.1022 13.2654 1.01885C13.182 0.935497 13.069 0.888672 12.9511 0.888672H3.17333C3.05545 0.888672 2.94241 0.935497 2.85906 1.01885C2.77571 1.1022 2.72888 1.21524 2.72888 1.33312V1.77756H13.3955V1.33312Z" fill="black" fill-opacity="0.65"/>
<path d="M14.2755 3.11095C14.2755 2.99307 14.2287 2.88003 14.1453 2.79668C14.062 2.71333 13.9489 2.6665 13.8311 2.6665H2.2755C2.15763 2.6665 2.04458 2.71333 1.96123 2.79668C1.87788 2.88003 1.83105 2.99307 1.83105 3.11095V3.55539H14.2755V3.11095Z" fill="black" fill-opacity="0.65"/>
</svg>
