<svg width="30" height="48" viewBox="0 0 30 48" fill="none" xmlns="http://www.w3.org/2000/svg">
<path d="M16.25 3.75C13.2663 3.75 10.4048 4.93526 8.29505 7.04505C6.18526 9.15483 5 12.0163 5 15H1.25L6.1125 19.8625L6.2 20.0375L11.25 15H7.5C7.5 10.1625 11.4125 6.25 16.25 6.25C21.0875 6.25 25 10.1625 25 15C25 19.8375 21.0875 23.75 16.25 23.75C13.8375 23.75 11.65 22.7625 10.075 21.175L8.3 22.95C9.34177 23.9975 10.5806 24.8284 11.9451 25.3948C13.3095 25.9612 14.7726 26.2518 16.25 26.25C19.2337 26.25 22.0952 25.0647 24.205 22.955C26.3147 20.8452 27.5 17.9837 27.5 15C27.5 12.0163 26.3147 9.15483 24.205 7.04505C22.0952 4.93526 19.2337 3.75 16.25 3.75ZM15 10V16.25L20.3125 19.4L21.275 17.8L16.875 15.1875V10H15Z" fill="#597C75"/>
<g filter="url(#filter0_dii_3001_583)">
<rect x="12" y="30" width="6" height="6" rx="3" fill="url(#paint0_linear_3001_583)"/>
</g>
<defs>
<filter id="filter0_dii_3001_583" x="4" y="26" width="22" height="22" filterUnits="userSpaceOnUse" color-interpolation-filters="sRGB">
<feFlood flood-opacity="0" result="BackgroundImageFix"/>
<feColorMatrix in="SourceAlpha" type="matrix" values="0 0 0 0 0 0 0 0 0 0 0 0 0 0 0 0 0 0 127 0" result="hardAlpha"/>
<feOffset dy="4"/>
<feGaussianBlur stdDeviation="4"/>
<feColorMatrix type="matrix" values="0 0 0 0 0.1825 0 0 0 0 0.121729 0 0 0 0 0.00410627 0 0 0 0.25 0"/>
<feBlend mode="normal" in2="BackgroundImageFix" result="effect1_dropShadow_3001_583"/>
<feBlend mode="normal" in="SourceGraphic" in2="effect1_dropShadow_3001_583" result="shape"/>
<feColorMatrix in="SourceAlpha" type="matrix" values="0 0 0 0 0 0 0 0 0 0 0 0 0 0 0 0 0 0 127 0" result="hardAlpha"/>
<feOffset dy="1.33333"/>
<feGaussianBlur stdDeviation="0.666667"/>
<feComposite in2="hardAlpha" operator="arithmetic" k2="-1" k3="1"/>
<feColorMatrix type="matrix" values="0 0 0 0 0.514139 0 0 0 0 0.691667 0 0 0 0 0.657147 0 0 0 1 0"/>
<feBlend mode="normal" in2="shape" result="effect2_innerShadow_3001_583"/>
<feColorMatrix in="SourceAlpha" type="matrix" values="0 0 0 0 0 0 0 0 0 0 0 0 0 0 0 0 0 0 127 0" result="hardAlpha"/>
<feOffset dy="-1.33333"/>
<feGaussianBlur stdDeviation="0.666667"/>
<feComposite in2="hardAlpha" operator="arithmetic" k2="-1" k3="1"/>
<feColorMatrix type="matrix" values="0 0 0 0 0.199333 0 0 0 0 0.2875 0 0 0 0 0.269867 0 0 0 1 0"/>
<feBlend mode="normal" in2="effect2_innerShadow_3001_583" result="effect3_innerShadow_3001_583"/>
</filter>
<linearGradient id="paint0_linear_3001_583" x1="15" y1="30" x2="15" y2="36" gradientUnits="userSpaceOnUse">
<stop stop-color="#597C75"/>
<stop offset="1" stop-color="#5D827B"/>
</linearGradient>
</defs>
</svg>
