<svg width="14" height="14" viewBox="0 0 14 14" fill="none" xmlns="http://www.w3.org/2000/svg">
<path d="M9.66667 6C10.6391 6 11.5718 6.38631 12.2594 7.07394C12.947 7.76158 13.3333 8.69421 13.3333 9.66667C13.3333 10.6391 12.947 11.5718 12.2594 12.2594C11.5718 12.947 10.6391 13.3333 9.66667 13.3333C8.69421 13.3333 7.76158 12.947 7.07394 12.2594C6.38631 11.5718 6 10.6391 6 9.66667C6 8.69421 6.38631 7.76158 7.07394 7.07394C7.76158 6.38631 8.69421 6 9.66667 6ZM8.016 8.016C7.95351 8.07851 7.9184 8.16328 7.9184 8.25167C7.9184 8.34005 7.95351 8.42482 8.016 8.48733L9.19533 9.66733L8.01733 10.8447C7.98634 10.8756 7.96175 10.9124 7.94496 10.9528C7.92817 10.9933 7.91951 11.0366 7.91948 11.0804C7.91945 11.1242 7.92805 11.1676 7.94478 11.2081C7.96151 11.2486 7.98605 11.2853 8.017 11.3163C8.04795 11.3473 8.0847 11.3719 8.12515 11.3887C8.1656 11.4055 8.20897 11.4142 8.25276 11.4142C8.29656 11.4142 8.33994 11.4056 8.38041 11.3889C8.42089 11.3722 8.45767 11.3476 8.48867 11.3167L9.66667 10.1387L10.8467 11.318C10.8774 11.3498 10.9142 11.3752 10.9549 11.3927C10.9955 11.4102 11.0393 11.4194 11.0835 11.4198C11.1278 11.4201 11.1717 11.4117 11.2127 11.3949C11.2536 11.3782 11.2908 11.3534 11.3221 11.3221C11.3534 11.2908 11.3782 11.2536 11.3949 11.2127C11.4117 11.1717 11.4201 11.1278 11.4198 11.0835C11.4194 11.0393 11.4102 10.9955 11.3927 10.9549C11.3752 10.9142 11.3498 10.8774 11.318 10.8467L10.1387 9.66667L11.3193 8.48667C11.3801 8.4238 11.4137 8.3396 11.4129 8.2522C11.4121 8.1648 11.3771 8.0812 11.3153 8.01939C11.2535 7.95759 11.1699 7.92253 11.0825 7.92178C10.9951 7.92102 10.9109 7.95461 10.848 8.01533L9.66733 9.19533L8.48733 8.01533C8.42482 7.95284 8.34005 7.91774 8.25167 7.91774C8.16328 7.91774 8.07851 7.95284 8.016 8.01533V8.016ZM9.83333 0C10.408 0 10.9591 0.228273 11.3654 0.634602C11.7717 1.04093 12 1.59203 12 2.16667L12.0007 6.01533C11.689 5.8153 11.3529 5.65622 11.0007 5.542L11 3.66667H1V9.83333C1 10.4773 1.52267 11 2.16667 11H5.54267C5.65733 11.356 5.81733 11.692 6.01533 12.0007L2.16667 12C1.59203 12 1.04093 11.7717 0.634602 11.3654C0.228273 10.9591 0 10.408 0 9.83333V2.16667C0 1.59203 0.228273 1.04093 0.634602 0.634602C1.04093 0.228273 1.59203 0 2.16667 0H9.83333ZM9.83333 1H2.16667C1.85725 1 1.5605 1.12292 1.34171 1.34171C1.12292 1.5605 1 1.85725 1 2.16667V2.66667H11V2.16667C11 1.85725 10.8771 1.5605 10.6583 1.34171C10.4395 1.12292 10.1428 1 9.83333 1Z" fill="white"/>
</svg>
