<svg width="8" height="14" viewBox="0 0 8 14" fill="none" xmlns="http://www.w3.org/2000/svg">
<path d="M7.4826 0.926464C7.4052 0.848858 7.31324 0.787287 7.212 0.745276C7.11075 0.703265 7.00222 0.681641 6.89261 0.681641C6.78299 0.681641 6.67446 0.703265 6.57322 0.745276C6.47197 0.787287 6.38002 0.848858 6.30261 0.926464L0.695939 6.53313C0.634137 6.59481 0.585105 6.66807 0.551651 6.74871C0.518196 6.82936 0.500977 6.91582 0.500977 7.00313C0.500977 7.09044 0.518196 7.1769 0.551651 7.25755C0.585105 7.3382 0.634137 7.41145 0.695939 7.47313L6.30261 13.0798C6.62927 13.4065 7.15594 13.4065 7.4826 13.0798C7.80927 12.7531 7.80927 12.2265 7.4826 11.8998L2.58927 7.00646L7.48927 2.10646C7.80927 1.7798 7.80927 1.25313 7.4826 0.926464Z" fill="white"/>
</svg>
