<svg width="12" height="12" viewBox="0 0 12 12" fill="none" xmlns="http://www.w3.org/2000/svg">
<path d="M6.9688 8.39668C6.94531 8.37342 6.91358 8.36037 6.88052 8.36037C6.84746 8.36037 6.81573 8.37342 6.79224 8.39668L4.97661 10.2123C4.13599 11.0529 2.71724 11.142 1.78911 10.2123C0.859424 9.28262 0.948486 7.86543 1.78911 7.0248L3.60474 5.20918C3.65317 5.16074 3.65317 5.08106 3.60474 5.03262L2.98286 4.41074C2.95937 4.38748 2.92764 4.37443 2.89458 4.37443C2.86152 4.37443 2.82979 4.38748 2.8063 4.41074L0.990674 6.22637C-0.331201 7.54824 -0.331201 9.6873 0.990674 11.0076C2.31255 12.3279 4.45161 12.3295 5.77192 11.0076L7.58755 9.19199C7.63599 9.14355 7.63599 9.06387 7.58755 9.01543L6.9688 8.39668ZM11.0094 0.99043C9.68755 -0.331445 7.54849 -0.331445 6.22817 0.99043L4.41099 2.80605C4.38772 2.82955 4.37467 2.86127 4.37467 2.89434C4.37467 2.9274 4.38772 2.95912 4.41099 2.98262L5.0313 3.60293C5.07974 3.65137 5.15942 3.65137 5.20786 3.60293L7.02349 1.7873C7.86411 0.94668 9.28286 0.857617 10.211 1.7873C11.1407 2.71699 11.0516 4.13418 10.211 4.9748L8.39536 6.79043C8.3721 6.81392 8.35905 6.84565 8.35905 6.87871C8.35905 6.91177 8.3721 6.9435 8.39536 6.96699L9.01724 7.58887C9.06567 7.63731 9.14536 7.63731 9.1938 7.58887L11.0094 5.77324C12.3297 4.45137 12.3297 2.3123 11.0094 0.99043ZM7.53286 3.81699C7.50937 3.79373 7.47764 3.78068 7.44458 3.78068C7.41152 3.78068 7.37979 3.79373 7.3563 3.81699L3.81724 7.35449C3.79397 7.37799 3.78092 7.40971 3.78092 7.44277C3.78092 7.47584 3.79397 7.50756 3.81724 7.53105L4.43599 8.1498C4.48442 8.19824 4.56411 8.19824 4.61255 8.1498L8.15005 4.61231C8.19849 4.56387 8.19849 4.48418 8.15005 4.43574L7.53286 3.81699Z" fill="black" fill-opacity="0.65"/>
</svg>
