<svg width="278" height="218" viewBox="0 0 278 218" fill="none" xmlns="http://www.w3.org/2000/svg">
<g clip-path="url(#clip0_11_130)">
<path d="M252.746 199.011C247.423 204.71 241.324 209.63 234.629 213.628C234.475 213.722 234.319 213.811 234.163 213.902L223.323 204.309C223.437 204.203 223.563 204.084 223.699 203.954C231.775 196.285 271.871 142.664 274.542 129.607C274.358 130.694 276.953 173.354 252.746 199.011Z" fill="#F0F0F0"/>
<path d="M236.72 215.479C236.515 215.528 236.307 215.574 236.098 215.615L227.966 208.418C228.125 208.362 228.31 208.296 228.523 208.223C232.012 206.988 242.404 203.258 252.745 199.01C263.858 194.444 274.917 189.284 277.295 185.979C276.785 186.747 261.069 210.034 236.72 215.479Z" fill="#F0F0F0"/>
<path d="M252.596 57.0936H251.438V25.3687C251.438 22.9575 250.963 20.5698 250.04 18.3421C249.117 16.1144 247.765 14.0902 246.06 12.3852C244.355 10.6802 242.331 9.32769 240.103 8.40493C237.875 7.48218 235.488 7.00725 233.076 7.00725H165.863C163.452 7.00724 161.064 7.48217 158.836 8.40492C156.609 9.32766 154.584 10.6802 152.879 12.3852C151.174 14.0902 149.822 16.1143 148.899 18.3421C147.976 20.5698 147.501 22.9574 147.501 25.3687V199.414C147.501 201.825 147.976 204.213 148.899 206.44C149.822 208.668 151.174 210.692 152.879 212.397C154.584 214.102 156.609 215.455 158.836 216.378C161.064 217.3 163.452 217.775 165.863 217.775H233.076C235.488 217.775 237.875 217.3 240.103 216.378C242.331 215.455 244.355 214.102 246.06 212.397C247.765 210.692 249.117 208.668 250.04 206.44C250.963 204.213 251.438 201.825 251.438 199.414V79.6759H252.596V57.0936Z" fill="#3F3D56"/>
<path d="M247.529 25.4949V199.287C247.529 201.087 247.175 202.87 246.485 204.534C245.796 206.198 244.786 207.709 243.512 208.982C242.239 210.255 240.727 211.265 239.063 211.954C237.399 212.642 235.616 212.997 233.815 212.996H166.278C164.478 212.996 162.695 212.642 161.032 211.953C159.368 211.264 157.857 210.254 156.584 208.981C155.311 207.708 154.301 206.196 153.612 204.533C152.923 202.87 152.569 201.087 152.569 199.287V25.4949C152.569 23.6945 152.923 21.9117 153.612 20.2484C154.301 18.585 155.311 17.0737 156.584 15.8006C157.857 14.5275 159.368 13.5177 161.032 12.8288C162.695 12.1399 164.478 11.7854 166.278 11.7855H174.474C174.072 12.7748 173.919 13.8477 174.028 14.91C174.138 15.9722 174.507 16.9913 175.103 17.8775C175.699 18.7637 176.503 19.4899 177.445 19.9923C178.388 20.4947 179.439 20.7578 180.507 20.7585H219.012C220.08 20.7595 221.133 20.4975 222.076 19.9956C223.019 19.4937 223.825 18.7674 224.421 17.8806C225.017 16.9939 225.386 15.9741 225.495 14.9111C225.604 13.8481 225.449 12.7747 225.045 11.7855H233.815C235.616 11.7849 237.399 12.139 239.063 12.8277C240.727 13.5163 242.239 14.5261 243.512 15.7992C244.786 17.0722 245.796 18.5838 246.485 20.2474C247.175 21.911 247.529 23.6941 247.529 25.4949Z" fill="white"/>
<path d="M226.521 115.806H167.158C166.118 115.805 165.121 115.392 164.386 114.656C163.651 113.921 163.237 112.924 163.236 111.885V109.932C163.237 108.893 163.651 107.896 164.386 107.161C165.121 106.425 166.118 106.012 167.158 106.011H226.521C227.561 106.012 228.558 106.425 229.293 107.161C230.028 107.896 230.442 108.893 230.443 109.932V111.885C230.442 112.924 230.028 113.921 229.293 114.656C228.558 115.392 227.561 115.805 226.521 115.806Z" fill="#F0F0F0"/>
<path d="M226.521 132.634H167.158C166.118 132.632 165.121 132.219 164.386 131.484C163.651 130.748 163.237 129.752 163.236 128.712V126.76C163.237 125.72 163.651 124.723 164.386 123.988C165.121 123.253 166.118 122.839 167.158 122.838H226.521C227.561 122.839 228.558 123.253 229.293 123.988C230.028 124.723 230.442 125.72 230.443 126.76V128.712C230.442 129.752 230.028 130.748 229.293 131.484C228.558 132.219 227.561 132.632 226.521 132.634Z" fill="#F0F0F0"/>
<path d="M229.49 112.043H170.127C169.036 112.042 167.989 111.607 167.217 110.835C166.445 110.063 166.011 109.017 166.01 107.925V105.973C166.011 104.881 166.445 103.834 167.217 103.063C167.989 102.291 169.036 101.856 170.127 101.855H229.49C230.582 101.856 231.629 102.291 232.401 103.063C233.173 103.834 233.607 104.881 233.608 105.973V107.925C233.607 109.017 233.173 110.063 232.401 110.835C231.629 111.607 230.582 112.042 229.49 112.043ZM170.127 102.639C169.244 102.64 168.396 102.992 167.771 103.617C167.146 104.242 166.795 105.089 166.794 105.973V107.925C166.795 108.809 167.146 109.656 167.771 110.281C168.396 110.906 169.244 111.258 170.127 111.259H229.49C230.374 111.258 231.222 110.906 231.847 110.281C232.471 109.656 232.823 108.809 232.824 107.925V105.973C232.823 105.089 232.471 104.242 231.847 103.617C231.222 102.992 230.374 102.64 229.49 102.639H170.127Z" fill="#3F3D56"/>
<path d="M229.49 128.87H170.127C169.036 128.869 167.989 128.435 167.217 127.663C166.445 126.891 166.011 125.844 166.01 124.752V122.8C166.011 121.709 166.445 120.662 167.217 119.89C167.989 119.118 169.036 118.684 170.127 118.682H229.49C230.582 118.684 231.629 119.118 232.401 119.89C233.173 120.662 233.607 121.709 233.608 122.8V124.752C233.607 125.844 233.173 126.891 232.401 127.663C231.629 128.435 230.582 128.869 229.49 128.87ZM170.127 119.467C169.244 119.468 168.396 119.819 167.771 120.444C167.146 121.069 166.795 121.916 166.794 122.8V124.752C166.795 125.636 167.146 126.483 167.771 127.108C168.396 127.733 169.244 128.085 170.127 128.086H229.49C230.374 128.085 231.222 127.733 231.847 127.108C232.471 126.483 232.823 125.636 232.824 124.752V122.8C232.823 121.916 232.471 121.069 231.847 120.444C231.222 119.819 230.374 119.468 229.49 119.467H170.127Z" fill="#3F3D56"/>
<path d="M247.529 25.4949V63.297C241.523 64.8773 235.234 65.0585 229.146 63.8269C223.058 62.5953 217.334 59.9837 212.414 56.1928C207.494 52.402 203.51 47.533 200.767 41.9606C198.024 36.3881 196.595 30.2607 196.592 24.0497C196.592 22.9411 196.637 21.844 196.726 20.7585H219.012C220.08 20.7595 221.133 20.4975 222.076 19.9956C223.019 19.4937 223.825 18.7674 224.421 17.8806C225.017 16.9939 225.386 15.9741 225.495 14.9111C225.604 13.8481 225.449 12.7747 225.045 11.7855H233.815C235.616 11.7849 237.399 12.139 239.063 12.8277C240.727 13.5163 242.239 14.5261 243.512 15.7992C244.786 17.0722 245.796 18.5838 246.485 20.2474C247.175 21.911 247.529 23.6941 247.529 25.4949Z" fill="#F0F0F0"/>
<path d="M186.694 210.635C186.694 211.432 186.664 212.219 186.6 212.996H166.278C164.478 212.996 162.695 212.642 161.032 211.953C159.368 211.264 157.857 210.254 156.584 208.981C155.311 207.708 154.301 206.196 153.612 204.533C152.923 202.87 152.569 201.087 152.569 199.287V180.697C156.828 180.143 161.157 180.504 165.267 181.754C169.376 183.005 173.172 185.117 176.401 187.95C179.63 190.782 182.218 194.271 183.993 198.183C185.768 202.094 186.688 206.34 186.694 210.635H186.694Z" fill="#597C75"/>
<path d="M22.794 178.018C23.365 178.269 24.0123 178.283 24.5939 178.058C25.1756 177.832 25.644 177.385 25.8965 176.815L44.2032 135.325C44.6222 134.375 44.7502 133.323 44.5711 132.301C44.392 131.278 43.9137 130.332 43.1968 129.582C42.4799 128.831 41.5566 128.31 40.5436 128.085C39.5306 127.859 38.4734 127.939 37.5058 128.314H37.5058C36.3878 128.741 35.4524 129.542 34.8585 130.581C34.764 130.745 34.6784 130.915 34.6018 131.088L16.2952 172.578C16.1704 172.861 16.1025 173.166 16.0955 173.475C16.0884 173.784 16.1423 174.091 16.254 174.379C16.3657 174.667 16.533 174.93 16.7465 175.154C16.96 175.377 17.2154 175.556 17.4981 175.681L22.794 178.018Z" fill="#597C75"/>
<path d="M43.4517 152.358L25.3441 148.334L29.8259 136.478C30.5894 133.58 32.3662 131.052 34.8341 129.352C37.302 127.652 40.2975 126.892 43.2773 127.212L43.4517 127.231L43.4517 152.358Z" fill="#2F2E41"/>
<path d="M80.0263 178.611C79.4937 178.61 78.9727 178.455 78.5265 178.164C78.0802 177.874 77.7277 177.46 77.5116 176.973L59.205 135.483C58.6228 134.163 58.5687 132.67 59.0538 131.311C59.5389 129.952 60.5263 128.831 61.8129 128.178C63.0995 127.525 64.5874 127.39 65.9705 127.801C67.3536 128.211 68.5267 129.136 69.2485 130.386V130.386C69.35 130.562 69.4419 130.744 69.5241 130.93L87.8307 172.42C88.1246 173.086 88.1419 173.842 87.8787 174.521C87.6155 175.2 87.0934 175.746 86.4273 176.04L80.9519 178.456L80.9491 178.45C80.6531 178.556 80.3409 178.611 80.0263 178.611Z" fill="#597C75"/>
<path d="M54.7034 164.364C54.0795 164.364 53.4814 164.613 53.0402 165.054C52.5991 165.495 52.351 166.093 52.3503 166.717V214.96C52.351 215.584 52.5991 216.182 53.0402 216.624C53.4814 217.065 54.0795 217.313 54.7034 217.313H60.4917C61.1156 217.313 61.7137 217.065 62.1549 216.624C62.596 216.182 62.8441 215.584 62.8448 214.96V166.717C62.8441 166.093 62.596 165.495 62.1549 165.054C61.7137 164.613 61.1156 164.364 60.4917 164.364H54.7034Z" fill="#597C75"/>
<path d="M43.2548 164.364C42.6309 164.364 42.0328 164.613 41.5916 165.054C41.1505 165.495 40.9024 166.093 40.9017 166.717V214.96C40.9024 215.584 41.1505 216.182 41.5916 216.624C42.0328 217.065 42.6309 217.313 43.2548 217.313H49.0432C49.6671 217.313 50.2652 217.065 50.7063 216.624C51.1475 216.182 51.3956 215.584 51.3963 214.96V166.717C51.3956 166.093 51.1475 165.495 50.7063 165.054C50.2652 164.613 49.6671 164.364 49.0432 164.364H43.2548Z" fill="#597C75"/>
<path d="M51.7003 113.82C62.7467 113.82 71.7015 104.865 71.7015 93.8188C71.7015 82.7725 62.7467 73.8177 51.7003 73.8177C40.654 73.8177 31.6992 82.7725 31.6992 93.8188C31.6992 104.865 40.654 113.82 51.7003 113.82Z" fill="#597C75"/>
<path d="M58.3563 102.215C59.6528 102.179 61.2664 102.134 62.5095 101.226C62.8797 100.944 63.1838 100.585 63.4006 100.174C63.6174 99.7626 63.7416 99.3088 63.7645 98.8443C63.787 98.5142 63.7329 98.1834 63.6063 97.8777C63.4797 97.572 63.2842 97.2998 63.0349 97.0822C62.3857 96.5336 61.4376 96.4049 60.4159 96.7051L61.4745 88.9691L60.6974 88.8627L59.4529 97.9573L60.1018 97.6595C60.8542 97.3145 61.8869 97.1389 62.5286 97.6812C62.6862 97.823 62.809 97.9992 62.8874 98.1961C62.9658 98.3931 62.9977 98.6054 62.9807 98.8167C62.9617 99.1624 62.8684 99.5 62.7073 99.8064C62.5461 100.113 62.3209 100.381 62.0468 100.592C61.0795 101.299 59.7933 101.39 58.3345 101.431L58.3563 102.215Z" fill="#2F2E41"/>
<path d="M69.5419 89.6363H65.3175V90.4207H69.5419V89.6363Z" fill="#2F2E41"/>
<path d="M56.2077 89.6363H51.9833V90.4207H56.2077V89.6363Z" fill="#2F2E41"/>
<path d="M71.5186 178.855L64.3197 126.303C64.2425 125.739 63.9638 125.223 63.5352 124.849C63.1066 124.475 62.557 124.269 61.9883 124.269H56.5544C56.5771 124.14 56.5889 124.008 56.5897 123.877V121.916C56.5897 121.292 56.3417 120.693 55.9005 120.252C55.4592 119.811 54.8607 119.563 54.2366 119.563H49.5304C48.9064 119.563 48.3079 119.811 47.8666 120.252C47.4253 120.693 47.1774 121.292 47.1774 121.916V123.877C47.1782 124.008 47.19 124.14 47.2126 124.269H41.7788C41.21 124.269 40.6605 124.475 40.2319 124.849C39.8032 125.223 39.5246 125.739 39.4473 126.303L32.2485 178.855C32.2029 179.188 32.2291 179.526 32.3253 179.848C32.4216 180.17 32.5857 180.468 32.8065 180.721C33.0274 180.974 33.2999 181.177 33.6058 181.316C33.9116 181.455 34.2437 181.527 34.5797 181.527H69.1873C69.5233 181.527 69.8554 181.455 70.1612 181.316C70.4671 181.177 70.7396 180.974 70.9605 180.721C71.1813 180.468 71.3454 180.17 71.4417 179.848C71.5379 179.527 71.5642 179.188 71.5186 178.855Z" fill="#2F2E41"/>
<path d="M60.3154 152.358V127.231L60.4899 127.212C63.4733 126.893 66.4721 127.654 68.9416 129.358C71.411 131.063 73.1873 133.596 73.9477 136.498L78.423 148.334L60.3154 152.358Z" fill="#2F2E41"/>
<path d="M50.6931 114.444L36.8588 109.074C34.5966 108.196 32.3218 107.345 30.0715 106.437C29.1076 106.101 28.2198 105.578 27.459 104.897C26.7967 104.196 26.3453 103.322 26.1565 102.377C25.6767 100.348 25.7635 98.1311 25.7977 96.0614C25.8243 93.7973 26.0106 91.5379 26.3553 89.3C26.9594 85.0946 28.3782 81.0475 30.5321 77.3854C34.4118 71.0197 41.0963 66.2304 48.7853 66.6126C52.345 66.7896 55.9252 68.0669 58.5699 70.5007C58.8458 70.8304 59.1554 71.1304 59.4935 71.3958C59.7286 71.484 59.9844 71.5011 60.2291 71.4452C60.5519 71.4244 60.8749 71.4086 61.1982 71.3977C62.3199 71.3503 63.4436 71.3975 64.5574 71.5386C66.5872 71.7579 68.5109 72.5567 70.099 73.8396C71.4207 74.9766 72.4962 76.5816 72.6068 78.3653C72.6602 79.1841 72.5249 80.0043 72.2111 80.7625C71.8973 81.5207 71.4136 82.1967 70.7972 82.7384C69.1467 84.1294 66.7918 83.6405 64.812 83.5356L57.5591 83.1513L53.8843 82.9566C53.1277 82.9165 53.1299 84.0932 53.8843 84.1332L63.6515 84.6506C65.2211 84.7338 66.8388 84.9376 68.4096 84.8435C69.6166 84.7888 70.7691 84.3252 71.6777 83.5287C72.5075 82.7665 73.1257 81.8021 73.4718 80.7299C73.818 79.6576 73.8804 78.5139 73.653 77.4103C73.1494 75.0032 71.358 73.0121 69.258 71.8275C66.4005 70.2158 62.9878 70.0613 59.7905 70.2996L60.2064 70.4719C56.5896 66.59 51.0496 64.9511 45.8486 65.5246C40.3572 66.1302 35.4731 69.1938 31.9638 73.383C28.0513 78.0536 25.9192 83.8775 25.0903 89.8662C24.659 93.0996 24.5169 96.365 24.666 99.6235C24.6598 101.061 24.9057 102.488 25.3924 103.84C25.9477 105.156 26.9517 106.232 28.2259 106.878C29.6868 107.583 31.1886 108.2 32.7234 108.725L37.8202 110.704L47.8319 114.59L50.3804 115.579C51.0866 115.853 51.3926 114.716 50.6931 114.444Z" fill="#2F2E41"/>
<path d="M28.941 74.4622C27.7388 74.4622 26.5635 74.1057 25.5638 73.4377C24.5642 72.7698 23.7851 71.8204 23.325 70.7097C22.8649 69.5989 22.7445 68.3767 22.979 67.1975C23.2136 66.0183 23.7925 64.9352 24.6427 64.085C25.4928 63.2349 26.576 62.656 27.7551 62.4214C28.9343 62.1869 30.1565 62.3072 31.2673 62.7673C32.378 63.2274 33.3274 64.0066 33.9954 65.0062C34.6633 66.0059 35.0198 67.1811 35.0198 68.3834C35.018 69.995 34.377 71.5401 33.2374 72.6797C32.0978 73.8194 30.5527 74.4604 28.941 74.4622ZM28.941 63.4811C27.9715 63.4811 27.0237 63.7687 26.2175 64.3073C25.4113 64.846 24.783 65.6116 24.4119 66.5074C24.0409 67.4032 23.9438 68.3888 24.133 69.3398C24.3221 70.2907 24.789 71.1642 25.4746 71.8498C26.1602 72.5354 27.0337 73.0023 27.9847 73.1915C28.9356 73.3806 29.9213 73.2835 30.817 72.9125C31.7128 72.5414 32.4784 71.9131 33.0171 71.1069C33.5558 70.3008 33.8433 69.353 33.8433 68.3834C33.8418 67.0837 33.3249 65.8376 32.4058 64.9186C31.4868 63.9996 30.2407 63.4826 28.941 63.4811Z" fill="#2F2E41"/>
<path d="M130.556 112.133L117.399 102.07L107.336 115.227L120.493 125.29L130.556 112.133Z" fill="#F0F0F0"/>
<path d="M56.1975 22.3023C58.2764 22.3006 60.3267 22.7858 62.1844 23.7189C64.042 24.6521 65.6554 26.0073 66.8952 27.676L74.5779 17.6308L51.526 0L33.8954 23.0519L43.8307 30.6507C44.8249 28.1849 46.5336 26.0726 48.7372 24.585C50.9408 23.0974 53.5388 22.3024 56.1975 22.3023Z" fill="#F0F0F0"/>
<path d="M277.271 218H0.39218C0.288167 218 0.188414 217.959 0.114867 217.885C0.0413185 217.812 0 217.712 0 217.608C0 217.504 0.0413185 217.404 0.114867 217.33C0.188414 217.257 0.288167 217.216 0.39218 217.216H277.271C277.375 217.216 277.475 217.257 277.548 217.33C277.622 217.404 277.663 217.504 277.663 217.608C277.663 217.712 277.622 217.812 277.548 217.885C277.475 217.959 277.375 218 277.271 218Z" fill="#3F3D56"/>
<path d="M209.694 152.925H181.511C180.471 152.924 179.474 152.511 178.739 151.775C178.004 151.04 177.59 150.043 177.589 149.004V147.051C177.59 146.012 178.004 145.015 178.739 144.28C179.474 143.544 180.471 143.131 181.511 143.13H209.694C210.733 143.131 211.73 143.544 212.465 144.28C213.201 145.015 213.614 146.012 213.615 147.051V149.004C213.614 150.043 213.201 151.04 212.465 151.775C211.73 152.511 210.733 152.924 209.694 152.925Z" fill="#597C75"/>
<path d="M212.663 149.162H184.48C183.389 149.161 182.342 148.727 181.57 147.955C180.798 147.183 180.364 146.136 180.362 145.044V143.092C180.364 142 180.798 140.954 181.57 140.182C182.342 139.41 183.389 138.975 184.48 138.974H212.663C213.755 138.975 214.802 139.41 215.574 140.182C216.346 140.954 216.78 142 216.781 143.092V145.044C216.78 146.136 216.346 147.183 215.574 147.955C214.802 148.727 213.755 149.161 212.663 149.162ZM184.48 139.759C183.596 139.76 182.749 140.111 182.124 140.736C181.499 141.361 181.148 142.208 181.147 143.092V145.044C181.148 145.928 181.499 146.775 182.124 147.4C182.749 148.025 183.596 148.377 184.48 148.378H212.663C213.547 148.377 214.394 148.025 215.019 147.4C215.644 146.775 215.996 145.928 215.997 145.044V143.092C215.996 142.208 215.644 141.361 215.019 140.736C214.394 140.111 213.547 139.76 212.663 139.759H184.48Z" fill="#3F3D56"/>
</g>
<defs>
<clipPath id="clip0_11_130">
<rect width="277.663" height="218" fill="white"/>
</clipPath>
</defs>
</svg>
