<svg width="96" height="19" viewBox="0 0 96 19" fill="none" xmlns="http://www.w3.org/2000/svg">
<path d="M13.432 5.952C13.912 3.168 12.352 1.464 9.448 1.464H2.968L0.0640001 18H7.048C10.264 18 12.544 15.72 13.048 13.032C13.312 11.568 12.616 9.672 10.672 9.168C12.424 8.52 13.216 7.176 13.432 5.952ZM4.864 8.112L5.56 4.2H8.656C9.88 4.2 10.384 4.944 10.192 6.12C10 7.248 9.184 8.112 8.056 8.112H4.864ZM8.08 10.68C9.52 10.68 10.024 11.904 9.832 12.984C9.64 14.136 8.704 15.264 7.36 15.264H3.616L4.408 10.68H8.08ZM23.3629 18H26.2909L28.2589 6.792H25.3309L25.0669 8.184C24.4669 6.936 22.9069 6.552 21.8989 6.552C18.9469 6.552 15.8029 8.808 15.1549 12.384C14.5069 15.96 16.9069 18.216 19.8589 18.216C20.9389 18.216 22.6909 17.712 23.5789 16.56L23.3629 18ZM18.1789 12.384C18.5149 10.56 20.1709 9.36 21.8029 9.36C23.3389 9.36 24.6589 10.464 24.3469 12.384C24.0349 14.304 22.3309 15.408 20.7469 15.408C19.1149 15.408 17.8429 14.208 18.1789 12.384ZM33.2331 14.04C33.7371 11.04 34.8651 9.288 36.8811 9.288C37.1691 9.288 37.8651 9.288 38.5131 9.6L39.4731 6.96C39.0651 6.696 38.5131 6.552 37.7211 6.552C36.4491 6.552 34.9611 7.392 34.0251 9.432L34.5051 6.792H31.5771L29.6091 18H32.5371L33.2331 14.04ZM43.4123 12.36C43.7243 10.44 45.4283 9.336 46.9403 9.336C48.5723 9.336 49.6763 10.536 49.3403 12.36C49.0283 14.208 47.4683 15.432 45.8603 15.432C44.3003 15.432 43.0763 14.232 43.4123 12.36ZM42.4043 18L42.6443 16.488C43.0523 17.616 44.3723 18.24 45.8363 18.24C48.7883 18.24 51.7403 15.96 52.3643 12.408C53.0123 8.832 50.8763 6.552 47.9243 6.552C46.4123 6.552 44.9483 7.152 44.1083 8.28L45.4523 0.696H42.5243L39.4763 18H42.4043ZM65.791 12.36C66.439 8.808 64.303 6.552 61.135 6.552C57.943 6.552 54.943 8.808 54.295 12.36C53.647 15.864 55.879 18.24 59.071 18.24C61.135 18.24 63.439 17.448 64.783 15.528C64.111 15.144 63.415 14.712 62.767 14.328C62.095 15.288 60.823 15.768 59.695 15.768C58.039 15.768 56.935 14.88 57.031 13.368H65.575C65.647 13.104 65.719 12.648 65.791 12.36ZM57.367 11.376C57.871 9.84 59.191 9 60.727 9C62.167 9 63.199 9.84 63.127 11.376H57.367ZM70.9206 14.04C71.4246 11.04 72.5526 9.288 74.5686 9.288C74.8566 9.288 75.5526 9.288 76.2006 9.6L77.1606 6.96C76.7526 6.696 76.2006 6.552 75.4086 6.552C74.1366 6.552 72.6486 7.392 71.7126 9.432L72.1926 6.792H69.2646L67.2966 18H70.2246L70.9206 14.04ZM82.0358 6.792H79.1318L77.1638 18H80.0678L82.0358 6.792ZM79.4678 2.448C79.2998 3.48 80.0198 4.224 81.0518 4.224C82.0838 4.224 83.0438 3.48 83.2118 2.448C83.3798 1.464 82.7078 0.696 81.6758 0.696C80.6198 0.696 79.6598 1.464 79.4678 2.448ZM88.9668 15.36C87.3588 15.36 86.2308 14.184 86.5428 12.36C86.8548 10.56 88.3668 9.432 89.9748 9.432C91.5828 9.432 92.7108 10.56 92.3988 12.36C92.0868 14.184 90.5508 15.36 88.9668 15.36ZM88.4628 18.216C91.6548 18.216 94.6548 15.888 95.3028 12.36C95.9508 8.808 93.6708 6.552 90.5028 6.552C87.3108 6.552 84.2868 8.808 83.6388 12.36C82.9908 15.888 85.2948 18.216 88.4628 18.216Z" fill="black"/>
</svg>
