<svg width="16" height="16" viewBox="0 0 16 16" fill="none" xmlns="http://www.w3.org/2000/svg">
<path d="M9.00016 1.33337V3.33337M3.3335 2.66671H12.6668V5.66671L11.0002 8.00004V12C11.0002 12 11.0002 14.6667 8.00016 14.6667C5.00016 14.6667 5.00016 12 5.00016 12V8.00004L3.3335 5.66671V2.66671ZM5.00016 1.33337V3.33337V1.33337ZM7.00016 1.33337V3.33337V1.33337Z" stroke="black" stroke-opacity="0.65" stroke-width="1.33333" stroke-linecap="round" stroke-linejoin="round"/>
<path d="M9 10.3334C9 9.78109 8.55228 9.33337 8 9.33337C7.44772 9.33337 7 9.78109 7 10.3334V11.6667C7 12.219 7.44772 12.6667 8 12.6667C8.55228 12.6667 9 12.219 9 11.6667V10.3334Z" stroke="black" stroke-opacity="0.65" stroke-width="1.33333" stroke-linecap="round" stroke-linejoin="round"/>
<path d="M11.0002 1.33337V3.33337M3.3335 5.66671H12.6668H3.3335Z" stroke="black" stroke-opacity="0.65" stroke-width="1.33333" stroke-linecap="round" stroke-linejoin="round"/>
</svg>
