<svg width="23" height="23" viewBox="0 0 23 23" fill="none" xmlns="http://www.w3.org/2000/svg">
<path d="M11.0753 21.796L16.5706 19.4634C16.6709 20.1389 16.5441 20.8287 16.2101 21.4244C15.8761 22.0201 15.3538 22.4881 14.7251 22.7549C14.0964 23.0218 13.3969 23.0724 12.7364 22.8989C12.0759 22.7253 11.4916 22.3374 11.0753 21.796ZM5.33923 1.10893C7.46202 0.161023 9.86959 0.0728042 12.0561 0.862811C14.2425 1.65282 16.0377 3.25955 17.0643 5.3454L17.2155 5.66938L19.2026 10.1296L21.8223 12.3974C21.9657 12.5209 22.0892 12.6659 22.2326 12.8988L22.3237 13.0747C22.4264 13.3064 22.4825 13.556 22.4887 13.8093C22.4949 14.0627 22.4512 14.3148 22.3599 14.5512C22.2686 14.7876 22.1316 15.0037 21.9568 15.1872C21.782 15.3706 21.5727 15.5178 21.3409 15.6203L5.40711 22.6692C5.1136 22.7989 4.79238 22.8532 4.47256 22.8274C4.15274 22.8015 3.84442 22.6962 3.57556 22.5211C3.30669 22.346 3.08576 22.1066 2.93279 21.8245C2.77982 21.5425 2.69965 21.2267 2.69954 20.9059L2.69799 17.2911L0.781862 12.9837C0.299748 11.9051 0.0351668 10.7419 0.00327347 9.56089C-0.0286198 8.37986 0.172801 7.20414 0.596 6.10107C1.0192 4.998 1.65586 3.98926 2.46952 3.13263C3.28317 2.27599 4.25938 1.5883 5.33923 1.10893ZM2.89547 12.0441L5.01216 16.8005V20.3134L19.8475 13.7489L17.2973 11.5427L15.1112 6.63208L14.98 6.35129C14.2155 4.80682 12.8826 3.61843 11.2609 3.03539C9.63925 2.45235 7.85478 2.51997 6.28186 3.22408C5.47926 3.57952 4.75474 4.08993 4.14987 4.72603C3.54499 5.36214 3.07166 6.11141 2.75703 6.93087C2.44241 7.75033 2.29268 8.62385 2.31644 9.50131C2.34019 10.3788 2.53696 11.2429 2.89547 12.0441Z" fill="black" fill-opacity="0.65"/>
</svg>
