<svg width="30" height="31" viewBox="0 0 30 31" fill="none" xmlns="http://www.w3.org/2000/svg">
<path d="M26.7626 14.6757L15.5126 3.42568C15.0626 2.97568 14.4376 2.70068 13.7501 2.70068H5.00012C3.62512 2.70068 2.50012 3.82568 2.50012 5.20068V13.9507C2.50012 14.6382 2.77512 15.2632 3.23762 15.7257L14.4876 26.9757C14.9376 27.4257 15.5626 27.7007 16.2501 27.7007C16.9376 27.7007 17.5626 27.4257 18.0126 26.9632L26.7626 18.2132C27.2251 17.7632 27.5001 17.1382 27.5001 16.4507C27.5001 15.7632 27.2126 15.1257 26.7626 14.6757ZM16.2501 25.2132L5.00012 13.9507V5.20068H13.7501V5.18818L25.0001 16.4382L16.2501 25.2132Z" fill="#597C75"/>
<path d="M8.12512 10.2007C9.16066 10.2007 10.0001 9.36122 10.0001 8.32568C10.0001 7.29015 9.16066 6.45068 8.12512 6.45068C7.08959 6.45068 6.25012 7.29015 6.25012 8.32568C6.25012 9.36122 7.08959 10.2007 8.12512 10.2007Z" fill="#597C75"/>
</svg>
