<svg width="231" height="218" viewBox="0 0 231 218" fill="none" xmlns="http://www.w3.org/2000/svg">
<g clip-path="url(#clip0_18_187)">
<path d="M180.524 171.166C180.969 171.33 181.449 171.372 181.916 171.286C182.382 171.201 182.817 170.991 183.174 170.68L187.367 167.023C187.894 166.563 188.217 165.912 188.265 165.214C188.312 164.516 188.081 163.827 187.622 163.3L157.14 128.349C156.68 127.822 156.029 127.5 155.331 127.452C154.633 127.404 153.945 127.635 153.417 128.095L149.223 131.752C148.697 132.212 148.374 132.863 148.326 133.561C148.279 134.259 148.51 134.947 148.969 135.475L179.451 170.426C179.74 170.759 180.11 171.013 180.524 171.166Z" fill="#597C75"/>
<path d="M138.63 132.707C138.905 132.706 139.177 132.663 139.438 132.58C139.769 132.475 140.075 132.306 140.34 132.082C140.605 131.859 140.823 131.585 140.981 131.276L143.531 126.331C143.851 125.709 143.911 124.985 143.698 124.318C143.485 123.652 143.016 123.097 142.394 122.776L101.175 101.524C100.553 101.204 99.8292 101.144 99.1627 101.357C98.4963 101.57 97.9416 102.039 97.6203 102.661L95.0705 107.606C94.7506 108.228 94.6905 108.952 94.9035 109.618C95.1165 110.285 95.5852 110.84 96.2068 111.161L137.426 132.413C137.798 132.605 138.211 132.706 138.63 132.707Z" fill="#597C75"/>
<path d="M139.373 133.903C139.864 133.903 140.344 133.766 140.762 133.509C141.179 133.252 141.517 132.884 141.737 132.445L144.234 127.473C144.516 126.912 144.588 126.269 144.438 125.659C144.422 125.592 144.402 125.525 144.38 125.458C144.33 125.306 144.275 125.069 144.212 124.795C144.009 123.92 143.758 122.832 143.244 122.574L125.133 111.596C124.509 111.279 123.785 111.221 123.12 111.437C122.455 111.654 121.903 112.125 121.585 112.748L121.577 112.763L117.009 122.18C116.696 122.806 116.644 123.53 116.865 124.193C117.085 124.857 117.559 125.406 118.184 125.721L138.21 133.627C138.571 133.808 138.969 133.903 139.373 133.903Z" fill="#2F2E41"/>
<path d="M146.892 109.497C158.035 109.497 167.068 100.463 167.068 89.3203C167.068 78.1772 158.035 69.1439 146.892 69.1439C135.749 69.1439 126.715 78.1772 126.715 89.3203C126.715 100.463 135.749 109.497 146.892 109.497Z" fill="#597C75"/>
<path d="M150.825 217.44H156.389C157.089 217.439 157.759 217.161 158.254 216.666C158.749 216.171 159.027 215.5 159.028 214.801V167.672C159.027 166.972 158.749 166.301 158.254 165.806C157.759 165.312 157.089 165.033 156.389 165.033H150.825C150.125 165.033 149.455 165.312 148.96 165.806C148.465 166.301 148.187 166.972 148.186 167.672V214.801C148.187 215.5 148.465 216.171 148.96 216.666C149.455 217.161 150.125 217.439 150.825 217.44Z" fill="#597C75"/>
<path d="M126.851 195.505C127.271 195.506 127.686 195.406 128.06 195.214C128.434 195.022 128.756 194.744 129.001 194.402L155.974 156.677C156.381 156.108 156.544 155.4 156.43 154.71C156.315 154.02 155.931 153.403 155.362 152.996L150.836 149.76C150.267 149.353 149.559 149.189 148.869 149.304C148.179 149.419 147.562 149.803 147.155 150.371L120.181 188.095C119.775 188.665 119.611 189.373 119.726 190.063C119.841 190.753 120.225 191.369 120.793 191.777L125.32 195.013C125.766 195.333 126.302 195.505 126.851 195.505Z" fill="#597C75"/>
<path d="M134.007 216.739C134.561 216.73 135.107 216.593 135.6 216.341L140.582 213.861C141.884 213.212 142.602 211.997 142.182 211.153L129.344 185.367C128.923 184.523 127.522 184.364 126.219 185.012L121.238 187.492C120.657 187.767 120.164 188.196 119.81 188.733C119.657 188.941 119.56 189.186 119.53 189.443C119.5 189.7 119.537 189.961 119.638 190.199L132.476 215.985C132.722 216.48 133.304 216.739 134.007 216.739Z" fill="#597C75"/>
<path d="M158.223 148.322C158.693 148.494 159.202 148.529 159.691 148.423C160.18 148.317 160.629 148.075 160.986 147.724L168.535 140.481C168.782 140.238 168.979 139.949 169.114 139.63C169.249 139.311 169.32 138.968 169.323 138.622C169.326 138.275 169.26 137.932 169.13 137.61C169 137.289 168.808 136.997 168.565 136.75L168.563 136.748L152.519 122.877C152.127 122.477 151.014 122.574 150.12 122.65C149.839 122.675 149.596 122.696 149.436 122.694C149.366 122.694 149.296 122.696 149.227 122.701C148.601 122.746 148.011 123.013 147.565 123.454L143.602 127.36C143.105 127.852 142.823 128.521 142.818 129.221C142.813 129.921 143.085 130.594 143.576 131.093L157.243 147.686C157.518 147.968 157.853 148.185 158.223 148.322Z" fill="#2F2E41"/>
<path d="M137.189 96.7983L137.21 96.0443C135.808 96.0053 134.571 95.9173 133.642 95.2384C133.378 95.035 133.162 94.7773 133.007 94.4827C132.852 94.1881 132.762 93.8636 132.744 93.5313C132.728 93.3282 132.759 93.1241 132.834 92.9349C132.909 92.7456 133.027 92.5763 133.179 92.4401C133.796 91.9191 134.788 92.0877 135.512 92.4195L136.135 92.7055L134.939 83.9629L134.192 84.0652L135.21 91.502C134.227 91.213 133.316 91.3374 132.692 91.8643C132.453 92.0734 132.265 92.3351 132.143 92.6289C132.021 92.9226 131.969 93.2406 131.991 93.5578C132.013 94.0043 132.132 94.4406 132.341 94.8361C132.549 95.2316 132.841 95.5768 133.197 95.8474C134.391 96.7199 135.943 96.7634 137.189 96.7983Z" fill="#2F2E41"/>
<path d="M130.498 84.7065H126.437V85.4605H130.498V84.7065Z" fill="#2F2E41"/>
<path d="M143.316 84.7065H139.255V85.4605H143.316V84.7065Z" fill="#2F2E41"/>
<path d="M118.993 189.02L141.003 125.584C140.293 124.624 139.816 122.885 139.815 120.893V119.206C139.817 116.179 140.913 113.726 142.265 113.722H150.559C151.912 113.726 153.008 116.179 153.01 119.206V120.893C153.009 123.087 152.431 124.974 151.599 125.851L162.772 168.114C162.989 168.487 163.104 168.91 163.104 169.34C163.105 169.771 162.992 170.195 162.777 170.568C162.561 170.941 162.251 171.25 161.878 171.465C161.504 171.68 161.081 171.792 160.65 171.79L121.116 192.695C120.686 192.695 120.263 192.582 119.89 192.367C119.518 192.152 119.209 191.843 118.994 191.47C118.778 191.098 118.665 190.675 118.665 190.245C118.665 189.815 118.778 189.392 118.993 189.02V189.02Z" fill="#2F2E41"/>
<path d="M78.6369 110.129C74.7997 107.986 71.9603 104.418 70.7325 100.197C62.9691 103.212 54.592 104.304 46.3151 103.382C38.0382 102.46 30.107 99.5508 23.1972 94.902C-0.439564 79.0007 -6.73271 46.8342 9.1686 23.1972C25.0699 -0.439747 57.2367 -6.73232 80.8733 9.1686C104.451 25.0302 110.771 57.0765 95.0203 80.6964C96.976 81.7794 98.6979 83.2391 100.086 84.9911C101.475 86.7432 102.503 88.753 103.11 90.9044C103.707 93.0342 103.878 95.2607 103.615 97.4568C103.351 99.6528 102.657 101.775 101.573 103.703C100.489 105.631 99.0358 107.327 97.2964 108.693C95.557 110.06 93.5656 111.07 91.4358 111.667C89.3066 112.269 87.0793 112.443 84.8824 112.179C82.6856 111.915 80.5628 111.219 78.6369 110.129Z" fill="white"/>
<path d="M80.5165 105.847C77.8339 104.167 75.8884 101.532 75.0727 98.4737C74.9142 97.9076 74.6386 97.3812 74.2639 96.9283C73.8892 96.4754 73.4237 96.1061 72.8974 95.8443C72.3711 95.5825 71.7957 95.434 71.2085 95.4083C70.6212 95.3827 70.0351 95.4805 69.488 95.6955L69.2318 95.7963C58.7667 99.9086 47.1744 100.135 36.557 96.4331C25.9397 92.7316 17.0003 85.3478 11.3601 75.6207C5.71982 65.8936 3.75215 54.4673 5.81388 43.4139C7.87561 32.3604 13.8302 22.4118 22.5979 15.3721C31.3656 8.33242 42.3657 4.66781 53.6035 5.04284C64.8413 5.41787 75.5727 9.80771 83.8515 17.4163C92.1303 25.0248 97.4084 35.3483 98.7286 46.5146C100.049 57.6809 97.3237 68.9506 91.0475 78.2801L90.8948 78.5073C90.5665 78.9952 90.3443 79.5465 90.2424 80.1256C90.1405 80.7048 90.1612 81.2988 90.3031 81.8695C90.4451 82.4401 90.7052 82.9746 91.0666 83.4385C91.428 83.9023 91.8827 84.2852 92.4012 84.5625C93.8978 85.3458 95.2213 86.4225 96.2929 87.7283C97.3644 89.034 98.1622 90.5421 98.6385 92.1627C99.1338 93.9323 99.223 95.7909 98.8994 97.5997C98.5758 99.4086 97.8478 101.121 96.7697 102.609C95.3852 104.539 93.459 106.014 91.2351 106.848C89.8433 107.375 88.3674 107.646 86.879 107.648C84.6326 107.646 82.4305 107.023 80.5165 105.847Z" fill="#F0F0F0"/>
<path d="M78.4471 110.467C77.8597 110.137 77.2918 109.773 76.7461 109.377C70.8798 105.121 63.9583 103.15 57.2579 103.825C45.1795 105.033 33.0579 101.991 22.9812 95.2231C-0.832568 79.2027 -7.17298 46.795 8.84744 22.9812C24.8677 -0.832537 57.2754 -7.17314 81.0894 8.84745C90.9536 15.5019 98.245 25.3299 101.753 36.6998C105.261 48.0697 104.775 60.2975 100.375 71.3529C99.3878 73.7841 98.9809 76.412 99.1869 79.028C99.393 81.6439 100.206 84.1757 101.562 86.4223C102.955 88.6832 103.805 91.2353 104.048 93.8794C104.291 96.5235 103.919 99.1879 102.962 101.664C102.004 104.141 100.487 106.363 98.5289 108.156C96.5707 109.949 94.2243 111.265 91.6733 112.002C90.1111 112.454 88.4929 112.684 86.8665 112.686C83.9163 112.679 81.0172 111.915 78.4471 110.467ZM9.81106 23.6295C3.75374 32.6335 0.733281 43.338 1.19066 54.1802C1.64804 65.0224 5.55932 75.4345 12.3534 83.8964C19.1475 92.3582 28.4687 98.4266 38.956 101.216C49.4433 104.005 60.5476 103.368 70.6476 99.3994L71.246 99.164L71.4192 99.7833C72.569 103.887 75.3018 107.366 79.0164 109.455C82.7311 111.543 87.1234 112.071 91.2271 110.921C95.3307 109.771 98.8096 107.039 100.898 103.324C102.987 99.6092 103.515 95.2169 102.365 91.1133C101.776 89.0277 100.773 87.082 99.4165 85.3922C98.0597 83.7023 96.3766 82.3029 94.4676 81.2773L93.901 80.9745L94.2595 80.4411C101.788 69.2424 104.561 55.5122 101.968 42.2697C99.3745 29.0273 91.6281 17.3568 80.4319 9.82469C69.2357 2.2926 55.5064 -0.484391 42.2631 2.10439C29.0197 4.69317 17.3468 12.4358 9.81107 23.6295H9.81106Z" fill="#3F3D56"/>
<path d="M73.2638 58.1029C76.594 58.1029 79.2936 55.4033 79.2936 52.0731C79.2936 48.743 76.594 46.0434 73.2638 46.0434C69.9337 46.0434 67.2341 48.743 67.2341 52.0731C67.2341 55.4033 69.9337 58.1029 73.2638 58.1029Z" fill="#597C75"/>
<path d="M52.6917 58.1029C56.0219 58.1029 58.7215 55.4033 58.7215 52.0731C58.7215 48.743 56.0219 46.0434 52.6917 46.0434C49.3616 46.0434 46.662 48.743 46.662 52.0731C46.662 55.4033 49.3616 58.1029 52.6917 58.1029Z" fill="#597C75"/>
<path d="M32.1196 58.1029C35.4497 58.1029 38.1494 55.4033 38.1494 52.0731C38.1494 48.743 35.4497 46.0434 32.1196 46.0434C28.7895 46.0434 26.0898 48.743 26.0898 52.0731C26.0898 55.4033 28.7895 58.1029 32.1196 58.1029Z" fill="#597C75"/>
<path d="M155.994 80.5036C155.355 79.0934 153.86 78.5083 152.387 78.446C150.498 78.366 148.757 79.178 147.048 79.8799C145.283 80.6048 143.476 81.1962 141.542 81.0471C139.827 80.9123 138.174 80.3406 136.742 79.3865C135.33 78.4674 134.194 77.1819 133.455 75.6673C132.717 74.1527 132.404 72.4659 132.549 70.7872C132.859 67.4493 134.81 64.2463 137.917 62.8339C139.682 62.04 141.641 61.7772 143.554 62.0775C145.467 62.3778 147.25 63.2282 148.688 64.525L147.697 64.9356C147.284 60.8166 149.524 56.8989 152.667 54.385C155.983 51.733 160.224 50.2 164.381 49.5195C168.655 48.7694 173.047 49.1 177.16 50.4811C180.583 51.7001 183.704 53.6414 186.311 56.1733C189.019 58.7953 191.129 61.9717 192.496 65.4849C193.863 68.9982 194.455 72.7653 194.23 76.5284C193.991 80.5082 192.931 84.3955 191.119 87.9466C189.31 91.4191 186.835 94.5014 183.835 97.0173C177.863 102.106 170.463 105.111 163.171 107.769C162.264 108.1 161.355 108.426 160.445 108.75C159.74 109.001 159.436 107.879 160.136 107.63C167.171 105.121 174.332 102.514 180.475 98.1655C183.517 96.0635 186.165 93.4415 188.297 90.42C190.461 87.2532 191.944 83.6716 192.653 79.9018C193.722 74.592 193.035 69.0782 190.695 64.1932C188.355 59.3081 184.489 55.3172 179.681 52.8229C176.207 51.0631 172.348 50.1959 168.455 50.2996C164.228 50.3761 160.077 51.43 156.326 53.3789C152.851 55.2167 149.823 58.1584 148.994 62.128C148.805 63.0514 148.759 63.9984 148.858 64.9357C148.911 65.4667 148.204 65.6606 147.867 65.3463C146.672 64.2792 145.209 63.5583 143.635 63.2612C142.061 62.9641 140.436 63.102 138.934 63.6602C135.953 64.7652 133.973 67.7362 133.704 70.8541C133.568 72.4115 133.88 73.9754 134.604 75.361C135.328 76.7466 136.434 77.896 137.79 78.6734C139.149 79.4856 140.704 79.9133 142.287 79.9108C144.136 79.8933 145.839 79.1281 147.519 78.4377C149.314 77.7 151.135 77.0853 153.1 77.351C154.713 77.5692 156.299 78.3763 156.997 79.9175C157.303 80.5931 156.302 81.1842 155.994 80.5036L155.994 80.5036Z" fill="#2F2E41"/>
<path d="M56.816 218H229.978C230.1 218 230.217 217.951 230.303 217.865C230.389 217.778 230.437 217.661 230.437 217.539C230.437 217.417 230.389 217.3 230.303 217.214C230.217 217.127 230.1 217.078 229.978 217.078H56.816C56.694 217.078 56.5771 217.127 56.4909 217.214C56.4048 217.3 56.3564 217.417 56.3564 217.539C56.3564 217.661 56.4048 217.778 56.4909 217.865C56.5771 217.951 56.694 218 56.816 218Z" fill="#3F3D56"/>
</g>
<defs>
<clipPath id="clip0_18_187">
<rect width="230.439" height="218" fill="white"/>
</clipPath>
</defs>
</svg>
