<svg width="16" height="12" viewBox="0 0 16 12" fill="none" xmlns="http://www.w3.org/2000/svg">
<path d="M1 1C1 0.734784 1.10536 0.48043 1.29289 0.292893C1.48043 0.105357 1.73478 0 2 0H14C14.2652 0 14.5196 0.105357 14.7071 0.292893C14.8946 0.48043 15 0.734784 15 1H1ZM8 9C8.53043 9 9.03914 8.78929 9.41421 8.41421C9.78929 8.03914 10 7.53043 10 7C10 6.46957 9.78929 5.96086 9.41421 5.58579C9.03914 5.21071 8.53043 5 8 5C7.46957 5 6.96086 5.21071 6.58579 5.58579C6.21071 5.96086 6 6.46957 6 7C6 7.53043 6.21071 8.03914 6.58579 8.41421C6.96086 8.78929 7.46957 9 8 9Z" fill="#19A036"/>
<path d="M0 3C0 2.73478 0.105357 2.48043 0.292893 2.29289C0.48043 2.10536 0.734784 2 1 2H15C15.2652 2 15.5196 2.10536 15.7071 2.29289C15.8946 2.48043 16 2.73478 16 3V11C16 11.2652 15.8946 11.5196 15.7071 11.7071C15.5196 11.8946 15.2652 12 15 12H1C0.734784 12 0.48043 11.8946 0.292893 11.7071C0.105357 11.5196 0 11.2652 0 11V3ZM3 3C3 3.53043 2.78929 4.03914 2.41421 4.41421C2.03914 4.78929 1.53043 5 1 5V9C1.53043 9 2.03914 9.21071 2.41421 9.58579C2.78929 9.96086 3 10.4696 3 11H13C13 10.4696 13.2107 9.96086 13.5858 9.58579C13.9609 9.21071 14.4696 9 15 9V5C14.4696 5 13.9609 4.78929 13.5858 4.41421C13.2107 4.03914 13 3.53043 13 3H3Z" fill="#19A036"/>
</svg>
