<svg width="12" height="14" viewBox="0 0 12 14" fill="none" xmlns="http://www.w3.org/2000/svg">
<path d="M9.36333 0.885999H8.51733L2.59533 13H3.44133L9.36333 0.885999ZM0.813328 3.298C0.813328 4.666 1.83933 5.692 3.20733 5.692C4.55733 5.692 5.61933 4.666 5.61933 3.298C5.61933 1.948 4.55733 0.885999 3.20733 0.885999C1.83933 0.885999 0.813328 1.948 0.813328 3.298ZM1.83933 3.298C1.83933 2.524 2.43333 1.912 3.20733 1.912C3.98133 1.912 4.59333 2.524 4.59333 3.298C4.59333 4.072 3.98133 4.666 3.20733 4.666C2.43333 4.666 1.83933 4.072 1.83933 3.298ZM6.39333 10.786C6.39333 12.154 7.41933 13.18 8.78733 13.18C10.1373 13.18 11.1993 12.154 11.1993 10.786C11.1993 9.436 10.1373 8.374 8.78733 8.374C7.41933 8.374 6.39333 9.436 6.39333 10.786ZM7.41933 10.786C7.41933 10.012 8.01333 9.4 8.78733 9.4C9.56133 9.4 10.1733 10.012 10.1733 10.786C10.1733 11.56 9.56133 12.154 8.78733 12.154C8.01333 12.154 7.41933 11.56 7.41933 10.786Z" fill="black" fill-opacity="0.65"/>
</svg>
