<svg width="11" height="14" viewBox="0 0 11 14" fill="none" xmlns="http://www.w3.org/2000/svg">
<path d="M3.5895 0.652742L3.0159 0.825542C2.50517 0.979565 2.04905 1.27628 1.70126 1.68077C1.35346 2.08526 1.12844 2.58069 1.0527 3.10874C0.815103 4.76314 1.3463 6.69754 2.6271 8.91594C3.9047 11.1287 5.3111 12.5543 6.8591 13.1783C7.35648 13.3788 7.90097 13.4322 8.42782 13.3322C8.95468 13.2323 9.44174 12.9831 9.8311 12.6143L10.2647 12.2031C10.5463 11.9367 10.7215 11.577 10.7578 11.1911C10.7942 10.8051 10.6892 10.4191 10.4623 10.1047L9.3775 8.60074C9.23084 8.3977 9.02432 8.24563 8.78688 8.16587C8.54945 8.0861 8.29301 8.08263 8.0535 8.15594L6.4127 8.65754L6.3703 8.66554C6.1895 8.69194 5.7719 8.30074 5.2519 7.39994C4.7079 6.45754 4.5959 5.90634 4.7455 5.76394L5.5799 4.98554C5.88503 4.70111 6.09347 4.3283 6.17596 3.9194C6.25846 3.5105 6.21088 3.08603 6.0399 2.70554L5.5103 1.52874C5.35105 1.17462 5.06846 0.890484 4.7152 0.729312C4.36195 0.568139 3.96214 0.540925 3.5903 0.652742H3.5895ZM4.7815 1.85674L5.3095 3.03354C5.41233 3.26173 5.44109 3.51639 5.39173 3.76176C5.34236 4.00713 5.21737 4.23087 5.0343 4.40154L4.1975 5.18074C3.6623 5.68794 3.8399 6.55354 4.5599 7.79994C5.2367 8.97274 5.8543 9.55194 6.5183 9.45114L6.6175 9.43034L8.2879 8.92074C8.36775 8.89622 8.45327 8.8973 8.53246 8.92384C8.61166 8.95039 8.68056 9.00105 8.7295 9.06874L9.8143 10.5727C9.9279 10.7299 9.98054 10.923 9.96244 11.116C9.94434 11.3091 9.85673 11.489 9.7159 11.6223L9.2815 12.0335C9.00338 12.2968 8.65554 12.4746 8.2793 12.5459C7.90307 12.6173 7.51427 12.5791 7.1591 12.4359C5.8007 11.8887 4.5167 10.5871 3.3207 8.51594C2.1215 6.43994 1.6359 4.67434 1.8447 3.22234C1.89875 2.84509 2.05946 2.49113 2.30792 2.20214C2.55637 1.91315 2.88222 1.70116 3.2471 1.59114L3.8207 1.41834C4.00667 1.36246 4.20661 1.37613 4.38325 1.45679C4.55988 1.53745 4.70115 1.67961 4.7807 1.85674H4.7815Z" fill="black" fill-opacity="0.65"/>
</svg>
