<svg width="16" height="16" viewBox="0 0 16 16" fill="none" xmlns="http://www.w3.org/2000/svg">
<path d="M12 4.80001C12 5.01218 11.9157 5.21566 11.7657 5.36569C11.6156 5.51572 11.4121 5.60001 11.2 5.60001C10.9878 5.60001 10.7843 5.51572 10.6343 5.36569C10.4843 5.21566 10.4 5.01218 10.4 4.80001C10.4 4.58783 10.4843 4.38435 10.6343 4.23432C10.7843 4.08429 10.9878 4.00001 11.2 4.00001C11.4121 4.00001 11.6156 4.08429 11.7657 4.23432C11.9157 4.38435 12 4.58783 12 4.80001ZM9.99998 1.60001C7.53918 1.60001 5.59998 3.53921 5.59998 6.00001C5.59998 6.31761 5.63198 6.63681 5.69758 6.94001C5.74398 7.15601 5.69118 7.34321 5.58398 7.45041L1.95198 11.0824C1.84032 11.1939 1.75176 11.3264 1.69136 11.4721C1.63096 11.6179 1.5999 11.7742 1.59998 11.932V13.2C1.59998 13.5183 1.7264 13.8235 1.95145 14.0485C2.17649 14.2736 2.48172 14.4 2.79998 14.4H4.39998C4.71824 14.4 5.02346 14.2736 5.2485 14.0485C5.47355 13.8235 5.59998 13.5183 5.59998 13.2V12.8H6.39998C6.61215 12.8 6.81563 12.7157 6.96566 12.5657C7.11569 12.4157 7.19998 12.2122 7.19998 12V11.2H7.99998C8.21215 11.2 8.41563 11.1157 8.56566 10.9657C8.71569 10.8157 8.79998 10.6122 8.79998 10.4V10.256C9.19438 10.3632 9.60558 10.4 9.99998 10.4C12.4608 10.4 14.4 8.46081 14.4 6.00001C14.4 3.53921 12.4608 1.60001 9.99998 1.60001ZM6.39998 6.00001C6.39998 3.98081 7.98078 2.40001 9.99998 2.40001C12.0192 2.40001 13.6 3.98081 13.6 6.00001C13.6 8.01921 12.0192 9.60001 9.99998 9.60001C9.47198 9.60001 8.98158 9.52401 8.57918 9.32241C8.51819 9.29185 8.45041 9.27739 8.38226 9.28041C8.31412 9.28343 8.24788 9.30383 8.18984 9.33966C8.1318 9.3755 8.08389 9.42558 8.05065 9.48515C8.01742 9.54472 7.99998 9.6118 7.99998 9.68001V10.4H7.19998C6.9878 10.4 6.78432 10.4843 6.63429 10.6343C6.48426 10.7844 6.39998 10.9878 6.39998 11.2V12H5.59998C5.3878 12 5.18432 12.0843 5.03429 12.2343C4.88426 12.3844 4.79998 12.5878 4.79998 12.8V13.2C4.79998 13.3061 4.75783 13.4078 4.68282 13.4828C4.6078 13.5579 4.50606 13.6 4.39998 13.6H2.79998C2.69389 13.6 2.59215 13.5579 2.51713 13.4828C2.44212 13.4078 2.39998 13.3061 2.39998 13.2V11.9312C2.4 11.8253 2.442 11.7238 2.51678 11.6488L6.14958 8.01601C6.49518 7.67041 6.56718 7.18081 6.47918 6.77121C6.42581 6.51763 6.39926 6.25914 6.39998 6.00001V6.00001Z" fill="black" fill-opacity="0.65"/>
</svg>
