<svg width="48" height="48" viewBox="0 0 48 48" fill="none" xmlns="http://www.w3.org/2000/svg">
<g filter="url(#filter0_d_3463_1788)">
<path d="M8.79999 10H15.8175V6.5H5.29999V17H8.79999V10ZM8.79999 31H5.29999V41.5H15.8175V38H8.79999V31ZM36.8 38H29.8V41.5H40.3V31H36.8V38ZM29.8 10H36.8V17H40.3V6.5H29.8V10Z" fill="white"/>
<path d="M10.55 22.25H21.05V11.75H10.55V22.25ZM14.05 15.25H17.55V18.75H14.05V15.25ZM10.55 36.25H21.05V25.75H10.55V36.25ZM14.05 29.25H17.55V32.75H14.05V29.25ZM35.05 11.75H24.55V22.25H35.05V11.75ZM31.55 18.75H28.05V15.25H31.55V18.75ZM24.5675 25.75H28.0675V29.25H24.5675V25.75ZM28.0675 29.25H31.5675V32.75H28.0675V29.25ZM31.5675 32.75H35.0675V36.25H31.5675V32.75ZM31.5675 25.75H35.0675V29.25H31.5675V25.75Z" fill="white"/>
</g>
<defs>
<filter id="filter0_d_3463_1788" x="-9.20001" y="-6" width="64" height="64" filterUnits="userSpaceOnUse" color-interpolation-filters="sRGB">
<feFlood flood-opacity="0" result="BackgroundImageFix"/>
<feColorMatrix in="SourceAlpha" type="matrix" values="0 0 0 0 0 0 0 0 0 0 0 0 0 0 0 0 0 0 127 0" result="hardAlpha"/>
<feOffset dy="2"/>
<feGaussianBlur stdDeviation="2"/>
<feComposite in2="hardAlpha" operator="out"/>
<feColorMatrix type="matrix" values="0 0 0 0 0 0 0 0 0 0 0 0 0 0 0 0 0 0 0.1 0"/>
<feBlend mode="normal" in2="BackgroundImageFix" result="effect1_dropShadow_3463_1788"/>
<feBlend mode="normal" in="SourceGraphic" in2="effect1_dropShadow_3463_1788" result="shape"/>
</filter>
</defs>
</svg>
