<svg width="16" height="16" viewBox="0 0 16 16" fill="none" xmlns="http://www.w3.org/2000/svg">
<path d="M9.27325 1.94L7.88659 3.33333H9.33325C10.7477 3.33333 12.1043 3.89524 13.1045 4.89543C14.1047 5.89562 14.6666 7.25218 14.6666 8.66667H13.3333C13.3333 7.6058 12.9118 6.58839 12.1617 5.83824C11.4115 5.08809 10.3941 4.66667 9.33325 4.66667H7.88659L9.27992 6.06L8.33325 7L5.33325 4L6.27325 3.06L8.33325 1L9.27325 1.94ZM1.33325 8V14.6667H11.9999V8H1.33325ZM2.66659 12.3733V10.3C3.06733 10.0672 3.4005 9.73408 3.63325 9.33333H9.69992C9.93267 9.73408 10.2658 10.0672 10.6666 10.3V12.3733C10.2715 12.606 9.94312 12.9366 9.71325 13.3333H3.63325C3.39968 12.935 3.06657 12.6041 2.66659 12.3733ZM6.66659 12.6667C7.21859 12.6667 7.66659 12.07 7.66659 11.3333C7.66659 10.5967 7.21859 10 6.66659 10C6.11459 10 5.66659 10.5967 5.66659 11.3333C5.66659 12.07 6.11459 12.6667 6.66659 12.6667Z" fill="black" fill-opacity="0.65"/>
</svg>
