<svg width="16" height="16" viewBox="0 0 16 16" fill="none" xmlns="http://www.w3.org/2000/svg">
<path d="M5.60001 6.00401C5.60001 5.89792 5.64216 5.79618 5.71717 5.72116C5.79218 5.64615 5.89393 5.60401 6.00001 5.60401H7.03201L7.20881 4.72241C7.2322 4.62093 7.29424 4.53257 7.38175 4.47611C7.46926 4.41966 7.57533 4.39956 7.67743 4.42008C7.77952 4.4406 7.86959 4.50013 7.92848 4.58602C7.98738 4.67191 8.01046 4.77737 7.99281 4.88001L7.84881 5.60401H8.63281L8.80881 4.72321C8.83299 4.62273 8.8951 4.53552 8.98215 4.47983C9.0692 4.42414 9.17442 4.4043 9.27578 4.42447C9.37713 4.44463 9.46674 4.50324 9.52584 4.58801C9.58494 4.67278 9.60894 4.77713 9.59281 4.87921L9.44881 5.60401H10.2008C10.3069 5.60401 10.4086 5.64615 10.4837 5.72116C10.5587 5.79618 10.6008 5.89792 10.6008 6.00401C10.6008 6.11009 10.5587 6.21183 10.4837 6.28685C10.4086 6.36186 10.3069 6.40401 10.2008 6.40401H9.28881L9.12881 7.20401H10.0008C10.1069 7.20401 10.2086 7.24615 10.2837 7.32116C10.3587 7.39618 10.4008 7.49792 10.4008 7.60401C10.4008 7.71009 10.3587 7.81183 10.2837 7.88685C10.2086 7.96186 10.1069 8.00401 10.0008 8.00401H8.96961L8.79521 8.87841C8.77139 8.97933 8.7093 9.06707 8.62203 9.1231C8.53477 9.17913 8.42915 9.19908 8.32747 9.17874C8.22578 9.1584 8.13596 9.09937 8.07696 9.01408C8.01796 8.9288 7.99439 8.82394 8.01121 8.72161L8.15361 8.00401H7.36801L7.19281 8.87841C7.1841 8.93138 7.16481 8.98206 7.1361 9.02743C7.10739 9.07279 7.06984 9.11191 7.02569 9.14245C6.98154 9.173 6.93169 9.19434 6.87911 9.20521C6.82654 9.21609 6.77231 9.21626 6.71967 9.20573C6.66702 9.19521 6.61704 9.17419 6.57269 9.14393C6.52834 9.11367 6.49053 9.0748 6.46152 9.02962C6.43252 8.98445 6.4129 8.93389 6.40384 8.88097C6.39479 8.82806 6.39648 8.77386 6.40881 8.72161L6.55281 8.00401H5.80241C5.69633 8.00401 5.59458 7.96186 5.51957 7.88685C5.44455 7.81183 5.40241 7.71009 5.40241 7.60401C5.40241 7.49792 5.44455 7.39618 5.51957 7.32116C5.59458 7.24615 5.69633 7.20401 5.80241 7.20401H6.71201L6.87201 6.40401H6.00001C5.89393 6.40401 5.79218 6.36186 5.71717 6.28685C5.64216 6.21183 5.60001 6.11009 5.60001 6.00401ZM8.31361 7.20401L8.47361 6.40401H7.68801L7.52801 7.20401H8.31361ZM4.80001 1.60001H11.2032C11.6276 1.60001 12.0345 1.76858 12.3346 2.06864C12.6346 2.36869 12.8032 2.77566 12.8032 3.20001V12.4008C12.8032 12.5069 12.7611 12.6086 12.6861 12.6836C12.611 12.7587 12.5093 12.8008 12.4032 12.8008H4.00001C4.00022 13.0128 4.0846 13.2161 4.23461 13.366C4.38462 13.5158 4.58798 13.6 4.80001 13.6H12.4032C12.5093 13.6 12.611 13.6421 12.6861 13.7172C12.7611 13.7922 12.8032 13.8939 12.8032 14C12.8032 14.1061 12.7611 14.2078 12.6861 14.2828C12.611 14.3579 12.5093 14.4 12.4032 14.4H4.80001C4.37567 14.4 3.9687 14.2314 3.66864 13.9314C3.36858 13.6313 3.20001 13.2244 3.20001 12.8V3.20001C3.20001 2.77566 3.36858 2.36869 3.66864 2.06864C3.9687 1.76858 4.37567 1.60001 4.80001 1.60001ZM4.00001 12.0008H12.0032V3.20001C12.0032 2.98783 11.9189 2.78435 11.7689 2.63432C11.6189 2.48429 11.4154 2.40001 11.2032 2.40001H4.80001C4.58784 2.40001 4.38436 2.48429 4.23433 2.63432C4.0843 2.78435 4.00001 2.98783 4.00001 3.20001V12.0008Z" fill="black" fill-opacity="0.65"/>
</svg>
