<svg width="8" height="14" viewBox="0 0 8 14" fill="none" xmlns="http://www.w3.org/2000/svg">
<path d="M0.517395 13.0735C0.594804 13.1511 0.686762 13.2127 0.788004 13.2547C0.889246 13.2967 0.997782 13.3184 1.10739 13.3184C1.21701 13.3184 1.32554 13.2967 1.42678 13.2547C1.52803 13.2127 1.61998 13.1511 1.69739 13.0735L7.30406 7.46687C7.36586 7.40519 7.4149 7.33193 7.44835 7.25129C7.4818 7.17064 7.49902 7.08418 7.49902 6.99687C7.49902 6.90956 7.4818 6.8231 7.44835 6.74245C7.4149 6.6618 7.36586 6.58855 7.30406 6.52687L1.69739 0.920202C1.37073 0.593535 0.844061 0.593535 0.517395 0.920202C0.190728 1.24687 0.190728 1.77354 0.517395 2.1002L5.41073 6.99354L0.510728 11.8935C0.190728 12.2202 0.190728 12.7469 0.517395 13.0735Z" fill="white"/>
</svg>
