<svg width="30" height="31" viewBox="0 0 30 31" fill="none" xmlns="http://www.w3.org/2000/svg">
<path d="M27.1875 6.7627H22.5V5.12207C22.5 4.99316 22.3945 4.8877 22.2656 4.8877H20.625C20.4961 4.8877 20.3906 4.99316 20.3906 5.12207V6.7627H16.0547V5.12207C16.0547 4.99316 15.9492 4.8877 15.8203 4.8877H14.1797C14.0508 4.8877 13.9453 4.99316 13.9453 5.12207V6.7627H9.60938V5.12207C9.60938 4.99316 9.50391 4.8877 9.375 4.8877H7.73438C7.60547 4.8877 7.5 4.99316 7.5 5.12207V6.7627H2.8125C2.29395 6.7627 1.875 7.18164 1.875 7.7002V24.5752C1.875 25.0938 2.29395 25.5127 2.8125 25.5127H27.1875C27.7061 25.5127 28.125 25.0938 28.125 24.5752V7.7002C28.125 7.18164 27.7061 6.7627 27.1875 6.7627ZM26.0156 23.4033H3.98438V8.87207H7.5V10.5127C7.5 10.6416 7.60547 10.7471 7.73438 10.7471H9.375C9.50391 10.7471 9.60938 10.6416 9.60938 10.5127V8.87207H13.9453V10.5127C13.9453 10.6416 14.0508 10.7471 14.1797 10.7471H15.8203C15.9492 10.7471 16.0547 10.6416 16.0547 10.5127V8.87207H20.3906V10.5127C20.3906 10.6416 20.4961 10.7471 20.625 10.7471H22.2656C22.3945 10.7471 22.5 10.6416 22.5 10.5127V8.87207H26.0156V23.4033ZM12.1875 14.7314H6.79688C6.66797 14.7314 6.5625 14.8369 6.5625 14.9658V16.3721C6.5625 16.501 6.66797 16.6064 6.79688 16.6064H12.1875C12.3164 16.6064 12.4219 16.501 12.4219 16.3721V14.9658C12.4219 14.8369 12.3164 14.7314 12.1875 14.7314ZM12.1875 18.7158H6.79688C6.66797 18.7158 6.5625 18.8213 6.5625 18.9502V20.3564C6.5625 20.4854 6.66797 20.5908 6.79688 20.5908H12.1875C12.3164 20.5908 12.4219 20.4854 12.4219 20.3564V18.9502C12.4219 18.8213 12.3164 18.7158 12.1875 18.7158ZM21.2168 13.5186L18.1816 17.7285L16.6348 15.5869C16.5469 15.4639 16.4063 15.3936 16.2568 15.3936H14.6484C14.458 15.3936 14.3467 15.6104 14.458 15.7656L17.8008 20.4004C17.8439 20.4603 17.9007 20.5091 17.9664 20.5427C18.0321 20.5763 18.1049 20.5939 18.1787 20.5939C18.2525 20.5939 18.3253 20.5763 18.391 20.5427C18.4567 20.5091 18.5135 20.4603 18.5566 20.4004L23.3906 13.7002C23.502 13.5449 23.3906 13.3281 23.2002 13.3281H21.5918C21.4453 13.3252 21.3047 13.3984 21.2168 13.5186Z" fill="#597C75"/>
</svg>
