<svg width="30" height="30" viewBox="0 0 30 30" fill="none" xmlns="http://www.w3.org/2000/svg">
<path d="M25.547 15C25.6407 16.0312 24.9376 16.875 23.9532 16.875H6.04695C5.06258 16.875 4.35945 16.0312 4.4532 15L5.43758 4.59375C5.53133 3.5625 6.42195 2.71875 7.40633 2.71875H22.5938C23.5782 2.71875 24.4688 3.5625 24.5626 4.59375L25.547 15Z" fill="#597C75" fill-opacity="0.47"/>
<path d="M4.17188 14.2969H6.98438V18.0469H4.17188V14.2969Z" fill="#597C75" fill-opacity="0.46"/>
<path d="M23.0156 14.2969H25.8281V18.0469H23.0156V14.2969Z" fill="#597C75" fill-opacity="0.46"/>
<path d="M6.84375 23.8594H9.65625V28.5937H6.84375V23.8594Z" fill="#597C75" fill-opacity="0.46"/>
<path d="M20.3438 23.8594H23.1562V28.5937H20.3438V23.8594Z" fill="#597C75" fill-opacity="0.46"/>
<path d="M19.4063 11.7187C19.2657 12.9375 18.2813 13.9687 17.297 13.9687H12.7032C11.672 13.9687 10.7345 12.9844 10.5938 11.7187L9.7501 4.875C9.60947 3.65625 10.3126 2.625 11.297 2.625H18.6563C19.6876 2.625 20.3907 3.65625 20.2032 4.875L19.4063 11.7187Z" fill="#597C75" fill-opacity="0.63"/>
<path d="M10.7814 27.6094C10.6876 27.375 10.4064 27.1406 10.172 27.1406H6.42199C6.14074 27.1406 5.90637 27.3281 5.81262 27.6094L5.10949 29.5312C5.01574 29.7656 5.15637 30 5.43762 30H11.0626C11.3439 30 11.4845 29.8125 11.3907 29.5312L10.7814 27.6094Z" fill="black"/>
<path d="M24.8907 29.5312L24.2345 27.6094C24.1407 27.375 23.8595 27.1406 23.6251 27.1406H19.8751C19.5939 27.1406 19.3595 27.3281 19.2657 27.6094L18.6095 29.5312C18.5157 29.7656 18.6564 30 18.9376 30H24.5626C24.797 30 24.9376 29.8125 24.8907 29.5312Z" fill="black"/>
<path d="M21.6562 2.8125C21.6562 3.84375 20.8594 4.6875 19.875 4.6875H10.0781C9.09375 4.6875 8.29688 3.84375 8.29688 2.8125V1.875C8.29688 0.84375 9.09375 0 10.0781 0H19.875C20.8594 0 21.6562 0.84375 21.6562 1.875V2.8125Z" fill="#597C75"/>
<path d="M7.26555 13.6875L7.12492 12.7031C7.03117 12.1875 6.6093 11.7656 6.14055 11.7656H4.87492C4.40617 11.7656 3.9843 12.1875 3.89055 12.7031L3.74992 13.6875C3.65617 14.2031 3.9843 14.625 4.45305 14.625H6.56242C7.03117 14.625 7.3593 14.2031 7.26555 13.6875Z" fill="#597C75"/>
<path d="M26.1562 13.6875L26.0155 12.7031C25.9218 12.1875 25.4999 11.7656 25.0312 11.7656H23.7655C23.2968 11.7656 22.8749 12.1875 22.7812 12.7031L22.6405 13.6875C22.5468 14.2031 22.8749 14.625 23.3437 14.625H25.453C25.9218 14.625 26.203 14.2031 26.1562 13.6875Z" fill="#597C75"/>
<path d="M24.1406 16.875H5.85935C4.40622 16.875 3.5156 18.2813 3.79685 20.0156L3.98435 21.2344C4.2656 22.9687 5.71872 24.375 7.12497 24.375H22.7812C24.2343 24.375 25.6406 22.9687 25.9218 21.2344L26.1562 20.0156C26.4843 18.3281 25.5468 16.875 24.1406 16.875Z" fill="#597C75"/>
</svg>
