<svg width="30" height="30" viewBox="0 0 30 30" fill="none" xmlns="http://www.w3.org/2000/svg">
<path d="M16.875 2.5V6.25M6.25 5H23.75V10.625L20.625 15V22.5C20.625 22.5 20.625 27.5 15 27.5C9.375 27.5 9.375 22.5 9.375 22.5V15L6.25 10.625V5ZM9.375 2.5V6.25V2.5ZM13.125 2.5V6.25V2.5Z" stroke="black" stroke-opacity="0.65" stroke-width="1.33333" stroke-linecap="round" stroke-linejoin="round"/>
<path d="M16.875 19.375C16.875 18.3395 16.0355 17.5 15 17.5C13.9645 17.5 13.125 18.3395 13.125 19.375V21.875C13.125 22.9105 13.9645 23.75 15 23.75C16.0355 23.75 16.875 22.9105 16.875 21.875V19.375Z" stroke="black" stroke-opacity="0.65" stroke-width="1.33333" stroke-linecap="round" stroke-linejoin="round"/>
<path d="M20.625 2.5V6.25M6.25 10.625H23.75H6.25Z" stroke="black" stroke-opacity="0.65" stroke-width="1.33333" stroke-linecap="round" stroke-linejoin="round"/>
</svg>
