<svg width="30" height="48" viewBox="0 0 30 48" fill="none" xmlns="http://www.w3.org/2000/svg">
<path d="M16.875 2.5V6.25M6.25 5H23.75V10.625L20.625 15V22.5C20.625 22.5 20.625 27.5 15 27.5C9.375 27.5 9.375 22.5 9.375 22.5V15L6.25 10.625V5ZM9.375 2.5V6.25V2.5ZM13.125 2.5V6.25V2.5Z" stroke="#597C75" stroke-width="1.33333" stroke-linecap="round" stroke-linejoin="round"/>
<path d="M16.875 19.375C16.875 18.3395 16.0355 17.5 15 17.5C13.9645 17.5 13.125 18.3395 13.125 19.375V21.875C13.125 22.9105 13.9645 23.75 15 23.75C16.0355 23.75 16.875 22.9105 16.875 21.875V19.375Z" stroke="#597C75" stroke-width="1.33333" stroke-linecap="round" stroke-linejoin="round"/>
<path d="M20.625 2.5V6.25M6.25 10.625H23.75H6.25Z" stroke="#597C75" stroke-width="1.33333" stroke-linecap="round" stroke-linejoin="round"/>
<g filter="url(#filter0_dii_3001_1516)">
<rect x="12" y="30" width="6" height="6" rx="3" fill="url(#paint0_linear_3001_1516)"/>
</g>
<defs>
<filter id="filter0_dii_3001_1516" x="4" y="26" width="22" height="22" filterUnits="userSpaceOnUse" color-interpolation-filters="sRGB">
<feFlood flood-opacity="0" result="BackgroundImageFix"/>
<feColorMatrix in="SourceAlpha" type="matrix" values="0 0 0 0 0 0 0 0 0 0 0 0 0 0 0 0 0 0 127 0" result="hardAlpha"/>
<feOffset dy="4"/>
<feGaussianBlur stdDeviation="4"/>
<feColorMatrix type="matrix" values="0 0 0 0 0.1825 0 0 0 0 0.121729 0 0 0 0 0.00410627 0 0 0 0.25 0"/>
<feBlend mode="normal" in2="BackgroundImageFix" result="effect1_dropShadow_3001_1516"/>
<feBlend mode="normal" in="SourceGraphic" in2="effect1_dropShadow_3001_1516" result="shape"/>
<feColorMatrix in="SourceAlpha" type="matrix" values="0 0 0 0 0 0 0 0 0 0 0 0 0 0 0 0 0 0 127 0" result="hardAlpha"/>
<feOffset dy="1.33333"/>
<feGaussianBlur stdDeviation="0.666667"/>
<feComposite in2="hardAlpha" operator="arithmetic" k2="-1" k3="1"/>
<feColorMatrix type="matrix" values="0 0 0 0 0.514139 0 0 0 0 0.691667 0 0 0 0 0.657147 0 0 0 1 0"/>
<feBlend mode="normal" in2="shape" result="effect2_innerShadow_3001_1516"/>
<feColorMatrix in="SourceAlpha" type="matrix" values="0 0 0 0 0 0 0 0 0 0 0 0 0 0 0 0 0 0 127 0" result="hardAlpha"/>
<feOffset dy="-1.33333"/>
<feGaussianBlur stdDeviation="0.666667"/>
<feComposite in2="hardAlpha" operator="arithmetic" k2="-1" k3="1"/>
<feColorMatrix type="matrix" values="0 0 0 0 0.199333 0 0 0 0 0.2875 0 0 0 0 0.269867 0 0 0 1 0"/>
<feBlend mode="normal" in2="effect2_innerShadow_3001_1516" result="effect3_innerShadow_3001_1516"/>
</filter>
<linearGradient id="paint0_linear_3001_1516" x1="15" y1="30" x2="15" y2="36" gradientUnits="userSpaceOnUse">
<stop stop-color="#597C75"/>
<stop offset="1" stop-color="#5D827B"/>
</linearGradient>
</defs>
</svg>
