<svg width="17" height="16" viewBox="0 0 17 16" fill="none" xmlns="http://www.w3.org/2000/svg">
<path d="M12.4458 4.38606L13.4649 3.59717L14.1449 4.47583L13.1998 5.20717" fill="#D0CFCE"/>
<path d="M12.4458 4.38606L13.4649 3.59717L14.1449 4.47583L13.1998 5.20717" stroke="#D0CFCE" stroke-width="0.444444" stroke-miterlimit="10" stroke-linecap="round" stroke-linejoin="round"/>
<path d="M7.4585 1.55566H9.90472V2.95433H7.4585V1.55566Z" fill="#D0CFCE"/>
<path d="M8.6824 13.1763C11.5052 13.1763 13.7935 10.888 13.7935 8.06521C13.7935 5.24242 11.5052 2.9541 8.6824 2.9541C5.85961 2.9541 3.57129 5.24242 3.57129 8.06521C3.57129 10.888 5.85961 13.1763 8.6824 13.1763Z" fill="white"/>
<path d="M8.6824 13.1763C11.5052 13.1763 13.7935 10.888 13.7935 8.06521C13.7935 5.24242 11.5052 2.9541 8.6824 2.9541C5.85961 2.9541 3.57129 5.24242 3.57129 8.06521C3.57129 10.888 5.85961 13.1763 8.6824 13.1763Z" stroke="black" stroke-opacity="0.65" stroke-width="0.444444" stroke-miterlimit="10" stroke-linecap="round" stroke-linejoin="round"/>
<path d="M7.68262 2.16166V1.55566H9.68262V2.19855M13.026 3.93722L13.4651 3.59722L14.1451 4.47589L13.738 4.791L13.026 3.93722Z" stroke="black" stroke-opacity="0.65" stroke-width="0.444444" stroke-miterlimit="10" stroke-linecap="round" stroke-linejoin="round"/>
<path d="M8.5772 3.99596C8.69993 3.99596 8.79942 3.89647 8.79942 3.77374C8.79942 3.65101 8.69993 3.55151 8.5772 3.55151C8.45447 3.55151 8.35498 3.65101 8.35498 3.77374C8.35498 3.89647 8.45447 3.99596 8.5772 3.99596Z" fill="black" fill-opacity="0.65"/>
<path d="M8.5772 12.4498C8.69993 12.4498 8.79942 12.3503 8.79942 12.2276C8.79942 12.1049 8.69993 12.0054 8.5772 12.0054C8.45447 12.0054 8.35498 12.1049 8.35498 12.2276C8.35498 12.3503 8.45447 12.4498 8.5772 12.4498Z" fill="black" fill-opacity="0.65"/>
<path d="M11.7252 5.17084C11.811 5.0851 11.8093 4.94439 11.7215 4.85657C11.6336 4.76875 11.4929 4.76706 11.4072 4.8528C11.3215 4.93855 11.3232 5.07925 11.411 5.16707C11.4988 5.2549 11.6395 5.25658 11.7252 5.17084Z" fill="black" fill-opacity="0.65"/>
<path d="M5.74722 11.1484C5.83296 11.0626 5.83127 10.9219 5.74344 10.8341C5.65562 10.7463 5.51491 10.7446 5.42917 10.8303C5.34343 10.9161 5.34512 11.0568 5.43295 11.1446C5.52077 11.2324 5.66148 11.2341 5.74722 11.1484Z" fill="black" fill-opacity="0.65"/>
<path d="M12.8043 8.22301C12.927 8.22301 13.0265 8.12352 13.0265 8.00079C13.0265 7.87806 12.927 7.77856 12.8043 7.77856C12.6815 7.77856 12.582 7.87806 12.582 8.00079C12.582 8.12352 12.6815 8.22301 12.8043 8.22301Z" fill="black" fill-opacity="0.65"/>
<path d="M4.35015 8.22301C4.47288 8.22301 4.57237 8.12352 4.57237 8.00079C4.57237 7.87806 4.47288 7.77856 4.35015 7.77856C4.22742 7.77856 4.12793 7.87806 4.12793 8.00079C4.12793 8.12352 4.22742 8.22301 4.35015 8.22301Z" fill="black" fill-opacity="0.65"/>
<path d="M8.68687 7.97998H5.26465H8.68687ZM8.69687 7.98331L6.27687 10.4033L8.69687 7.98331Z" fill="black" fill-opacity="0.65"/>
<path d="M8.69687 7.98331L6.27687 10.4033M8.68687 7.97998H5.26465H8.68687Z" stroke="black" stroke-opacity="0.65" stroke-width="0.444444" stroke-miterlimit="10" stroke-linecap="round" stroke-linejoin="round"/>
<path d="M11.721 11.1449C11.8088 11.0571 11.8105 10.9163 11.7248 10.8306C11.639 10.7449 11.4983 10.7466 11.4105 10.8344C11.3227 10.9222 11.321 11.0629 11.4067 11.1487C11.4925 11.2344 11.6332 11.2327 11.721 11.1449Z" fill="black" fill-opacity="0.65"/>
<path d="M5.74345 5.16685C5.83127 5.07902 5.83296 4.93832 5.74721 4.85258C5.66147 4.76684 5.52077 4.76853 5.43294 4.85636C5.34512 4.94418 5.34343 5.08489 5.42918 5.17063C5.51492 5.25637 5.65562 5.25468 5.74345 5.16685Z" fill="black" fill-opacity="0.65"/>
</svg>
