<svg width="30" height="30" viewBox="0 0 30 30" fill="none" xmlns="http://www.w3.org/2000/svg">
<path d="M21.5625 18.7502C20.8607 18.7537 20.1687 18.9148 19.5375 19.2214C18.9063 19.5281 18.3521 19.9726 17.9156 20.5221L11.0625 16.2377C11.3122 15.4316 11.3122 14.5688 11.0625 13.7627L17.9156 9.47832C18.6112 10.3396 19.5891 10.9269 20.6763 11.1362C21.7634 11.3455 22.8895 11.1632 23.8551 10.6217C24.8208 10.0802 25.5636 9.2144 25.9519 8.17767C26.3403 7.14094 26.3492 6.00021 25.9771 4.95754C25.605 3.91486 24.8758 3.03756 23.9187 2.48103C22.9617 1.9245 21.8386 1.72468 20.7483 1.91694C19.658 2.10921 18.671 2.68117 17.962 3.53149C17.2531 4.38181 16.868 5.45562 16.875 6.56269C16.8794 6.98192 16.9425 7.39847 17.0625 7.80019L10.2093 12.0846C9.60431 11.3229 8.77734 10.7684 7.84304 10.4977C6.90874 10.2271 5.91339 10.2539 4.99497 10.5743C4.07655 10.8947 3.28054 11.4928 2.71729 12.2859C2.15404 13.0789 1.85144 14.0275 1.85144 15.0002C1.85144 15.9729 2.15404 16.9215 2.71729 17.7145C3.28054 18.5076 4.07655 19.1057 4.99497 19.4261C5.91339 19.7465 6.90874 19.7732 7.84304 19.5026C8.77734 19.232 9.60431 18.6775 10.2093 17.9158L17.0625 22.2002C16.9425 22.6019 16.8794 23.0185 16.875 23.4377C16.875 24.3648 17.1499 25.2711 17.6649 26.0419C18.18 26.8128 18.9121 27.4136 19.7686 27.7684C20.6252 28.1232 21.5677 28.216 22.4769 28.0351C23.3862 27.8543 24.2215 27.4078 24.877 26.7523C25.5326 26.0967 25.979 25.2615 26.1599 24.3522C26.3408 23.4429 26.2479 22.5004 25.8931 21.6439C25.5384 20.7873 24.9375 20.0552 24.1667 19.5402C23.3958 19.0251 22.4896 18.7502 21.5625 18.7502ZM21.5625 3.75019C22.1187 3.75019 22.6625 3.91514 23.125 4.22418C23.5875 4.53322 23.948 4.97248 24.1609 5.48639C24.3737 6.00031 24.4294 6.56581 24.3209 7.11138C24.2124 7.65695 23.9445 8.15809 23.5512 8.55143C23.1579 8.94476 22.6567 9.21263 22.1112 9.32115C21.5656 9.42967 21.0001 9.37397 20.4862 9.1611C19.9722 8.94823 19.533 8.58775 19.2239 8.12523C18.9149 7.66272 18.75 7.11895 18.75 6.56269C18.75 5.81677 19.0463 5.1014 19.5737 4.57395C20.1012 4.04651 20.8165 3.75019 21.5625 3.75019ZM6.56246 17.8127C6.0062 17.8127 5.46243 17.6477 4.99992 17.3387C4.5374 17.0297 4.17692 16.5904 3.96405 16.0765C3.75118 15.5626 3.69548 14.9971 3.804 14.4515C3.91252 13.9059 4.18039 13.4048 4.57372 13.0115C4.96706 12.6181 5.4682 12.3503 6.01377 12.2417C6.55934 12.1332 7.12484 12.1889 7.63876 12.4018C8.15267 12.6147 8.59193 12.9751 8.90097 13.4376C9.21001 13.9002 9.37496 14.4439 9.37496 15.0002C9.37496 15.7461 9.07864 16.4615 8.5512 16.9889C8.02375 17.5164 7.30838 17.8127 6.56246 17.8127ZM21.5625 26.2502C21.0062 26.2502 20.4624 26.0852 19.9999 25.7762C19.5374 25.4672 19.1769 25.0279 18.964 24.514C18.7512 24.0001 18.6955 23.4346 18.804 22.889C18.9125 22.3434 19.1804 21.8423 19.5737 21.449C19.9671 21.0556 20.4682 20.7878 21.0138 20.6792C21.5593 20.5707 22.1248 20.6264 22.6388 20.8393C23.1527 21.0522 23.5919 21.4126 23.901 21.8752C24.21 22.3377 24.375 22.8814 24.375 23.4377C24.375 24.1836 24.0786 24.899 23.5512 25.4264C23.0238 25.9539 22.3084 26.2502 21.5625 26.2502Z" fill="black" fill-opacity="0.65"/>
</svg>
