<svg width="16" height="16" viewBox="0 0 16 16" fill="none" xmlns="http://www.w3.org/2000/svg">
<path d="M8.79998 9.20001V11.6C8.79998 11.7061 8.84212 11.8078 8.91713 11.8828C8.99215 11.9579 9.09389 12 9.19998 12H11.6C11.7061 12 11.8078 11.9579 11.8828 11.8828C11.9578 11.8078 12 11.7061 12 11.6V9.20001C12 9.09392 11.9578 8.99218 11.8828 8.91716C11.8078 8.84215 11.7061 8.80001 11.6 8.80001H9.19998C9.09389 8.80001 8.99215 8.84215 8.91713 8.91716C8.84212 8.99218 8.79998 9.09392 8.79998 9.20001ZM9.59998 11.2V9.60001H11.2V11.2H9.59998ZM3.99998 1.60001C3.94135 1.60003 3.88344 1.61294 3.83035 1.63782C3.77727 1.66271 3.7303 1.69896 3.69278 1.74401L1.69278 4.14401C1.63285 4.21586 1.60002 4.30645 1.59998 4.40001V5.60001C1.59998 6.31041 1.90878 6.94961 2.39998 7.38881V14C2.39998 14.1061 2.44212 14.2078 2.51713 14.2828C2.59215 14.3579 2.69389 14.4 2.79998 14.4H13.2C13.3061 14.4 13.4078 14.3579 13.4828 14.2828C13.5578 14.2078 13.6 14.1061 13.6 14V7.38881C14.0912 6.94881 14.4 6.31041 14.4 5.60001V4.40001V4.38561C14.4 4.31361 14.4 4.25601 14.3072 4.14401L12.3072 1.74401C12.2697 1.69896 12.2227 1.66271 12.1696 1.63782C12.1165 1.61294 12.0586 1.60003 12 1.60001H3.99998ZM3.99998 7.20001C3.57563 7.20001 3.16866 7.03143 2.8686 6.73138C2.56855 6.43132 2.39998 6.02435 2.39998 5.60001V4.80001H5.59998V5.60001C5.59998 6.02435 5.4314 6.43132 5.13135 6.73138C4.83129 7.03143 4.42432 7.20001 3.99998 7.20001ZM7.99998 7.20001C7.57563 7.20001 7.16866 7.03143 6.8686 6.73138C6.56855 6.43132 6.39998 6.02435 6.39998 5.60001V4.80001H9.59998V5.60001C9.59998 6.02435 9.4314 6.43132 9.13135 6.73138C8.83129 7.03143 8.42432 7.20001 7.99998 7.20001ZM12 7.20001C11.5756 7.20001 11.1687 7.03143 10.8686 6.73138C10.5685 6.43132 10.4 6.02435 10.4 5.60001V4.80001H13.6V5.60001C13.6 6.02435 13.4314 6.43132 13.1313 6.73138C12.8313 7.03143 12.4243 7.20001 12 7.20001ZM3.99998 13.6H3.19998V7.86401C3.70422 8.04274 4.25375 8.04769 4.76113 7.87808C5.26851 7.70847 5.70459 7.37404 5.99998 6.92801C6.2189 7.25795 6.51613 7.52853 6.86513 7.71559C7.21412 7.90265 7.60401 8.00037 7.99998 8.00001C8.39601 8.00028 8.78595 7.90244 9.13495 7.71524C9.48395 7.52804 9.78114 7.2573 9.99998 6.92721C10.2954 7.37324 10.7314 7.70767 11.2388 7.87728C11.7462 8.04689 12.2957 8.04194 12.8 7.86321V13.6H7.99998V9.20001C7.99998 9.09392 7.95783 8.99218 7.88282 8.91716C7.8078 8.84215 7.70606 8.80001 7.59998 8.80001H4.39998C4.29389 8.80001 4.19215 8.84215 4.11713 8.91716C4.04212 8.99218 3.99998 9.09392 3.99998 9.20001V13.6ZM5.71198 4.00001H2.85438L4.18718 2.40001H6.24478L5.71198 4.00001ZM9.44478 4.00001H6.55518L7.08798 2.40001H8.91198L9.44478 4.00001ZM10.288 4.00001L9.75518 2.40001H11.8128L13.1464 4.00001H10.288ZM4.79998 13.6V9.60001H7.19998V13.6H4.79998Z" fill="black" fill-opacity="0.65"/>
</svg>
