<svg width="30" height="31" viewBox="0 0 30 31" fill="none" xmlns="http://www.w3.org/2000/svg">
<path d="M22.5 2.7002C22.7163 2.69999 22.9261 2.77462 23.0937 2.91145L23.1875 2.99895L27.2787 7.41145L27.3162 7.45895C27.4437 7.62895 27.5012 7.82145 27.5012 8.00895L27.4987 10.4089C27.4987 11.6514 27.0262 12.7839 26.2487 13.6339V26.7627C26.2487 26.9892 26.1667 27.2081 26.0178 27.3789C25.8689 27.5496 25.6632 27.6606 25.4387 27.6914L25.3112 27.7002H4.68998C4.46322 27.7005 4.24403 27.6186 4.07304 27.4696C3.90204 27.3207 3.79082 27.1148 3.75998 26.8902L3.75248 26.7627L3.74998 13.6352C3.01086 12.8263 2.57258 11.7878 2.50873 10.6939L2.49998 10.4089V8.0627C2.48912 7.88461 2.53085 7.70726 2.61998 7.5527L2.70123 7.43395L2.75123 7.37645L6.81248 3.0002C6.95923 2.84181 7.15615 2.73893 7.36998 2.70895L7.49998 2.7002H22.5ZM18.8525 13.2527L18.8375 13.2752C18.392 13.8729 17.8131 14.3582 17.1468 14.6924C16.4805 15.0266 15.7454 15.2005 15 15.2002C14.2499 15.2009 13.5102 15.0252 12.8405 14.6874C12.1709 14.3495 11.5901 13.8589 11.145 13.2552C10.7003 13.8587 10.1199 14.3492 9.45066 14.6871C8.78144 15.025 8.04215 15.2007 7.29248 15.2002C6.70623 15.2002 6.14498 15.0952 5.62498 14.9027L5.62623 25.8252H7.49998V17.3902C7.50003 17.1635 7.58225 16.9444 7.73141 16.7737C7.88057 16.6029 8.08656 16.492 8.31123 16.4614L8.43748 16.4502H14.0575C14.284 16.4502 14.5029 16.5322 14.6736 16.6812C14.8444 16.8301 14.9554 17.0358 14.9862 17.2602L14.995 17.3877V25.8227H24.3725V14.9014C23.3981 15.2635 22.3322 15.2983 21.3362 15.0006C20.3403 14.7029 19.4684 14.0889 18.8525 13.2514V13.2527ZM13.1187 18.3264H9.37498V25.8239H13.1187V18.3264ZM21.5687 16.4514C21.7953 16.4515 22.0142 16.5335 22.1849 16.6824C22.3556 16.8313 22.4667 17.037 22.4975 17.2614L22.5062 17.3889V21.7664C22.5062 21.993 22.4242 22.2119 22.2753 22.3826C22.1264 22.5533 21.9207 22.6644 21.6962 22.6952L21.5687 22.7039H17.1925C16.9659 22.7039 16.7471 22.6219 16.5763 22.473C16.4056 22.3241 16.2945 22.1184 16.2637 21.8939L16.255 21.7664V17.3889C16.255 17.1624 16.337 16.9435 16.4859 16.7728C16.6348 16.602 16.8405 16.491 17.065 16.4602L17.1925 16.4514H21.5687ZM20.6312 18.3264H18.1287V20.8289H20.63V18.3264H20.6312ZM10.2062 8.9527H4.37623V10.4089L4.38498 10.6214L4.41998 10.9114L4.46123 11.1064L4.52373 11.3214L4.59123 11.5064L4.64123 11.6239C4.67998 11.7089 4.72373 11.7914 4.76998 11.8714L4.89873 12.0739L4.96623 12.1664L5.12748 12.3614L5.30498 12.5414L5.42498 12.6477L5.47748 12.6902C5.87123 13.0027 6.34623 13.2177 6.86748 13.2939L7.09248 13.3177L7.29248 13.3239C8.03127 13.3241 8.74256 13.0437 9.28252 12.5395C9.82249 12.0352 10.1509 11.3448 10.2012 10.6077L10.2087 10.4077V8.95395L10.2062 8.9527ZM17.9125 8.9527H12.0825V10.4089C12.0825 11.8839 13.18 13.1052 14.6037 13.2977L14.7987 13.3177L14.9987 13.3239C15.7375 13.3241 16.4488 13.0437 16.9888 12.5395C17.5287 12.0352 17.8571 11.3448 17.9075 10.6077L17.915 10.4077V8.95395L17.9125 8.9527ZM25.6212 8.9527H19.79L19.7912 10.4089C19.7912 11.8839 20.8887 13.1052 22.3112 13.2977L22.5075 13.3177L22.7075 13.3239C23.4125 13.3239 24.0587 13.0739 24.5637 12.6564L24.6762 12.5589L24.8212 12.4177L25.0037 12.2052C25.0712 12.1189 25.1337 12.0302 25.1912 11.9352L25.3212 11.7027L25.4 11.5302L25.4725 11.3364L25.51 11.2164L25.5575 11.0264L25.5925 10.8302L25.615 10.6214L25.6225 10.4089V8.9527H25.6212ZM11.3275 4.57395H7.90873L5.58748 7.0777H10.5587L11.3287 4.57395H11.3275ZM16.7112 4.57395H13.2887L12.5187 7.0777H17.4812L16.7112 4.57395ZM22.09 4.57395H18.6725L19.4425 7.0777H24.4125L22.09 4.57395Z" fill="#597C75"/>
</svg>
