<svg width="335" height="202" viewBox="0 0 335 202" fill="none" xmlns="http://www.w3.org/2000/svg">
<g clip-path="url(#clip0_11_332)">
<path d="M17.4783 200.966C17.4559 200.867 15.2885 190.983 19.7149 182.774C24.1414 174.566 33.5899 170.946 33.6849 170.91L34.1167 170.748L34.2187 171.198C34.2411 171.297 36.4085 181.18 31.9821 189.389C27.5559 197.598 18.1071 201.218 18.0122 201.254L17.5802 201.416L17.4783 200.966ZM33.5245 171.846C31.6319 172.661 24.1622 176.224 20.4237 183.157C16.6848 190.09 17.8129 198.29 18.1726 200.317C20.0644 199.505 27.5311 195.948 31.2733 189.007C35.012 182.074 33.8844 173.875 33.5245 171.846V171.846Z" fill="#F1F1F1"/>
<path d="M28.5995 186.51C20.645 191.296 17.5814 200.801 17.5814 200.801C17.5814 200.801 27.4147 202.548 35.3692 197.762C43.3237 192.976 46.3872 183.471 46.3872 183.471C46.3872 183.471 36.554 181.724 28.5995 186.51Z" fill="#F1F1F1"/>
<path d="M149.061 109.791C149.182 109.165 149.164 108.52 149.009 107.901C148.854 107.282 148.565 106.705 148.163 106.21C147.761 105.715 147.255 105.315 146.681 105.036C146.108 104.758 145.48 104.609 144.842 104.599L141.158 95.3359L134.983 96.2015L140.369 109.21C140.424 110.283 140.871 111.298 141.624 112.063C142.377 112.828 143.385 113.29 144.457 113.361C145.528 113.433 146.589 113.109 147.437 112.451C148.286 111.793 148.863 110.847 149.061 109.791Z" fill="#9F616A"/>
<path d="M137.683 106.536L135.77 101.973L123.846 79.2758L124.494 37.2774L124.619 37.2609C132.249 36.2528 137.411 71.4082 137.627 72.9053L145.161 98.6715L146.954 104.351L137.683 106.536Z" fill="#597C75"/>
<path d="M119.362 195.096L125.159 195.096L127.917 172.734L119.36 172.735L119.362 195.096Z" fill="#9F616A"/>
<path d="M117.883 193.204L129.3 193.203H129.301C131.23 193.203 133.081 193.97 134.445 195.334C135.81 196.699 136.577 198.549 136.577 200.479V200.716L117.883 200.716L117.883 193.204Z" fill="#2F2E41"/>
<path d="M66.0555 186.263L70.8124 189.578L85.8603 172.809L78.8399 167.917L66.0555 186.263Z" fill="#9F616A"/>
<path d="M65.9246 183.865L75.292 190.393L75.2924 190.393C76.8755 191.496 77.9555 193.183 78.2948 195.083C78.6342 196.982 78.2051 198.939 77.1019 200.522L76.9667 200.716L61.6296 190.029L65.9246 183.865Z" fill="#2F2E41"/>
<path d="M116.175 189.84L115.925 147.891L112.277 121.514L105.476 144.71L105.463 144.729L80.8171 180.509L71.2272 175.65L71.2797 175.526C71.8658 174.132 85.6756 141.392 89.3875 141.392C89.7117 141.415 90.0365 141.359 90.334 141.228C90.6315 141.097 90.8927 140.896 91.0952 140.642C92.1847 139.187 91.2975 136.1 91.2884 136.069C90.2258 131.663 92.8975 130.162 93.4297 129.912L94.8609 100.366L95.0093 100.377L133.81 103.098L132.183 140.038L128.681 188.437L128.561 188.45L116.175 189.84Z" fill="#2F2E41"/>
<path d="M134.403 109.645L134.235 109.631L92.5059 106.268L92.6089 92.4604L94.6513 56.4092L94.6629 56.3842L102.981 38.3266L108.877 35.6567L117.479 35.204L117.5 35.2092L125.351 37.1543L133.518 95.7804L134.403 109.645Z" fill="#597C75"/>
<path d="M118.827 30.5762C124.151 27.6656 126.108 20.9899 123.198 15.6656C120.287 10.3413 113.611 8.38454 108.287 11.2951C102.963 14.2056 101.006 20.8813 103.917 26.2056C106.827 31.5299 113.503 33.4867 118.827 30.5762Z" fill="#9F616A"/>
<path d="M102.508 23.6936V19.4128C102.508 19.4128 99.0555 15.347 102.853 14.3228C102.853 14.3228 103.889 4.08091 112.864 8.86045C112.864 8.86045 125.292 6.81208 123.911 13.9814C123.911 13.9814 127.018 12.1097 125.983 16.8893L123.98 24.5883C123.98 24.5883 124.947 19.5025 121.84 18.8197L120.114 17.7955C120.114 17.7955 115.281 22.5751 108.031 16.7713C108.031 16.7713 104.924 16.0298 105.269 19.1024C105.615 22.1749 102.508 23.6936 102.508 23.6936Z" fill="#2F2E41"/>
<path d="M112.413 99.3342C112.42 98.6964 112.287 98.0649 112.024 97.4841C111.76 96.9034 111.373 96.3874 110.888 95.9727C110.404 95.5579 109.834 95.2544 109.22 95.0836C108.605 94.9128 107.961 94.8787 107.332 94.9839L102.045 86.5318L96.1256 88.4914L103.758 100.323C104.005 101.368 104.627 102.286 105.505 102.903C106.384 103.521 107.458 103.795 108.525 103.673C109.592 103.551 110.577 103.042 111.293 102.242C112.01 101.443 112.409 100.408 112.413 99.3342Z" fill="#9F616A"/>
<path d="M98.76 96.6699L89.1965 77.2533L89.205 77.2061C89.2435 76.9911 93.0932 55.6161 96.0374 47.7593C99.0004 39.8527 103.056 38.2653 103.227 38.2016L103.313 38.1697L106.949 41.6579L101.912 75.2812L107.342 91.4973L98.76 96.6699Z" fill="#597C75"/>
<path d="M335 0H316.483V18.517H335V0Z" fill="#F1F1F1"/>
<path d="M190.084 72.0555H171.567V90.5725H190.084V72.0555Z" fill="#F1F1F1"/>
<path d="M181.96 82.4583H328.355V8.34634H181.96V82.4583Z" fill="white"/>
<path d="M329.563 83.6659H180.752V7.13865H329.563V83.6659ZM183.168 81.2507H327.148V9.55392H183.168V81.2507Z" fill="#E5E5E5"/>
<path d="M312.167 34.3434H199.532V38.0787H312.167V34.3434Z" fill="#E5E5E5"/>
<path d="M312.167 43.4019H199.532V47.1372H312.167V43.4019Z" fill="#E5E5E5"/>
<path d="M312.167 56.7771H291.235V60.0186H312.167V56.7771Z" fill="#597C75"/>
<path d="M153.772 201.399H0.402544C0.295783 201.399 0.193394 201.357 0.117902 201.282C0.0424105 201.206 0 201.104 0 200.997C0 200.89 0.0424105 200.788 0.117902 200.712C0.193394 200.637 0.295783 200.594 0.402544 200.594H153.772C153.879 200.594 153.981 200.637 154.057 200.712C154.132 200.788 154.175 200.89 154.175 200.997C154.175 201.104 154.132 201.206 154.057 201.282C153.981 201.357 153.879 201.399 153.772 201.399Z" fill="#CBCBCB"/>
</g>
<defs>
<clipPath id="clip0_11_332">
<rect width="335" height="201.416" fill="white"/>
</clipPath>
</defs>
</svg>
