<svg width="17" height="16" viewBox="0 0 17 16" fill="none" xmlns="http://www.w3.org/2000/svg">
<path d="M12.4458 4.38557L13.4649 3.59668L14.1449 4.47535L13.1998 5.20668" fill="#D0CFCE"/>
<path d="M12.4458 4.38557L13.4649 3.59668L14.1449 4.47535L13.1998 5.20668" stroke="#D0CFCE" stroke-width="0.444444" stroke-miterlimit="10" stroke-linecap="round" stroke-linejoin="round"/>
<path d="M7.4585 1.55566H9.90472V2.95433H7.4585V1.55566Z" fill="#D0CFCE"/>
<path d="M8.6824 13.1763C11.5052 13.1763 13.7935 10.888 13.7935 8.06521C13.7935 5.24242 11.5052 2.9541 8.6824 2.9541C5.85961 2.9541 3.57129 5.24242 3.57129 8.06521C3.57129 10.888 5.85961 13.1763 8.6824 13.1763Z" fill="white"/>
<path d="M8.6824 13.1763C11.5052 13.1763 13.7935 10.888 13.7935 8.06521C13.7935 5.24242 11.5052 2.9541 8.6824 2.9541C5.85961 2.9541 3.57129 5.24242 3.57129 8.06521C3.57129 10.888 5.85961 13.1763 8.6824 13.1763Z" stroke="black" stroke-opacity="0.65" stroke-width="0.444444" stroke-miterlimit="10" stroke-linecap="round" stroke-linejoin="round"/>
<path d="M7.6825 2.16166V1.55566H9.6825V2.19855M13.0258 3.93722L13.4649 3.59722L14.1449 4.47589L13.7378 4.791L13.0258 3.93722Z" stroke="black" stroke-opacity="0.65" stroke-width="0.444444" stroke-miterlimit="10" stroke-linecap="round" stroke-linejoin="round"/>
<path d="M8.57708 3.9962C8.69981 3.9962 8.7993 3.89671 8.7993 3.77398C8.7993 3.65125 8.69981 3.55176 8.57708 3.55176C8.45435 3.55176 8.35486 3.65125 8.35486 3.77398C8.35486 3.89671 8.45435 3.9962 8.57708 3.9962Z" fill="black" fill-opacity="0.65"/>
<path d="M8.57708 12.4493C8.69981 12.4493 8.7993 12.3498 8.7993 12.2271C8.7993 12.1044 8.69981 12.0049 8.57708 12.0049C8.45435 12.0049 8.35486 12.1044 8.35486 12.2271C8.35486 12.3498 8.45435 12.4493 8.57708 12.4493Z" fill="black" fill-opacity="0.65"/>
<path d="M11.725 5.1706C11.8107 5.08485 11.8091 4.94415 11.7212 4.85633C11.6334 4.7685 11.4927 4.76682 11.407 4.85256C11.3212 4.9383 11.3229 5.07901 11.4107 5.16683C11.4986 5.25465 11.6393 5.25634 11.725 5.1706Z" fill="black" fill-opacity="0.65"/>
<path d="M5.74746 11.1481C5.8332 11.0624 5.83151 10.9217 5.74369 10.8339C5.65586 10.746 5.51516 10.7444 5.42942 10.8301C5.34368 10.9158 5.34537 11.0565 5.43319 11.1444C5.52102 11.2322 5.66172 11.2339 5.74746 11.1481Z" fill="black" fill-opacity="0.65"/>
<path d="M12.8043 8.22276C12.927 8.22276 13.0265 8.12327 13.0265 8.00054C13.0265 7.87781 12.927 7.77832 12.8043 7.77832C12.6815 7.77832 12.582 7.87781 12.582 8.00054C12.582 8.12327 12.6815 8.22276 12.8043 8.22276Z" fill="black" fill-opacity="0.65"/>
<path d="M4.35027 8.22276C4.473 8.22276 4.5725 8.12327 4.5725 8.00054C4.5725 7.87781 4.473 7.77832 4.35027 7.77832C4.22754 7.77832 4.12805 7.87781 4.12805 8.00054C4.12805 8.12327 4.22754 8.22276 4.35027 8.22276Z" fill="black" fill-opacity="0.65"/>
<path d="M8.68663 7.98047H5.2644H8.68663ZM8.69663 7.9838L6.27663 10.4038L8.69663 7.9838Z" fill="black" fill-opacity="0.65"/>
<path d="M8.69663 7.9838L6.27663 10.4038M8.68663 7.98047H5.2644H8.68663Z" stroke="black" stroke-opacity="0.65" stroke-width="0.444444" stroke-miterlimit="10" stroke-linecap="round" stroke-linejoin="round"/>
<path d="M11.7211 11.1446C11.8089 11.0568 11.8106 10.9161 11.7249 10.8304C11.6391 10.7446 11.4984 10.7463 11.4106 10.8341C11.3228 10.922 11.3211 11.0627 11.4068 11.1484C11.4926 11.2342 11.6333 11.2325 11.7211 11.1446Z" fill="black" fill-opacity="0.65"/>
<path d="M5.74369 5.16709C5.83151 5.07927 5.8332 4.93857 5.74746 4.85282C5.66171 4.76708 5.52101 4.76878 5.43319 4.8566C5.34536 4.94443 5.34368 5.08513 5.42942 5.17087C5.51516 5.25661 5.65587 5.25492 5.74369 5.16709Z" fill="black" fill-opacity="0.65"/>
</svg>
