<svg width="30" height="31" viewBox="0 0 30 31" fill="none" xmlns="http://www.w3.org/2000/svg">
<path d="M16.875 24.5752H24.375V26.4502H16.875V24.5752ZM16.875 20.8252H28.125V22.7002H16.875V20.8252ZM16.875 17.0752H28.125V18.9502H16.875V17.0752Z" fill="#597C75"/>
<path d="M19.2646 10.7161L15 2.0752L10.7353 10.7161L1.19995 12.1018L8.09995 18.8283L6.47058 28.3252L13.125 24.8274V22.7086L8.96151 24.8977L9.94776 19.1452L10.1146 18.173L9.4087 17.4858L5.22933 13.4105L11.0053 12.5714L11.9803 12.4299L12.4171 11.5458L15 6.31176L17.5828 11.5458L18.0196 12.4299L18.9946 12.5714L25.9828 13.5886L26.25 11.7314L19.2646 10.7161Z" fill="#597C75"/>
</svg>
