<svg width="30" height="31" viewBox="0 0 30 31" fill="none" xmlns="http://www.w3.org/2000/svg">
<path d="M14.0625 22.7002H15.9375V24.5752H14.0625V22.7002ZM5.625 14.2627H7.5V16.1377H5.625V14.2627ZM22.5 14.2627H24.375V16.1377H22.5V14.2627Z" fill="#597C75"/>
<path d="M24.2808 5.91941C22.0537 3.67963 19.0886 2.32529 15.9375 2.10842V2.0752H14.0625V7.7002H15.9375V3.98957C21.7037 4.46758 26.25 9.31264 26.25 15.2002C26.25 21.4035 21.2033 26.4502 15 26.4502C8.79674 26.4502 3.75001 21.4035 3.75001 15.2002C3.74872 13.7202 4.04006 12.2545 4.60729 10.8875C5.17451 9.52052 6.00642 8.27916 7.05516 7.23484L13.83 15.7825L15.2994 14.6179L7.30079 4.52605L6.56215 5.14656C4.53647 6.8467 3.07163 9.11913 2.35957 11.6661C1.64752 14.213 1.72148 16.9156 2.57175 19.4198C3.42202 21.924 5.00895 24.1129 7.12458 25.6997C9.24021 27.2865 11.7859 28.1972 14.4279 28.3125C17.07 28.4277 19.6853 27.7421 21.9311 26.3455C24.1768 24.949 25.9483 22.9065 27.0134 20.4859C28.0785 18.0653 28.3875 15.3793 27.8999 12.7801C27.4123 10.1808 26.1509 7.78948 24.2809 5.91941H24.2808Z" fill="#597C75"/>
</svg>
