<svg width="16" height="16" viewBox="0 0 16 16" fill="none" xmlns="http://www.w3.org/2000/svg">
<path d="M11.25 4.86225C11.526 4.86225 11.75 4.65625 11.75 4.40225V3.9165C11.75 3.662 11.526 3.456 11.25 3.456C11.25 -0.485497 4.75 -0.485497 4.75 3.456C4.474 3.456 4.25 3.662 4.25 3.9165V4.40225C4.25 4.65625 4.474 4.86225 4.75 4.86225H4.82025V14.0938H4.75C4.474 14.0938 4.25 14.2998 4.25 14.5538V15.0395C4.25 15.2935 4.474 15.5 4.75 15.5H11.25C11.526 15.5 11.75 15.2935 11.75 15.0395V14.5538C11.75 14.2998 11.526 14.0938 11.25 14.0938H11.1798V4.86225H11.25ZM5.2285 10.1953V8.72075C7.07625 8.2685 8.92375 6.51425 10.7715 6.062V7.536C8.92375 7.98825 7.07625 9.74275 5.2285 10.1953ZM10.7715 8.855V10.329C8.92375 10.7813 7.07625 12.5355 5.2285 12.9878V11.5138C7.07625 11.061 8.92375 9.30675 10.7715 8.855ZM5.92725 14.0938C7.542 13.4478 9.15675 12.0623 10.7715 11.6675V13.1415C9.94675 13.3435 9.27975 13.7095 8.63 14.0938H5.92725ZM5.2285 7.38275V5.90825C5.993 5.72125 6.75725 5.31075 7.5215 4.86225H10.3193C8.62225 5.4565 6.92525 6.967 5.2285 7.38275Z" fill="black" fill-opacity="0.65"/>
</svg>
