<svg width="217" height="218" viewBox="0 0 217 218" fill="none" xmlns="http://www.w3.org/2000/svg">
<path d="M108.097 218C167.797 218 216.194 215.157 216.194 211.651C216.194 208.144 167.797 205.301 108.097 205.301C48.3967 205.301 0 208.144 0 211.651C0 215.157 48.3967 218 108.097 218Z" fill="#E6E6E6" fill-opacity="0.43"/>
<path d="M122.542 50.2964H121.379V18.4384C121.379 13.5482 119.436 8.85835 115.978 5.40048C112.52 1.94261 107.831 0 102.94 0H35.4453C30.5552 0 25.8653 1.94261 22.4074 5.40048C18.9496 8.85835 17.007 13.5482 17.007 18.4384V193.213C17.007 198.103 18.9496 202.793 22.4074 206.251C25.8653 209.708 30.5552 211.651 35.4453 211.651H102.94C107.831 211.651 112.52 209.708 115.978 206.251C119.436 202.793 121.379 198.103 121.379 193.213V72.9732H122.542V50.2964Z" fill="#3F3D56"/>
<path d="M117.454 18.5673V193.084C117.454 196.736 116.003 200.238 113.421 202.821C110.839 205.403 107.336 206.854 103.684 206.854H35.8653C32.2134 206.854 28.7111 205.403 26.1288 202.821C23.5465 200.239 22.0957 196.736 22.0956 193.084V18.5673C22.0957 14.9153 23.5465 11.4129 26.1288 8.83049C28.7112 6.24812 32.2136 4.79733 35.8656 4.79724H44.0931C43.6888 5.79065 43.5348 6.8682 43.6446 7.9351C43.7545 9.002 44.1249 10.0256 44.7232 10.9157C45.3215 11.8059 46.1294 12.5354 47.0758 13.04C48.0222 13.5446 49.0781 13.809 50.1506 13.8098H88.8179C89.8905 13.809 90.9464 13.5447 91.8929 13.0401C92.8393 12.5355 93.6473 11.806 94.2456 10.9158C94.8439 10.0257 95.2143 9.00211 95.3242 7.93518C95.4341 6.86826 95.2801 5.79068 94.8758 4.79724H103.684C107.336 4.79733 110.839 6.24812 113.421 8.83049C116.003 11.4129 117.454 14.9153 117.454 18.5673Z" fill="white"/>
<path d="M53.425 150.699H51.9987L52.4749 122.839H52.9511L53.425 150.699Z" fill="#E6E6E6"/>
<path d="M54.6132 105.299L56.9155 101.741C56.2328 99.8554 55.4442 98.0094 54.5536 96.2123L53.065 97.4149L54.2437 95.5933C53.1202 93.3821 52.2364 91.9888 52.2364 91.9888C52.2364 91.9888 47.6198 99.2641 46.0766 106.968L49.0309 111.534L45.761 108.893C45.6446 109.79 45.5847 110.694 45.5817 111.599C45.5817 120.722 48.5614 128.118 52.237 128.118C55.9126 128.118 58.8924 120.721 58.8924 111.599C58.8924 108.77 58.2524 105.811 57.3685 103.074L54.6132 105.299Z" fill="#CCCCCC"/>
<path d="M90.5554 150.699H89.129L89.6052 122.839H90.0814L90.5554 150.699Z" fill="#E6E6E6"/>
<path d="M91.7436 105.299L94.0459 101.741C93.3632 99.8554 92.5746 98.0094 91.684 96.2123L90.1954 97.4149L91.3741 95.5933C90.2506 93.3821 89.3668 91.9888 89.3668 91.9888C89.3668 91.9888 84.7496 99.2648 83.208 106.968L86.1601 111.534L82.8902 108.892C82.7737 109.789 82.7138 110.693 82.7108 111.598C82.7108 120.722 85.6905 128.118 89.3662 128.118C93.0418 128.118 96.0215 120.721 96.0215 111.598C96.0215 108.77 95.3815 105.811 94.4977 103.073L91.7436 105.299Z" fill="#CCCCCC"/>
<path d="M52.3396 58.3494C59.5773 58.3494 65.4446 52.4822 65.4446 45.2445C65.4446 38.0068 59.5773 32.1395 52.3396 32.1395C45.1019 32.1395 39.2346 38.0068 39.2346 45.2445C39.2346 52.4822 45.1019 58.3494 52.3396 58.3494Z" fill="#E6E6E6"/>
<path d="M70.491 146.642H67.5503L68.5306 89.1986H69.5106L70.491 146.642Z" fill="#E6E6E6"/>
<path d="M72.9415 53.033L77.6886 45.6976C76.2808 41.8089 74.6548 38.0027 72.8184 34.2971L69.7488 36.7762L72.1793 33.0199C69.8618 28.4605 68.0405 25.5878 68.0405 25.5878C68.0405 25.5878 58.5204 40.5899 55.3397 56.474L61.4296 65.8884L54.686 60.4417C54.4459 62.292 54.3223 64.1556 54.3162 66.0214C54.3162 84.8335 60.4601 100.084 68.0389 100.084C75.6178 100.084 81.7617 84.8335 81.7617 66.0214C81.7617 60.1896 80.4423 54.0882 78.6223 48.444L72.9415 53.033Z" fill="#CCCCCC"/>
<path d="M117.454 154.923V193.973C117.454 201.894 111.289 208.314 103.684 208.315H35.8654C28.2605 208.315 22.0953 201.894 22.095 193.973V158.73C33.8533 144.354 50.8538 135.763 68.9725 135.039C87.0912 134.316 104.674 141.526 117.454 154.923Z" fill="#E6E6E6"/>
<path opacity="0.2" d="M69.8487 193.444C80.931 193.444 89.915 184.46 89.915 173.377C89.915 162.295 80.931 153.311 69.8487 153.311C58.7664 153.311 49.7823 162.295 49.7823 173.377C49.7823 184.46 58.7664 193.444 69.8487 193.444Z" fill="#597C75"/>
<path d="M69.8487 189.535C78.7722 189.535 86.0061 182.301 86.0061 173.377C86.0061 164.454 78.7722 157.22 69.8487 157.22C60.9252 157.22 53.6913 164.454 53.6913 173.377C53.6913 182.301 60.9252 189.535 69.8487 189.535Z" fill="#597C75"/>
<path d="M67.9643 180.285L62.2699 172.964L65.5814 170.389L68.2773 173.855L77.3851 164.241L80.4308 167.126L67.9643 180.285Z" fill="white"/>
<path d="M155.712 148.246C161.498 148.246 166.189 143.556 166.189 137.77C166.189 131.984 161.498 127.294 155.712 127.294C149.927 127.294 145.236 131.984 145.236 137.77C145.236 143.556 149.927 148.246 155.712 148.246Z" fill="#2F2E41"/>
<path d="M159.958 196.583L160.765 200.39L175.835 199.089L174.644 193.469L159.958 196.583Z" fill="#FFB8B8"/>
<path d="M158.784 208.482L156.248 196.515L160.872 195.535L162.428 202.878C162.557 203.486 162.565 204.112 162.451 204.722C162.338 205.333 162.105 205.914 161.767 206.435C161.428 206.955 160.991 207.404 160.479 207.755C159.967 208.106 159.392 208.353 158.784 208.482Z" fill="#2F2E41"/>
<path d="M150.517 196.38L148.821 199.883L134.503 195.008L137.006 189.838L150.517 196.38Z" fill="#FFB8B8"/>
<path d="M146.61 201.903L149.881 195.147L154.134 197.207L148.804 208.216C147.676 207.67 146.811 206.698 146.399 205.514C145.988 204.33 146.063 203.031 146.61 201.903Z" fill="#2F2E41"/>
<path d="M122.306 189.461C122.797 189.552 123.301 189.535 123.784 189.41C124.266 189.286 124.716 189.057 125.1 188.74C125.485 188.422 125.796 188.025 126.01 187.574C126.224 187.124 126.337 186.633 126.341 186.134L149.952 164.365L144.089 159.824L122.712 182.663C121.873 182.712 121.082 183.066 120.488 183.66C119.894 184.253 119.538 185.044 119.488 185.882C119.438 186.72 119.698 187.548 120.217 188.207C120.737 188.867 121.48 189.313 122.307 189.461L122.306 189.461Z" fill="#FFB8B8"/>
<path d="M154.397 148.72C158.704 148.72 162.195 145.229 162.195 140.922C162.195 136.616 158.704 133.125 154.397 133.125C150.091 133.125 146.6 136.616 146.6 140.922C146.6 145.229 150.091 148.72 154.397 148.72Z" fill="#FFB8B8"/>
<path d="M161.395 186.756C155.925 186.756 149.338 185.604 145.274 180.89L145.183 180.784L145.278 180.68C145.31 180.646 148.299 177.23 145.313 171.137L141.209 172.399L137.123 167.006L139.386 160.216L148.649 152.755C149.976 151.692 151.592 151.051 153.287 150.916C156.355 150.62 159.344 149.769 162.108 148.404C163.372 147.79 164.765 147.485 166.171 147.515L166.353 147.52C166.781 147.532 167.202 147.631 167.59 147.811C167.978 147.99 168.326 148.247 168.612 148.564C168.898 148.882 169.117 149.255 169.255 149.66C169.393 150.065 169.447 150.493 169.414 150.92C168.786 159.057 167.677 178.712 170.935 185.479L171.02 185.654L170.832 185.702C167.735 186.399 164.57 186.752 161.396 186.756L161.395 186.756Z" fill="#597C75"/>
<path d="M146.347 180.787C146.347 180.787 125.712 178.882 123.49 184.914C121.267 190.946 123.807 193.803 127.617 195.073C131.426 196.342 140.633 197.93 140.633 197.93L144.76 192.85L155.554 193.485C155.554 193.485 167.581 200.461 170.906 207.922C171.62 209.536 172.757 210.927 174.198 211.946C175.639 212.966 177.33 213.576 179.09 213.711C181.756 213.896 184.125 212.89 184.125 208.723C184.125 199.199 170.792 185.548 170.792 185.548L146.347 180.787Z" fill="#2F2E41"/>
<path d="M130.633 190.152C130.633 190.152 136.029 188.565 144.601 192.692L130.633 190.152Z" fill="#2F2E41"/>
<path d="M146.619 135.95C149.664 137.808 153.097 138.94 156.651 139.255L155.594 137.988C156.364 138.272 157.174 138.433 157.994 138.464C158.405 138.476 158.813 138.392 159.185 138.217C159.557 138.043 159.883 137.784 160.137 137.461C160.344 137.126 160.468 136.745 160.496 136.352C160.525 135.959 160.458 135.564 160.301 135.203C159.979 134.481 159.477 133.854 158.844 133.381C157.722 132.493 156.397 131.896 154.988 131.645C153.58 131.393 152.131 131.494 150.77 131.938C149.837 132.216 149.001 132.752 148.358 133.484C148.042 133.853 147.822 134.294 147.719 134.769C147.616 135.243 147.632 135.736 147.766 136.202" fill="#2F2E41"/>
<path d="M155.656 129.717C157.042 126.5 159.115 123.626 161.732 121.297C163.412 119.805 165.374 118.521 167.588 118.134C169.801 117.747 172.297 118.41 173.655 120.201C174.766 121.665 174.973 123.627 174.851 125.461C174.728 127.295 174.318 129.112 174.357 130.948C174.398 132.823 174.905 134.658 175.834 136.287C176.764 137.916 178.085 139.287 179.678 140.275C181.272 141.264 183.087 141.839 184.959 141.948C186.831 142.058 188.7 141.698 190.398 140.901C188.486 141.958 186.997 143.631 185.223 144.904C183.45 146.176 181.108 147.05 179.092 146.208C176.96 145.319 175.981 142.901 175.218 140.719L171.81 130.992C171.231 129.339 170.623 127.636 169.442 126.343C168.26 125.05 166.341 124.261 164.715 124.912C163.482 125.404 162.679 126.581 161.975 127.705C161.271 128.83 160.528 130.029 159.34 130.619C158.152 131.209 156.388 130.846 155.999 129.576" fill="#2F2E41"/>
<path d="M158.331 186.783C158.197 186.783 158.063 186.776 157.929 186.761C157.042 186.661 156.226 186.225 155.65 185.543C155.075 184.86 154.782 183.983 154.833 183.092C154.884 182.2 155.274 181.362 155.924 180.75C156.574 180.137 157.433 179.797 158.326 179.799C158.482 179.799 158.637 179.811 158.791 179.833L169.451 168.486L168.339 164.776L173.926 162.271L175.492 166.099C176.018 167.396 176.111 168.828 175.758 170.182C175.405 171.536 174.625 172.74 173.533 173.615L161.799 182.949C161.812 183.062 161.818 183.177 161.818 183.291C161.818 183.782 161.714 184.268 161.514 184.717C161.313 185.165 161.021 185.566 160.655 185.894C160.018 186.469 159.19 186.786 158.331 186.783Z" fill="#FFB8B8"/>
<path d="M166.665 149.04C167.035 148.876 167.433 148.788 167.838 148.782C168.242 148.776 168.644 148.851 169.018 149.004C169.393 149.157 169.732 149.384 170.017 149.671C170.301 149.959 170.525 150.301 170.674 150.677L176.189 164.596L167.617 170.31L166.665 149.04Z" fill="#597C75"/>
</svg>
